<svg width="40" height="40" viewBox="0 0 40 40" fill="none" xmlns="http://www.w3.org/2000/svg">
<g id="11a&#195;&#177;os">
<path id="Vector" d="M36.79 21.6599C36.46 20.2499 35.83 19.0299 34.53 18.2599C33.62 17.7199 32.6 17.5399 31.55 17.5799C31.16 17.5999 31.16 17.5899 31.19 17.1999C31.22 16.8699 31.35 16.5699 31.47 16.2699C32.18 14.5299 32.5 12.7599 32.19 10.8799C31.62 7.36991 29.79 4.71991 26.71 2.97991C23.65 1.24991 20.33 0.949912 16.92 1.60991C14.56 2.06991 12.47 3.07991 10.8 4.82991C8.14001 7.61991 7.14001 10.8999 7.95001 14.6999C8.11001 15.4599 8.46001 16.1699 8.65001 16.9199C8.82001 17.5899 8.81001 17.5899 8.15001 17.5899C8.07001 17.5899 7.99002 17.5899 7.90001 17.5899C6.24002 17.6799 4.86001 18.3099 3.94001 19.7399C3.10001 21.0699 2.98001 22.5899 3.00001 24.1299C3.00001 24.2599 3.08001 24.3199 3.21001 24.3299C4.50001 24.4499 5.76001 24.3599 7.00001 23.9699C8.27001 23.5699 9.13001 22.7599 9.58001 21.5099C9.60001 21.4499 9.59001 21.3599 9.70001 21.3499C9.75001 21.4499 9.80001 21.5399 9.85002 21.6399C10.41 22.8499 11.18 23.9099 12.16 24.8199C12.56 25.1899 12.56 25.1899 12.09 25.5099C9.34002 27.3699 7.35001 29.8199 6.16001 32.8799C6.13001 32.9699 6.09001 33.0799 6.04001 33.2099C6.04001 33.2599 6.02001 33.3199 6.00001 33.3799C5.61001 34.4799 4.94001 36.5799 5.00001 37.9699C5.07001 38.4399 5.34001 38.6999 5.73001 38.6999C6.13001 38.7099 6.43001 38.4399 6.50001 37.9699C6.56001 37.5699 6.59001 37.1599 6.65001 36.7499C6.85001 35.3099 7.32001 33.9499 7.91001 32.6299C8.09001 32.2399 8.09001 32.2299 8.46001 32.4599C9.42001 33.0299 10.37 33.6199 11.33 34.1899C11.49 34.2899 11.52 34.3999 11.51 34.5699C11.5 35.6299 11.51 36.6999 11.51 37.7599C11.51 37.9099 11.52 38.0699 11.56 38.2199C11.66 38.5699 12 38.7799 12.37 38.7299C12.81 38.6699 13.05 38.3999 13.05 37.8899C13.06 36.6199 13.04 35.3499 13.04 34.0799C13.04 33.6299 12.85 33.3399 12.47 33.1099C11.33 32.4299 10.2 31.7199 9.06002 31.0399C8.88002 30.9299 8.89001 30.8599 8.99001 30.7099C10.22 28.9199 11.72 27.3999 13.58 26.2499C13.74 26.1499 13.87 26.1399 14.03 26.2399C14.24 26.3799 14.47 26.4999 14.7 26.6199C18.34 28.4999 21.96 28.4199 25.53 26.4699C26.05 26.1799 26.37 26.2299 26.81 26.5499C28.44 27.7199 29.95 29.0199 31.05 30.7299C31.17 30.9099 31.16 30.9899 30.96 31.0999C29.78 31.7099 28.69 32.4799 27.54 33.1399C27.16 33.3599 26.99 33.6699 27 34.0899C27 34.6899 26.99 35.2999 26.99 35.8999C26.99 36.5699 26.98 37.2299 26.99 37.8999C27 38.3899 27.26 38.6899 27.68 38.7299C28.17 38.7699 28.52 38.4599 28.52 37.9299C28.53 36.8099 28.52 35.6999 28.51 34.5799C28.51 34.4399 28.49 34.2999 28.65 34.1999C29.68 33.5899 30.71 32.9799 31.74 32.3699C31.9 32.2699 31.97 32.3199 32.04 32.4699C32.51 33.5399 32.92 34.6199 33.2 35.7599C33.39 36.5199 33.42 37.2999 33.56 38.0599C33.64 38.5099 33.99 38.7599 34.39 38.6999C34.79 38.6399 35.06 38.2899 35.02 37.8499C34.97 37.3399 34.92 36.8299 34.84 36.3299C34.26 32.6999 32.55 29.6499 29.94 27.0999C29.25 26.4299 28.48 25.8499 27.67 25.3299C27.58 25.2699 27.36 25.2299 27.58 25.0399C28.71 24.0699 29.52 22.8599 30.16 21.5299C30.21 21.4299 30.22 21.3099 30.35 21.2499C30.38 21.3199 30.4 21.3799 30.43 21.4499C30.89 22.7299 31.75 23.5899 33.05 24.0099C34.25 24.3899 35.48 24.4599 36.72 24.3599C36.93 24.3199 37 24.2299 37 23.9999C37 23.2199 36.98 22.4299 36.79 21.6599ZM8.19001 20.9699C7.84001 22.0599 6.99001 22.5199 5.95001 22.7199C5.56001 22.7999 5.16002 22.8099 4.76002 22.8499C4.64002 22.8599 4.52002 22.8499 4.55002 22.6799C4.72002 21.7399 4.93001 20.8099 5.62001 20.0899C6.29001 19.3699 7.17001 19.1599 8.12001 19.1199C8.29001 19.1099 8.33001 19.2099 8.33001 19.3499C8.33001 19.5099 8.33001 19.6799 8.33001 19.8399C8.34001 20.2099 8.30001 20.5999 8.19001 20.9699ZM29.66 17.7099C29.12 21.8199 26.87 24.5399 23 25.9599C22.01 26.3199 20.98 26.4699 19.84 26.4499C17.16 26.4499 14.84 25.3899 12.94 23.4299C11.41 21.8599 10.51 19.9599 10.26 17.7699C10.22 17.4699 10.27 17.3199 10.62 17.2199C13.01 16.5299 15.24 15.4999 17.2 13.9499C18.25 13.1199 19.15 12.1499 19.8 10.9599C19.99 10.6199 19.99 10.6199 20.2 10.9699C21.25 12.7499 22.75 14.0699 24.5 15.1299C26.03 16.0499 27.65 16.7699 29.38 17.2599C29.63 17.3299 29.69 17.4499 29.66 17.7099ZM30.1 15.7099C30.02 15.9499 29.87 15.8499 29.73 15.8099C28.52 15.4599 27.37 14.9399 26.25 14.3699C24.91 13.6899 23.66 12.8899 22.63 11.7699C21.78 10.8399 21.11 9.78991 20.75 8.56991C20.73 8.50991 20.71 8.44991 20.69 8.39991C20.57 8.07991 20.33 7.89991 19.99 7.87991C19.65 7.86991 19.4 8.04991 19.27 8.35991C19.13 8.70991 19.02 9.06991 18.87 9.41991C18.14 11.1499 16.86 12.4099 15.31 13.4099C13.69 14.4499 11.95 15.2199 10.12 15.8099C9.92001 15.8699 9.87002 15.8099 9.81002 15.6599C9.28001 14.2899 9.07001 12.8799 9.24001 11.4199C9.55001 8.99991 10.61 6.99991 12.44 5.40991C14.02 4.03991 15.87 3.24991 17.94 2.95991C18.61 2.86991 19.28 2.81991 20.13 2.80991C23.18 2.85991 26.06 3.78991 28.34 6.17991C29.83 7.73991 30.56 9.63991 30.78 11.7699C30.92 13.1499 30.54 14.4299 30.1 15.7099ZM35.15 22.8499C34.56 22.7899 33.97 22.7399 33.4 22.5399C32.38 22.1899 31.85 21.4599 31.7 20.4199C31.66 20.1699 31.66 19.9099 31.65 19.7799C31.69 19.0699 31.69 19.0699 32.27 19.1099C33.83 19.2199 35 20.2999 35.32 21.9199C35.36 22.1199 35.37 22.3299 35.42 22.5199C35.49 22.7699 35.42 22.8699 35.15 22.8499Z" fill="#BFBFBF"/>
</g>
</svg>
