<svg width="40" height="40" viewBox="0 0 40 40" fill="none" xmlns="http://www.w3.org/2000/svg">
<g id="2a&#195;&#177;os">
<path id="Vector" d="M37.2102 6.49995C35.4802 6.00995 33.7502 6.04995 32.0202 6.45995C30.7902 6.74995 29.6702 7.30995 28.6202 7.99995C28.5002 8.07995 28.4302 8.07995 28.3302 7.97995C28.0102 7.68995 27.6302 7.50995 27.2002 7.48995C27.0602 7.47995 27.0002 7.42995 26.9402 7.31995C26.7302 6.88995 26.4102 6.55995 26.0002 6.32995C24.5002 5.50995 22.9002 5.03995 21.2102 4.86995C19.6102 4.70995 18.0302 4.87995 16.4902 5.32995C16.2602 5.39995 16.0402 5.46995 15.8102 5.54995C13.9302 6.18995 12.9602 6.99995 12.9302 7.01995C12.5002 7.31995 12.0502 7.60995 11.6802 7.97995C11.5902 8.07995 11.5202 8.08995 11.4002 7.99995C10.9602 7.67995 10.4902 7.41995 10.0002 7.18995C8.89023 6.65995 7.71023 6.33995 6.48023 6.19995C5.25023 6.06995 4.05023 6.16995 2.86023 6.46995C1.78023 6.74995 1.08023 7.93995 1.39023 8.98995C1.48023 9.29995 1.56023 9.61995 1.65023 9.93995C1.90023 10.8799 2.14023 11.83 2.42023 12.77C2.67023 13.61 3.28023 14.0599 4.13023 14.2099C4.69023 14.3099 5.20023 14.1199 5.67023 13.8299C6.46023 13.3499 7.31023 12.9799 8.20023 12.7399C8.34023 12.6999 8.35023 12.7499 8.31023 12.8599C8.29023 12.9199 8.27023 12.9699 8.24023 13.0299C8.11023 13.3499 8.00023 13.6699 8.05023 14.0199C8.07023 14.12 7.99023 14.1199 7.92023 14.1299C5.85023 14.5499 4.51023 16.7699 5.56023 18.9699C6.08023 20.0499 6.99023 20.63 8.17023 20.78C8.44023 20.8099 8.58023 20.8799 8.67023 21.17C8.92023 21.99 9.31023 22.76 9.76023 23.49C11.1602 25.7799 13.1002 27.43 15.5902 28.44C15.8302 28.54 15.8302 28.5399 15.6402 28.7099C15.1302 29.15 14.7002 29.66 14.3402 30.2299C13.7302 31.2199 13.4102 32.3 13.3702 33.45C13.3602 33.82 13.3602 34.19 13.3702 34.56C13.3802 34.98 13.5902 35.1799 14.0102 35.1899C14.0502 35.1899 14.0802 35.1899 14.1202 35.1899C16.0802 35.1899 18.0502 35.1899 20.0102 35.1899C21.6002 35.1899 23.1802 35.1899 24.7702 35.1899C25.2202 35.1899 25.6702 35.1999 26.1202 35.1899C26.4202 35.1799 26.6302 34.9799 26.6402 34.6899C26.6502 33.7799 26.6402 32.8799 26.4002 31.99C26.0402 30.67 25.3302 29.57 24.3102 28.66C24.2102 28.57 24.1902 28.5299 24.3302 28.4799C24.5202 28.41 24.7202 28.33 24.9002 28.25C25.3702 28.03 25.8302 27.8 26.2602 27.51C26.4502 27.38 26.5502 27.1999 26.5102 26.9599C26.4702 26.7299 26.2902 26.56 26.0502 26.52C25.8702 26.49 25.7202 26.57 25.5702 26.66C24.9202 27.0499 24.2302 27.3799 23.5102 27.6299C21.8302 28.2199 20.0902 28.34 18.3502 28.08C16.4702 27.7999 14.7602 27.07 13.2602 25.87C11.6302 24.57 10.4602 22.9599 9.74023 21C9.40023 20.08 9.23023 19.1299 9.15023 18.1599C9.07023 17.2199 9.13023 16.2899 9.29023 15.3599C9.32023 15.1999 9.37023 15.1299 9.56023 15.1399C10.3702 15.15 11.1802 15.1499 11.9902 15.1499C13.1402 15.1499 14.2902 15.1699 15.4302 15.0199C16.6802 14.8499 17.8902 14.5799 19.0702 14.1499C21.0802 13.4299 22.8602 12.32 24.4402 10.89C24.5702 10.77 24.6302 10.7799 24.7402 10.8999C25.7802 11.9499 26.8102 12.99 27.8602 14.0199C28.5302 14.6799 29.3502 15.0599 30.3002 15.1199C30.6602 15.1399 30.6602 15.1399 30.7102 15.4999C30.9102 16.8899 30.9102 18.2799 30.6102 19.6699C30.2302 21.3599 29.5102 22.8799 28.4202 24.2199C28.1102 24.6099 27.7402 24.9499 27.3802 25.2999C27.2102 25.4599 27.1202 25.65 27.2002 25.8899C27.3402 26.2999 27.7702 26.4 28.1202 26.09C28.8002 25.4699 29.4002 24.78 29.9202 24.01C30.5502 23.08 31.0302 22.07 31.3602 21C31.4102 20.85 31.4802 20.8199 31.6102 20.8099C32.9302 20.6999 33.9002 20.07 34.4502 18.87C35.3402 16.9399 34.2902 14.6999 32.2602 14.1799C31.9602 14.0999 31.9602 14.0999 31.9302 13.7899C31.9102 13.4899 31.8002 13.2199 31.7002 12.9499C31.6802 12.8799 31.6002 12.8099 31.6502 12.7499C31.7002 12.6799 31.7802 12.76 31.8502 12.77C31.9502 12.79 32.0502 12.82 32.1502 12.8499C32.9802 13.0999 33.7502 13.4799 34.4902 13.9399C34.9602 14.2399 35.4802 14.3199 36.0302 14.1999C36.9102 13.9899 37.4202 13.41 37.6502 12.56C37.9702 11.38 38.2902 10.2099 38.6002 9.02995C38.9002 7.95995 38.2502 6.79995 37.2102 6.49995ZM8.16023 19.6899C7.08023 19.5199 6.20023 18.36 6.29023 17.2699C6.37023 16.24 7.18023 15.4199 8.05023 15.1999C8.09023 15.1899 8.12023 15.1899 8.14023 15.1799C8.28023 15.1699 8.25023 15.24 8.24023 15.3099C8.16023 15.78 8.10023 16.2499 8.06023 16.7199C8.00023 17.5399 8.07023 18.3499 8.20023 19.1499C8.22023 19.2899 8.25023 19.4399 8.28023 19.5799C8.30023 19.6899 8.26023 19.71 8.16023 19.6899ZM15.6602 34.0999C15.4802 34.0899 15.3002 34.0999 15.1102 34.0999V34.11C14.9302 34.11 14.7602 34.11 14.5802 34.11C14.4902 34.11 14.4402 34.1 14.4502 33.99C14.4502 33.72 14.4502 33.4599 14.4502 33.1899C14.4502 33.0899 14.5002 33.0699 14.5702 33.0999C14.9502 33.2099 15.3302 33.32 15.7002 33.43C15.7602 33.45 15.7502 33.4899 15.7502 33.5299C15.7502 33.6899 15.7502 33.85 15.7502 34C15.7702 34.08 15.7402 34.1099 15.6602 34.0999ZM25.5502 33.2099C25.5402 33.4699 25.5402 33.73 25.5502 33.99C25.5502 34.09 25.5102 34.12 25.4202 34.11C25.2402 34.1 25.0602 34.11 24.8702 34.11C24.8702 34.1 24.8702 34.1 24.8702 34.09C24.6902 34.09 24.5202 34.09 24.3402 34.09C24.2602 34.09 24.2102 34.07 24.2302 33.9799C24.2302 33.9699 24.2302 33.9699 24.2302 33.9599C24.2202 33.4599 24.2202 33.4599 24.7002 33.32C24.9302 33.25 25.1602 33.1799 25.3902 33.0999C25.5002 33.0699 25.5602 33.07 25.5502 33.2099ZM16.7902 29.1399C16.9902 28.99 17.1702 28.94 17.4302 28.99C18.5402 29.24 19.6602 29.36 20.8002 29.26C21.4602 29.2 22.1102 29.1 22.7602 28.95C22.8502 28.93 22.9202 28.93 23.0002 28.9799C24.0402 29.6899 24.8302 30.6 25.2302 31.82C25.2802 31.9599 25.2502 32.01 25.1202 32.06C24.6302 32.24 24.1302 32.3799 23.6202 32.5099C23.2202 32.6099 23.1002 32.7799 23.1102 33.1899C23.1202 33.4299 23.1202 33.6799 23.1302 33.9199C23.1402 34.0599 23.0802 34.1 22.9502 34.09C21.9602 34.09 20.9702 34.09 19.9802 34.09C19.9802 34.09 19.9802 34.0899 19.9802 34.0999C19.0002 34.0999 18.0102 34.0999 17.0302 34.0999C16.9002 34.0999 16.8602 34.0699 16.8702 33.9399C16.8902 33.6699 16.9002 33.41 16.9102 33.1399C16.9202 32.7899 16.7902 32.61 16.4502 32.52C15.9402 32.39 15.4302 32.26 14.9302 32.08C14.7002 32 14.7102 32 14.7902 31.79C15.2102 30.72 15.8602 29.83 16.7902 29.1399ZM31.7302 19.5599C31.9202 18.5599 32.0302 17.5599 31.9302 16.54C31.8902 16.14 31.8302 15.7499 31.7702 15.3499C31.7402 15.15 31.7502 15.1399 31.9302 15.1899C32.9702 15.4599 33.7002 16.3899 33.7002 17.4299C33.7002 18.4999 32.9002 19.4799 31.8602 19.7C31.7502 19.72 31.7102 19.6999 31.7302 19.5599ZM9.02023 11.34C8.96023 11.4599 8.88023 11.5099 8.76023 11.5299C7.40023 11.7199 6.18023 12.2599 5.01023 12.9599C4.35023 13.3599 3.62023 13.0899 3.41023 12.3599C3.07023 11.1799 2.75023 9.98995 2.45023 8.79995C2.28023 8.14995 2.60023 7.64995 3.25023 7.47995C3.97023 7.28995 4.71023 7.24995 5.35023 7.23995C7.31023 7.22995 9.01023 7.77995 10.5802 8.74995C10.7802 8.86995 10.7802 8.86995 10.6202 9.04995C10.0102 9.74995 9.47023 10.51 9.02023 11.34ZM30.6402 14.0599C29.8602 14.0499 29.1902 13.7899 28.6302 13.2499C28.2002 12.8399 27.7902 12.42 27.3802 11.9999C26.6202 11.2299 25.8602 10.4599 25.0902 9.69995C24.7602 9.35995 24.5202 9.35995 24.1602 9.67995C24.1202 9.70995 24.0902 9.73995 24.0502 9.77995C23.0402 10.7599 21.9202 11.5799 20.6802 12.2499C18.7302 13.2999 16.6402 13.91 14.4202 14.0199C12.7302 14.0999 11.0402 14.0399 9.35023 14.0599C9.16023 14.0599 9.13023 13.9599 9.14023 13.8199C9.15023 13.7099 9.18023 13.5899 9.22023 13.4899C9.66023 12.2899 10.2702 11.1999 11.0702 10.1999C11.8002 9.27995 12.6602 8.50995 13.6102 7.82995C13.6302 7.81995 13.6402 7.80995 13.6502 7.79995C14.3702 7.29995 15.2902 6.89995 15.7902 6.69995C15.8702 6.66995 15.9502 6.63995 16.0302 6.60995C16.0502 6.59995 16.0702 6.59995 16.0802 6.58995C17.7502 5.96995 19.4802 5.80995 21.2502 5.97995C22.6902 6.11995 24.0502 6.56995 25.3402 7.20995C25.7302 7.39995 26.0002 7.65995 26.0602 8.11995C26.1002 8.40995 26.2902 8.54995 26.5802 8.55995C26.7302 8.56995 26.8702 8.56995 27.0202 8.56995C27.2602 8.56995 27.4602 8.65995 27.6402 8.81995C28.0702 9.20995 28.4702 9.61995 28.8502 10.06C29.7002 11.05 30.2602 12.2099 30.7602 13.3999C30.8202 13.5299 30.8702 13.6699 30.8702 13.8199C30.8802 14.0199 30.8302 14.0599 30.6402 14.0599ZM37.5602 8.73995C37.3402 9.62995 37.0902 10.5199 36.8502 11.4099C36.7702 11.7199 36.7002 12.03 36.6102 12.34C36.4002 13.07 35.6702 13.36 35.0202 12.9699C34.2602 12.5199 33.4802 12.09 32.6202 11.84C32.1902 11.7099 31.7502 11.61 31.3102 11.5399C31.1402 11.5099 31.0302 11.4299 30.9502 11.2799C30.4902 10.4499 29.9402 9.67995 29.3102 8.96995C29.2202 8.86995 29.2702 8.84995 29.3502 8.79995C30.3702 8.14995 31.4602 7.65995 32.6602 7.41995C33.2902 7.28995 33.9402 7.24995 34.5302 7.23995C35.3302 7.24995 36.0602 7.30995 36.7902 7.48995C37.3702 7.63995 37.7002 8.14995 37.5602 8.73995Z" fill="#BFBFBF" stroke="#BFBFBF" stroke-width="0.5"/>
</g>
</svg>
