<svg width="35" height="38" viewBox="0 0 35 38" fill="none" xmlns="http://www.w3.org/2000/svg">
<g id="Group">
<path id="Vector" d="M17.9896 37.93C14.6896 37.93 11.3997 37.93 8.09965 37.93C7.97965 37.93 7.84965 37.93 7.72965 37.9C7.36965 37.82 7.15965 37.61 7.11965 37.24C7.09965 37.11 7.09965 36.97 7.09965 36.83C7.09965 35.51 7.07965 34.19 7.09965 32.87C7.13965 30.33 7.91965 28.05 9.52965 26.07C9.65965 25.91 9.78965 25.74 9.93965 25.59C10.0296 25.49 10.0097 25.45 9.90965 25.38C9.31965 24.95 8.75965 24.49 8.26965 23.95C7.34965 22.92 6.54965 21.81 6.04965 20.51C6.00965 20.4 5.93965 20.4 5.84965 20.4C5.38965 20.4 4.92965 20.41 4.45965 20.4C2.69965 20.36 1.21965 18.93 1.00965 17.19C0.81965 15.67 1.76965 14.18 2.95965 13.59C3.08965 13.53 3.11965 13.44 3.11965 13.31C3.09965 12.41 3.11965 11.51 3.26965 10.62C3.35965 10.1 3.47965 9.57996 3.63965 9.07996C3.72965 8.77996 3.92965 8.57996 4.24965 8.53996C4.52965 8.49996 4.76965 8.60996 4.93965 8.84996C5.07965 9.03996 5.07965 9.24996 5.02965 9.46996C4.82965 10.2 4.67965 10.93 4.62965 11.68C4.59965 12.15 4.60965 12.62 4.58965 13.08C4.58965 13.19 4.63965 13.2 4.72965 13.2C5.01965 13.2 5.30965 13.2 5.59965 13.2C8.94965 13.2 12.2997 13.2 15.6496 13.2C16.7896 13.2 17.9296 13.16 19.0296 12.82C20.0096 12.52 20.9196 12.09 21.6296 11.31C21.8996 11.02 22.0596 10.69 22.0996 10.29C22.1496 9.82996 22.3296 9.59996 22.6896 9.51996C23.0796 9.43996 23.4496 9.67996 23.5296 10.07C23.5597 10.2 23.5596 10.33 23.5796 10.45C23.6696 10.93 23.9596 11.28 24.3096 11.6C25.0696 12.28 25.9797 12.64 26.9496 12.89C27.8396 13.12 28.7296 13.18 29.6396 13.19C30.1696 13.2 30.6996 13.19 31.2296 13.19C31.3196 13.19 31.3797 13.19 31.3797 13.07C31.4097 11.67 31.2596 10.29 30.7796 8.96996C29.9996 6.80996 28.6996 5.00996 26.8296 3.64996C25.3996 2.60996 23.8096 1.92996 22.0496 1.67996C21.5296 1.59996 20.9996 1.55996 20.4696 1.55996C18.9096 1.55996 17.3497 1.56996 15.7897 1.55996C13.4797 1.53996 11.3897 2.18996 9.46965 3.44996C9.14965 3.65996 8.84965 3.88996 8.55965 4.13996C8.41965 4.25996 8.26965 4.36996 8.07965 4.39996C7.76965 4.44996 7.48965 4.30996 7.34965 4.04996C7.18965 3.74996 7.21965 3.44996 7.45965 3.19996C7.76965 2.87996 8.13965 2.62996 8.49965 2.36996C9.92965 1.32996 11.5396 0.689956 13.2597 0.319956C14.0396 0.149956 14.8296 0.0699558 15.6296 0.0799558C17.3496 0.0799558 19.0697 0.0399558 20.7896 0.0999557C22.9897 0.169956 25.0596 0.779956 26.9296 1.96996C27.8396 2.54996 28.6796 3.20996 29.4096 3.99996C30.2496 4.89996 30.9496 5.89996 31.5296 6.98996C32.0496 7.96996 32.3696 9.01996 32.6096 10.1C32.8496 11.16 32.9096 12.24 32.8696 13.33C32.8596 13.48 32.9096 13.55 33.0496 13.63C34.2996 14.34 34.9996 15.41 34.9996 16.88C34.9996 18.55 33.7496 20.01 32.0896 20.34C31.4696 20.46 30.8496 20.42 30.2296 20.41C30.0596 20.41 29.9796 20.45 29.9096 20.62C29.0996 22.56 27.8096 24.12 26.1296 25.38C26.0296 25.46 25.9796 25.5 26.0896 25.63C26.9196 26.6 27.6196 27.65 28.0996 28.84C28.6397 30.15 28.8796 31.52 28.8896 32.93C28.8996 34.29 28.8796 35.65 28.8996 37.01C28.9096 37.7 28.4696 37.94 27.9696 37.94C24.6496 37.93 21.3196 37.93 17.9896 37.93ZM12.0497 14.68C12.0497 14.67 12.0497 14.67 12.0497 14.68C10.3296 14.68 8.60965 14.68 6.88965 14.68C6.74965 14.68 6.70965 14.72 6.70965 14.86C6.71965 15.44 6.70965 16.02 6.71965 16.6C6.72965 17.3 6.78965 18 6.96965 18.69C7.59965 21.14 9.01965 23.04 11.0696 24.46C12.8996 25.72 14.9496 26.41 17.1796 26.54C18.9896 26.64 20.7396 26.42 22.4396 25.78C24.3997 25.04 26.0296 23.84 27.3296 22.21C28.2896 21 28.8696 19.62 29.1396 18.1C29.3396 17.01 29.2696 15.91 29.2896 14.82C29.2896 14.7 29.2196 14.7 29.1296 14.7C27.8696 14.68 26.6496 14.44 25.4696 14.01C24.4896 13.66 23.6196 13.14 22.9496 12.33C22.8596 12.23 22.8196 12.25 22.7396 12.34C22.3096 12.83 21.8096 13.24 21.2296 13.54C19.7396 14.31 18.1497 14.67 16.4896 14.7C15.0096 14.7 13.5296 14.68 12.0497 14.68ZM17.9996 36.45C19.6496 36.45 21.2997 36.45 22.9496 36.46C23.1497 36.46 23.1796 36.4 23.1796 36.23C23.1696 35.82 23.1796 35.42 23.1796 35.01C23.1796 34.1 23.1796 33.2 23.1796 32.29C23.1796 31.8 23.4697 31.45 23.8596 31.43C24.2997 31.41 24.6396 31.74 24.6496 32.24C24.6596 32.49 24.6596 32.75 24.6496 33C24.6496 33.12 24.6896 33.15 24.7996 33.15C24.8996 33.14 24.9996 33.15 25.0996 33.15C25.8196 33.15 26.5396 33.14 27.2596 33.15C27.3996 33.15 27.4396 33.11 27.4296 32.97C27.4096 32.5 27.4096 32.03 27.3396 31.57C27.0296 29.62 26.2197 27.9 24.8596 26.45C24.7496 26.34 24.6796 26.31 24.5296 26.39C23.7596 26.81 22.9597 27.2 22.1096 27.42C21.7596 27.51 21.6496 27.66 21.5996 28.02C21.3296 30.04 19.2896 31.47 17.2896 31.05C15.5597 30.68 14.4397 29.28 14.3697 27.75C14.3597 27.61 14.3196 27.54 14.1697 27.5C13.2197 27.23 12.3096 26.86 11.4396 26.39C11.3196 26.32 11.2597 26.33 11.1596 26.43C10.0796 27.57 9.35965 28.92 8.89965 30.41C8.63965 31.26 8.56965 32.15 8.54965 33.04C8.54965 33.17 8.60965 33.16 8.69965 33.16C9.52965 33.16 10.3497 33.16 11.1797 33.17C11.3097 33.17 11.3397 33.13 11.3397 33C11.3397 32.67 11.2997 32.35 11.3696 32.02C11.4396 31.72 11.6297 31.53 11.9297 31.46C12.1997 31.4 12.4296 31.49 12.6096 31.69C12.7696 31.87 12.8097 32.09 12.8097 32.33C12.8097 33.65 12.8097 34.97 12.8097 36.28C12.8097 36.43 12.8397 36.48 12.9997 36.47C14.6797 36.45 16.3396 36.45 17.9996 36.45ZM31.1297 18.95C31.4396 18.94 31.7597 18.96 32.0597 18.85C32.9197 18.52 33.4296 17.89 33.5096 16.98C33.5796 16.1 33.1796 15.44 32.4496 14.97C31.9496 14.64 31.3796 14.68 30.8196 14.69C30.7496 14.69 30.7296 14.74 30.7296 14.8C30.7296 14.97 30.7197 15.13 30.7197 15.3C30.7197 16.49 30.7896 17.68 30.4596 18.84C30.4296 18.96 30.4997 18.96 30.5797 18.96C30.7697 18.95 30.9496 18.95 31.1297 18.95ZM5.25965 16.13C5.25965 15.69 5.25965 15.26 5.25965 14.82C5.25965 14.71 5.22965 14.68 5.12965 14.68C4.93965 14.68 4.74965 14.68 4.55965 14.68C4.06965 14.68 3.62965 14.85 3.25965 15.17C2.60965 15.74 2.31965 16.46 2.53965 17.3C2.75965 18.15 3.30965 18.72 4.18965 18.9C4.59965 18.98 5.01965 18.93 5.43965 18.93C5.54965 18.93 5.52965 18.86 5.50965 18.79C5.31965 17.92 5.20965 17.03 5.25965 16.13ZM17.9996 29.64C18.8396 29.66 19.7197 29.06 20.0396 28.25C20.1896 27.87 20.1896 27.87 19.7996 27.92C19.7896 27.92 19.7896 27.92 19.7796 27.92C18.5196 28.07 17.2696 28.09 16.0097 27.89C15.8897 27.87 15.8197 27.88 15.8697 28.04C16.1897 28.98 17.0296 29.62 17.9996 29.64ZM9.97965 34.6C9.56965 34.6 9.15965 34.6 8.73965 34.6C8.60965 34.6 8.54965 34.62 8.55965 34.77C8.56965 35.29 8.55965 35.8 8.55965 36.32C8.55965 36.42 8.57965 36.46 8.68965 36.46C9.53965 36.46 10.3896 36.46 11.2396 36.46C11.3296 36.46 11.3596 36.44 11.3596 36.35C11.3596 35.8 11.3596 35.26 11.3596 34.71C11.3596 34.63 11.3397 34.6 11.2497 34.6C10.8196 34.6 10.3996 34.59 9.97965 34.6ZM26.0496 36.45C26.4696 36.45 26.8896 36.45 27.3096 36.45C27.4296 36.45 27.4696 36.41 27.4596 36.29C27.4496 35.78 27.4396 35.27 27.4396 34.76C27.4396 34.63 27.3996 34.59 27.2696 34.59C26.4496 34.59 25.6296 34.59 24.8096 34.58C24.6896 34.58 24.6496 34.6 24.6496 34.73C24.6596 35.25 24.6596 35.78 24.6496 36.3C24.6496 36.43 24.6996 36.45 24.8096 36.45C25.2196 36.45 25.6396 36.45 26.0496 36.45Z" fill="#BFBFBF"/>
<path id="Vector_2" d="M17.9892 32.97C18.6092 32.97 19.2192 32.97 19.8392 32.97C20.1692 32.97 20.4092 33.14 20.5292 33.45C20.6892 33.86 20.4492 34.31 20.0192 34.41C19.9292 34.43 19.8392 34.44 19.7492 34.44C18.5892 34.44 17.4392 34.44 16.2792 34.44C15.8592 34.44 15.5792 34.26 15.4692 33.93C15.3092 33.45 15.6292 32.98 16.1292 32.97C16.7392 32.96 17.3692 32.97 17.9892 32.97Z" fill="#BFBFBF"/>
</g>
</svg>
