<svg width="24" height="40" viewBox="0 0 24 40" fill="none" xmlns="http://www.w3.org/2000/svg">
<g id="Group">
<path id="Vector" d="M12.0004 28.23C10.0704 28.23 8.13035 28.23 6.20035 28.23C6.08035 28.23 5.95035 28.24 5.83035 28.25C5.58035 28.28 5.46035 28.39 5.46035 28.63C5.45035 29.12 5.46035 29.6 5.46035 30.09C5.46035 30.18 5.50035 30.21 5.59035 30.21C5.67035 30.21 5.75035 30.21 5.83035 30.21C7.93035 30.21 10.0204 30.21 12.1204 30.21C12.2304 30.21 12.3504 30.21 12.4604 30.22C12.8703 30.28 13.1204 30.58 13.1104 30.98C13.1004 31.35 12.8204 31.63 12.4304 31.67C12.1604 31.7 11.8904 31.67 11.6304 31.67C10.1004 31.67 8.57035 31.67 7.05035 31.67C6.85035 31.67 6.93035 31.76 6.97035 31.85C7.37035 32.74 7.73035 33.65 8.08035 34.56C8.85035 36.53 7.68035 38.66 5.62035 39.07C4.33035 39.33 3.26035 38.86 2.44035 37.86C1.87035 37.18 1.33035 36.48 0.800351 35.77C-0.199649 34.43 -0.23965 32.72 0.69035 31.43C0.98035 31.03 1.33035 30.7 1.74035 30.43C1.87035 30.35 1.86035 30.31 1.75035 30.22C0.810351 29.4 0.420351 28.35 0.500351 27.13C0.550351 26.4 0.770351 25.7 1.02035 25.02C1.75035 23.1 2.97035 21.58 4.68035 20.43C4.98035 20.23 5.29035 20.04 5.61035 19.88C5.76035 19.8 5.74035 19.75 5.65035 19.64C4.99035 18.9 4.46035 18.07 4.09035 17.15C2.73035 13.85 3.59035 10.04 6.24035 7.61004C7.74035 6.24004 9.52035 5.49004 11.5504 5.36004C11.7104 5.35004 11.8704 5.34004 12.0304 5.32004C13.1904 5.21004 13.8104 4.09004 13.5804 3.23004C13.4004 2.56004 12.7004 2.16004 12.0304 2.34004C11.7204 2.42004 11.5104 2.59004 11.4804 2.94004C11.4704 3.06004 11.4504 3.17004 11.3904 3.28004C11.2404 3.56004 10.9104 3.73004 10.6104 3.66004C10.2704 3.58004 10.0304 3.31004 10.0304 2.97004C10.0304 2.11004 10.4504 1.51004 11.1804 1.10004C12.0804 0.590039 13.3604 0.790039 14.1904 1.54004C15.1904 2.45004 15.3904 3.92004 14.6704 5.17004C14.6004 5.29004 14.5304 5.42004 14.4304 5.53004C14.3504 5.62004 14.3704 5.68004 14.4804 5.72004C14.6904 5.79004 14.8904 5.86004 15.0904 5.94004C17.9604 7.12004 19.7704 9.23004 20.4004 12.26C20.9804 15.04 20.2304 17.52 18.3704 19.66C18.2704 19.78 18.2504 19.82 18.4104 19.9C20.4304 20.96 21.9404 22.52 22.8404 24.64C23.2204 25.53 23.5004 26.45 23.5304 27.42C23.5604 28.53 23.1504 29.46 22.3204 30.21C22.1904 30.33 22.1704 30.37 22.3404 30.48C23.2304 31.08 23.8004 31.92 23.9604 32.98C24.1203 33.97 23.8904 34.91 23.2904 35.73C22.7304 36.5 22.1504 37.24 21.5404 37.97C20.8404 38.8 19.9304 39.19 18.8704 39.16C17.4904 39.12 16.2804 38.14 15.8604 36.82C15.6304 36.08 15.6704 35.35 15.9404 34.62C16.2504 33.77 16.6003 32.93 16.9704 32.1C17.2803 31.41 17.7604 30.87 18.4004 30.46C18.5303 30.38 18.5704 30.29 18.5604 30.14C18.5504 29.68 18.5504 29.22 18.5504 28.76C18.5403 28.38 18.4704 28.3 18.0904 28.27C17.8604 28.25 17.6304 28.26 17.4004 28.26C15.5904 28.24 13.8004 28.24 12.0004 28.23ZM12.0204 21.03C15.9604 21.07 19.1004 17.77 19.1004 13.94C19.1004 10.34 16.2003 6.88004 12.0604 6.84004C7.99035 6.80004 4.92035 10.14 4.90035 13.92C4.88035 17.56 7.82035 21.05 12.0204 21.03ZM12.0004 26.77C13.7504 26.77 15.4904 26.77 17.2404 26.77C17.4104 26.77 17.4604 26.73 17.4404 26.56C17.4204 26.36 17.4303 26.15 17.4604 25.94C17.5103 25.55 17.8004 25.29 18.1804 25.29C18.5704 25.29 18.8603 25.56 18.8904 25.96C18.9104 26.22 18.9104 26.48 18.9004 26.74C18.8904 26.88 18.9503 26.94 19.0504 27C19.5504 27.3 19.8804 27.73 19.9904 28.31C20.0604 28.66 20.0304 29.02 20.0304 29.37C20.0304 29.68 20.0204 29.68 20.3204 29.62C21.3504 29.42 22.1404 28.37 22.0404 27.33C21.9204 26.15 21.5303 25.06 20.9004 24.06C19.9904 22.61 18.7204 21.58 17.1504 20.92C17.0403 20.87 16.9604 20.91 16.8804 20.97C16.2404 21.4 15.5704 21.76 14.8404 22.01C13.6504 22.42 12.4204 22.62 11.1604 22.47C9.69035 22.3 8.34035 21.81 7.12035 20.96C7.02035 20.89 6.94035 20.87 6.83035 20.93C6.62035 21.04 6.40035 21.12 6.19035 21.23C4.59035 22.06 3.39035 23.3 2.63035 24.94C2.24035 25.79 1.95035 26.67 1.97035 27.62C1.99035 28.6 2.84035 29.53 3.82035 29.65C3.94035 29.66 3.97035 29.63 3.97035 29.51C3.96035 29.23 3.96035 28.95 3.97035 28.67C3.99035 27.92 4.29035 27.33 4.97035 26.97C5.07035 26.91 5.11035 26.85 5.11035 26.73C5.11035 26.46 5.10035 26.19 5.13035 25.93C5.16035 25.55 5.46035 25.28 5.84035 25.27C6.22035 25.26 6.50035 25.49 6.56035 25.88C6.60035 26.1 6.59035 26.32 6.57035 26.53C6.56035 26.7 6.62035 26.74 6.78035 26.74C8.52035 26.77 10.2604 26.77 12.0004 26.77ZM22.5204 33.53C22.5304 33.37 22.5004 33.2 22.4604 33.03C22.2404 32.14 21.5104 31.48 20.6404 31.38C19.6304 31.27 18.7604 31.68 18.3504 32.57C17.9404 33.46 17.5804 34.37 17.2604 35.29C17.0304 35.94 17.1804 36.57 17.6704 37.07C18.4604 37.89 19.6704 37.86 20.4104 36.99C20.9904 36.31 21.5304 35.6 22.0804 34.9C22.3704 34.51 22.5204 34.05 22.5204 33.53ZM3.69035 31.36C3.49035 31.36 3.29035 31.37 3.10035 31.42C1.64035 31.82 1.00035 33.58 1.92035 34.83C2.47035 35.58 3.05035 36.31 3.64035 37.01C4.10035 37.56 4.72035 37.75 5.43035 37.59C6.50035 37.35 7.10035 36.27 6.74035 35.22C6.53035 34.61 6.27035 34.02 6.03035 33.42C5.91035 33.12 5.81035 32.81 5.65035 32.53C5.22035 31.76 4.57035 31.37 3.69035 31.36Z" fill="#BFBFBF"/>
<path id="Vector_2" d="M12.0006 39.1601C11.3606 39.1401 10.7106 39.2201 10.0806 39.0801C9.26062 38.9001 8.72062 38.3801 8.44062 37.6001C8.32062 37.2601 8.50062 36.9101 8.83062 36.7501C9.16062 36.6001 9.51062 36.6901 9.72062 36.9801C9.80062 37.1001 9.87062 37.2201 9.96062 37.3401C10.1206 37.5501 10.3406 37.6601 10.6006 37.6601C11.5206 37.6601 12.4506 37.6601 13.3706 37.6601C13.7106 37.6601 13.9706 37.5201 14.1406 37.2201C14.1906 37.1401 14.2406 37.0601 14.2906 36.9801C14.5006 36.6901 14.8606 36.6001 15.1706 36.7401C15.4906 36.8901 15.6506 37.2501 15.5606 37.6001C15.3506 38.3701 14.5106 39.0401 13.7006 39.1201C13.1406 39.1701 12.5706 39.1401 12.0006 39.1601Z" fill="#BFBFBF"/>
</g>
</svg>
