<svg width="56" height="56" viewBox="0 0 56 56" fill="none" xmlns="http://www.w3.org/2000/svg">
<rect width="56" height="56" rx="28" fill="#7666EA"/>
<path fill-rule="evenodd" clip-rule="evenodd" d="M35.5 18.14C35.33 17.37 34.91 16.68 34.31 16.19L32.18 15.43H31.94C31.47 14.72 30.76 14.22 29.94 14.02L25.37 13.76C24.61 13.82 23.9 14.15 23.34 14.68C23.08 14.62 22.81 14.58 22.54 14.58C21.88 14.58 21.24 14.78 20.7 15.14C20.15 15.5 19.72 16.02 19.45 16.63L17.7 17.88C17.27 18.48 17.04 19.2 17.04 19.94C17.04 20.25 17.08 20.56 17.16 20.86C16.7 21.46 16.46 22.2 16.46 22.96C16.46 23.84 16.79 24.69 17.38 25.33C17.43 25.96 17.64 26.57 18.01 27.08C18.37 27.6 18.86 28 19.43 28.25C20.09 28.67 20.64 29.24 21.06 29.9C21.47 30.57 21.74 31.32 21.83 32.11H26.31V28.44C26.31 27.79 26.49 27.15 26.82 26.6C27.16 26.05 27.64 25.6 28.21 25.31C28.53 25.18 28.61 25.02 28.71 24.81C28.77 24.67 28.85 24.52 29.01 24.35C29.15 24.45 29.25 24.53 29.35 24.6C29.64 24.83 29.79 24.95 30.3 24.95C30.98 24.95 31.64 24.74 32.21 24.35C32.78 24.74 33.45 24.95 34.14 24.94L36.32 24.13C36.93 23.61 37.36 22.9 37.52 22.1C37.68 21.3 37.56 20.48 37.2 19.75C36.83 19.04 36.23 18.47 35.5 18.14ZM36.37 21.81C36.29 22.22 36.08 22.62 35.75 22.95L33.96 23.62C33.58 23.6 33.22 23.48 32.91 23.29L32.2 22.81C32 22.97 31.52 23.31 31.25 23.44C30.91 23.6 30.16 23.64 30.16 23.64C30.16 23.64 29.6 23.17 28.87 22.7C28.76 22.81 28.48 23.12 28.21 23.41C27.94 23.7 27.77 24.02 27.73 24.14C27.49 24.26 26.91 24.62 26.52 25.03C26.04 25.55 25.15 26.65 25.15 28.45V30.82H22.77C22.54 30 21.86 28.4 20.27 27.3C20.19 27.24 20.1 27.18 20.02 27.13L19.95 27.08L19.87 27.05C19.48 26.88 19.17 26.61 18.94 26.29C18.72 25.97 18.59 25.61 18.56 25.25L18.52 24.75L18.2 24.4C17.82 23.99 17.64 23.49 17.64 22.99V22.98V22.97C17.64 22.54 17.77 22.11 18.05 21.74L18.47 21.18L18.27 20.48C18.22 20.32 18.2 20.15 18.21 19.99V19.98V19.97C18.21 19.6 18.31 19.24 18.51 18.9L20.34 17.58L20.48 17.25C20.64 16.89 20.91 16.56 21.27 16.31C21.63 16.07 22.07 15.93 22.52 15.93C22.71 15.93 22.9 15.95 23.08 16L23.64 16.13L24.08 15.71C24.42 15.38 24.88 15.16 25.38 15.11L29.76 15.36C30.28 15.51 30.71 15.84 30.99 16.26L31.34 16.78H31.98L33.74 17.41C34.06 17.71 34.26 18.09 34.35 18.49L34.49 19.16L35.06 19.41C35.56 19.63 35.94 20.01 36.17 20.45C36.4 20.86 36.47 21.34 36.37 21.81Z" fill="white"/>
<path d="M25.63 33.48H21.96V35.32H25.63V33.48Z" fill="white"/>
<path d="M25.63 37.15H21.96V38.99H25.63V37.15Z" fill="white"/>
<path d="M25.6397 40.82H21.9697V42.66H25.6397V40.82Z" fill="white"/>
<path fill-rule="evenodd" clip-rule="evenodd" d="M42.0998 28.33C41.3098 26.64 41.3298 24.64 41.3498 22.77C41.3598 22.25 41.3598 21.74 41.3498 21.26C41.2998 19.09 40.6098 16.98 39.3598 15.18C37.9998 13.47 36.2098 12.13 34.1698 11.29C31.5798 10.11 28.7598 9.50999 25.9098 9.50999C22.1798 9.50999 18.5998 10.97 15.9598 13.57C13.3198 16.16 11.8398 19.68 11.8398 23.34C11.8398 27.75 14.3698 32.99 17.6498 35.51L17.6598 43.31C18.5898 45.26 22.0998 46.64 24.1498 46.47C28.4998 46.47 29.2698 43.95 29.2698 43.95V40.8C29.2698 40.8 30.0098 40.99 31.1098 41.12C34.3598 41.51 40.7898 41.41 40.7898 34.43C40.7898 34.43 43.8198 33.95 44.1298 32.22C44.4298 30.49 42.0998 28.33 42.0998 28.33ZM42.2598 31.92C42.1298 32.03 41.9198 32.16 41.6298 32.29C41.3498 32.41 41.0498 32.5 40.8198 32.55C40.7098 32.58 40.6198 32.6 40.5598 32.61L40.5198 32.62H40.4998H40.4898L38.9498 32.86V34.43C38.9498 36.36 38.3798 37.41 37.7198 38.03C37.0198 38.7 35.9898 39.11 34.7598 39.29C33.5398 39.47 32.2798 39.41 31.2898 39.28C30.7998 39.22 30.3998 39.15 30.1198 39.09C29.9798 39.06 29.8798 39.04 29.8098 39.02C29.7798 39.01 29.7498 39.01 29.7398 39H29.7298L27.4398 38.41V43.49C27.3798 43.57 27.2898 43.68 27.1598 43.79C26.7998 44.1 25.9598 44.61 24.1598 44.61H24.0898L23.9998 44.64C23.3798 44.69 22.3098 44.5 21.2498 44.01C20.3798 43.62 19.7998 43.16 19.4998 42.79L19.4898 34.6L18.7698 34.05C17.4098 33.01 16.1198 31.32 15.1698 29.34C14.2198 27.36 13.6698 25.22 13.6698 23.34C13.6698 20.17 14.9498 17.13 17.2398 14.88C19.5298 12.63 22.6498 11.35 25.9098 11.35C28.4998 11.34 31.0598 11.9 33.3998 12.96L33.4298 12.97L33.4598 12.98C35.1898 13.69 36.7098 14.83 37.8698 16.27C38.8898 17.76 39.4498 19.51 39.4998 21.3C39.5098 21.75 39.5098 22.23 39.4998 22.75V22.99C39.4898 23.59 39.4898 24.25 39.5198 24.91C39.5798 26.23 39.7698 27.71 40.4298 29.11L40.5798 29.43L40.8398 29.67L40.8498 29.68L40.8698 29.7L40.8998 29.73C40.9498 29.78 41.0198 29.85 41.1098 29.94C41.2898 30.13 41.5198 30.39 41.7298 30.69C41.9498 31 42.1198 31.29 42.2198 31.55C42.2798 31.71 42.2998 31.81 42.3098 31.86C42.2998 31.88 42.2798 31.9 42.2598 31.92Z" fill="white"/>
</svg>
