<svg width="43" height="62" viewBox="0 0 43 62" fill="none" xmlns="http://www.w3.org/2000/svg">
<g clip-path="url(#clip0_386_366)">
<mask id="path-1-outside-1_386_366" maskUnits="userSpaceOnUse" x="-1.00098" y="-0.996221" width="45" height="64" fill="black">
<rect fill="white" x="-1.00098" y="-0.996221" width="45" height="64"/>
<path d="M33.7274 19.5631C35.1307 20.1788 35.7262 21.2337 35.6595 22.6888C35.6424 23.0806 35.6595 23.4724 35.6561 23.8659C35.6321 25.6873 34.4393 26.9034 32.6047 26.8949C32.016 26.8915 31.7661 27.0238 31.6138 27.6309C31.0063 30.0426 29.6286 31.9642 27.5921 33.4058C27.2224 33.6669 27.0924 33.9264 27.1078 34.364C27.142 35.312 27.1488 36.2635 27.1043 37.2115C27.0838 37.6559 27.2515 37.8051 27.6486 37.9255C31.1843 38.9889 34.7183 40.0625 38.2454 41.1547C41.2283 42.079 42.9876 44.4432 42.9945 47.5265C43.003 52.0056 42.9979 56.4847 42.9945 60.9638C42.9945 61.805 42.7908 62 41.9146 62C28.2938 62 14.6712 62 1.05038 62C0.187845 62 0.00130527 61.8067 0.00130527 60.9332C0.00130527 56.4745 -0.00382885 52.0158 0.00130527 47.5587C0.00643939 44.4347 1.75033 42.0841 4.77775 41.1479C8.26553 40.0693 11.7567 39.0042 15.2565 37.9612C15.7323 37.8187 15.9222 37.6423 15.8931 37.1233C15.8401 36.177 15.8623 35.2255 15.8863 34.2758C15.8948 33.9145 15.8007 33.689 15.4824 33.4668C13.3415 31.971 11.9399 29.9527 11.3152 27.4308C11.2057 26.9882 11.038 26.8644 10.6153 26.9051C10.1789 26.9475 9.74245 26.8847 9.32316 26.7456C8.17141 26.364 7.40129 25.3617 7.35337 24.1508C7.32941 23.5538 7.33455 22.9534 7.34481 22.3547C7.37562 20.613 8.58214 19.3969 10.3466 19.4088C10.9045 19.4122 11.0979 19.268 11.002 18.7355C10.9798 18.6151 10.9781 18.4845 11.002 18.3658C11.1064 17.8434 10.8754 17.6212 10.362 17.5738C10.0762 17.5466 9.79721 17.4415 9.51997 17.3533C7.43894 16.6969 6.16225 15.3639 5.95347 13.1489C5.79602 11.4597 5.77035 9.76207 5.98598 8.08474C6.26494 5.91728 7.75212 4.64529 9.94953 4.52488C10.1326 4.5147 10.2969 4.53506 10.4321 4.33832C11.6849 2.52362 13.5571 1.59592 15.5817 0.954838C19.2406 -0.205213 22.9525 -0.334108 26.6491 0.734361C31.4204 2.11319 34.3623 5.31181 35.7365 9.99442C36.1678 11.4682 36.4639 12.9607 36.3218 14.5057C36.137 16.5223 35.3104 18.2267 33.7257 19.5665L33.7274 19.5631ZM15.8349 39.2722C12.0922 40.4169 8.39218 41.5058 4.72299 42.6912C2.73779 43.3323 1.48849 45.2115 1.47822 47.3722C1.45769 51.6036 1.47822 55.8351 1.46111 60.0666C1.46111 60.4855 1.59288 60.5754 1.98992 60.572C4.38585 60.555 6.78006 60.5465 9.17598 60.5771C9.68426 60.5839 9.82802 60.4278 9.77325 59.9597C9.73903 59.6545 9.76641 59.3407 9.76641 59.032C9.76641 57.0291 9.76812 55.0278 9.76641 53.0249C9.76641 52.6501 9.84171 52.3312 10.2216 52.1548C10.504 52.0242 10.7522 52.0904 10.9746 52.2718C11.2467 52.494 11.2433 52.8078 11.2416 53.1232C11.2382 55.4349 11.2485 57.7465 11.2313 60.0581C11.2279 60.4499 11.3186 60.5754 11.7396 60.5754C18.2377 60.5618 24.7375 60.5601 31.2356 60.5754C31.696 60.5754 31.773 60.4295 31.7678 60.0191C31.7456 58.3893 31.7576 56.7577 31.7593 55.1279C31.7593 54.3647 31.7456 53.5998 31.7661 52.8366C31.7798 52.3804 32.0485 52.0904 32.5157 52.0989C32.9521 52.1073 33.1831 52.3957 33.2259 52.818C33.243 52.9808 33.2328 53.1487 33.2328 53.3132C33.2328 55.5638 33.243 57.8126 33.2242 60.0632C33.2208 60.4668 33.3286 60.5788 33.7393 60.5754C36.1558 60.555 38.5723 60.555 40.987 60.5754C41.4251 60.5788 41.5398 60.4617 41.5381 60.0293C41.521 55.8589 41.5381 51.6901 41.5244 47.5197C41.5158 45.047 40.2083 43.2865 37.8261 42.5352C35.9265 41.9348 34.0166 41.3718 32.1118 40.7901C30.4672 40.288 28.8243 39.7826 27.1728 39.2772C26.6406 43.044 24.5544 45.1063 21.3849 45.0436C18.2993 44.9825 16.2251 42.849 15.8349 39.2738V39.2722ZM31.9989 18.9865C33.3492 18.1606 34.2031 17.0955 34.6139 15.7014C35.1735 13.8002 34.8244 11.9482 34.2459 10.1114C33.1489 6.6245 31.1021 3.96521 27.5904 2.5762C25.7934 1.86558 23.9195 1.5179 21.989 1.48738C19.1396 1.43989 16.398 1.90628 13.8566 3.25289C12.9667 3.72438 12.1127 4.28066 11.6335 5.18122C11.293 5.82061 10.9045 6.04787 10.1652 6.00378C8.59241 5.9071 7.46461 6.90773 7.39102 8.46804C7.3277 9.78581 7.25925 11.107 7.34653 12.4282C7.49884 14.7449 8.63861 15.9354 10.9969 16.2051C10.9969 14.6753 10.9883 13.1489 11.0003 11.6226C11.0072 10.8441 11.5325 10.5524 12.2085 10.9357C12.5696 11.1409 12.9119 11.3766 13.2781 11.57C16.1498 13.0896 19.2577 13.907 22.422 14.5329C25.2218 15.0858 28.0524 15.4063 30.9036 15.5538C31.8158 15.6013 31.9937 15.7879 31.9955 16.6766C31.9955 17.4109 31.9955 18.1436 31.9955 18.9882L31.9989 18.9865ZM12.5577 12.8623C12.4208 13.0268 12.4652 13.1744 12.4652 13.3101C12.4618 17.1888 12.4618 21.0675 12.4652 24.9462C12.4652 25.5025 12.5097 26.0554 12.609 26.6083C13.3911 30.9856 17.4933 34.1808 21.9908 33.9027C26.6286 33.6144 30.3406 30.0036 30.498 25.5143C30.5921 22.8143 30.522 20.1093 30.5408 17.4059C30.5425 17.0819 30.4347 16.9853 30.1249 16.9615C29.0262 16.875 27.9275 16.775 26.8322 16.6562C23.1648 16.2645 19.5657 15.5606 16.0728 14.3582C14.8612 13.941 13.6957 13.4186 12.5577 12.8606V12.8623ZM17.3529 34.5387C17.3529 36.2041 17.3358 37.7899 17.3564 39.3756C17.3889 41.7127 19.2474 43.5901 21.5201 43.6139C23.8065 43.6376 25.6206 41.7839 25.6428 39.3824C25.6565 37.9171 25.648 36.4517 25.6428 34.9864C25.6428 34.8592 25.7113 34.6998 25.5247 34.5811C22.831 35.6427 20.1134 35.6292 17.3529 34.537V34.5387ZM10.9986 23.1518C10.9986 22.5142 11.0037 21.8782 10.9952 21.2405C10.9935 21.0794 11.079 20.8928 10.7693 20.8419C9.63634 20.6571 8.80633 21.3151 8.78066 22.465C8.7721 22.8754 8.77724 23.2875 8.78066 23.698C8.78921 24.9411 9.39504 25.4957 10.6392 25.455C10.9541 25.4448 11.014 25.3414 11.0054 25.0632C10.9883 24.4272 11.0003 23.7895 11.0003 23.1518H10.9986ZM31.9989 23.1586C31.9989 23.7963 31.9937 24.4323 32.004 25.07C32.0057 25.2091 31.9065 25.416 32.182 25.4448C33.2482 25.5534 34.1124 25.1819 34.21 23.9998C34.2493 23.53 34.222 23.0552 34.2185 22.582C34.2083 21.3626 33.6332 20.8267 32.4096 20.8436C32.0913 20.847 31.9766 20.9165 31.992 21.249C32.0194 21.8849 32.0006 22.5226 32.0006 23.1603L31.9989 23.1586Z"/>
</mask>
<path d="M33.7274 19.5631C35.1307 20.1788 35.7262 21.2337 35.6595 22.6888C35.6424 23.0806 35.6595 23.4724 35.6561 23.8659C35.6321 25.6873 34.4393 26.9034 32.6047 26.8949C32.016 26.8915 31.7661 27.0238 31.6138 27.6309C31.0063 30.0426 29.6286 31.9642 27.5921 33.4058C27.2224 33.6669 27.0924 33.9264 27.1078 34.364C27.142 35.312 27.1488 36.2635 27.1043 37.2115C27.0838 37.6559 27.2515 37.8051 27.6486 37.9255C31.1843 38.9889 34.7183 40.0625 38.2454 41.1547C41.2283 42.079 42.9876 44.4432 42.9945 47.5265C43.003 52.0056 42.9979 56.4847 42.9945 60.9638C42.9945 61.805 42.7908 62 41.9146 62C28.2938 62 14.6712 62 1.05038 62C0.187845 62 0.00130527 61.8067 0.00130527 60.9332C0.00130527 56.4745 -0.00382885 52.0158 0.00130527 47.5587C0.00643939 44.4347 1.75033 42.0841 4.77775 41.1479C8.26553 40.0693 11.7567 39.0042 15.2565 37.9612C15.7323 37.8187 15.9222 37.6423 15.8931 37.1233C15.8401 36.177 15.8623 35.2255 15.8863 34.2758C15.8948 33.9145 15.8007 33.689 15.4824 33.4668C13.3415 31.971 11.9399 29.9527 11.3152 27.4308C11.2057 26.9882 11.038 26.8644 10.6153 26.9051C10.1789 26.9475 9.74245 26.8847 9.32316 26.7456C8.17141 26.364 7.40129 25.3617 7.35337 24.1508C7.32941 23.5538 7.33455 22.9534 7.34481 22.3547C7.37562 20.613 8.58214 19.3969 10.3466 19.4088C10.9045 19.4122 11.0979 19.268 11.002 18.7355C10.9798 18.6151 10.9781 18.4845 11.002 18.3658C11.1064 17.8434 10.8754 17.6212 10.362 17.5738C10.0762 17.5466 9.79721 17.4415 9.51997 17.3533C7.43894 16.6969 6.16225 15.3639 5.95347 13.1489C5.79602 11.4597 5.77035 9.76207 5.98598 8.08474C6.26494 5.91728 7.75212 4.64529 9.94953 4.52488C10.1326 4.5147 10.2969 4.53506 10.4321 4.33832C11.6849 2.52362 13.5571 1.59592 15.5817 0.954838C19.2406 -0.205213 22.9525 -0.334108 26.6491 0.734361C31.4204 2.11319 34.3623 5.31181 35.7365 9.99442C36.1678 11.4682 36.4639 12.9607 36.3218 14.5057C36.137 16.5223 35.3104 18.2267 33.7257 19.5665L33.7274 19.5631ZM15.8349 39.2722C12.0922 40.4169 8.39218 41.5058 4.72299 42.6912C2.73779 43.3323 1.48849 45.2115 1.47822 47.3722C1.45769 51.6036 1.47822 55.8351 1.46111 60.0666C1.46111 60.4855 1.59288 60.5754 1.98992 60.572C4.38585 60.555 6.78006 60.5465 9.17598 60.5771C9.68426 60.5839 9.82802 60.4278 9.77325 59.9597C9.73903 59.6545 9.76641 59.3407 9.76641 59.032C9.76641 57.0291 9.76812 55.0278 9.76641 53.0249C9.76641 52.6501 9.84171 52.3312 10.2216 52.1548C10.504 52.0242 10.7522 52.0904 10.9746 52.2718C11.2467 52.494 11.2433 52.8078 11.2416 53.1232C11.2382 55.4349 11.2485 57.7465 11.2313 60.0581C11.2279 60.4499 11.3186 60.5754 11.7396 60.5754C18.2377 60.5618 24.7375 60.5601 31.2356 60.5754C31.696 60.5754 31.773 60.4295 31.7678 60.0191C31.7456 58.3893 31.7576 56.7577 31.7593 55.1279C31.7593 54.3647 31.7456 53.5998 31.7661 52.8366C31.7798 52.3804 32.0485 52.0904 32.5157 52.0989C32.9521 52.1073 33.1831 52.3957 33.2259 52.818C33.243 52.9808 33.2328 53.1487 33.2328 53.3132C33.2328 55.5638 33.243 57.8126 33.2242 60.0632C33.2208 60.4668 33.3286 60.5788 33.7393 60.5754C36.1558 60.555 38.5723 60.555 40.987 60.5754C41.4251 60.5788 41.5398 60.4617 41.5381 60.0293C41.521 55.8589 41.5381 51.6901 41.5244 47.5197C41.5158 45.047 40.2083 43.2865 37.8261 42.5352C35.9265 41.9348 34.0166 41.3718 32.1118 40.7901C30.4672 40.288 28.8243 39.7826 27.1728 39.2772C26.6406 43.044 24.5544 45.1063 21.3849 45.0436C18.2993 44.9825 16.2251 42.849 15.8349 39.2738V39.2722ZM31.9989 18.9865C33.3492 18.1606 34.2031 17.0955 34.6139 15.7014C35.1735 13.8002 34.8244 11.9482 34.2459 10.1114C33.1489 6.6245 31.1021 3.96521 27.5904 2.5762C25.7934 1.86558 23.9195 1.5179 21.989 1.48738C19.1396 1.43989 16.398 1.90628 13.8566 3.25289C12.9667 3.72438 12.1127 4.28066 11.6335 5.18122C11.293 5.82061 10.9045 6.04787 10.1652 6.00378C8.59241 5.9071 7.46461 6.90773 7.39102 8.46804C7.3277 9.78581 7.25925 11.107 7.34653 12.4282C7.49884 14.7449 8.63861 15.9354 10.9969 16.2051C10.9969 14.6753 10.9883 13.1489 11.0003 11.6226C11.0072 10.8441 11.5325 10.5524 12.2085 10.9357C12.5696 11.1409 12.9119 11.3766 13.2781 11.57C16.1498 13.0896 19.2577 13.907 22.422 14.5329C25.2218 15.0858 28.0524 15.4063 30.9036 15.5538C31.8158 15.6013 31.9937 15.7879 31.9955 16.6766C31.9955 17.4109 31.9955 18.1436 31.9955 18.9882L31.9989 18.9865ZM12.5577 12.8623C12.4208 13.0268 12.4652 13.1744 12.4652 13.3101C12.4618 17.1888 12.4618 21.0675 12.4652 24.9462C12.4652 25.5025 12.5097 26.0554 12.609 26.6083C13.3911 30.9856 17.4933 34.1808 21.9908 33.9027C26.6286 33.6144 30.3406 30.0036 30.498 25.5143C30.5921 22.8143 30.522 20.1093 30.5408 17.4059C30.5425 17.0819 30.4347 16.9853 30.1249 16.9615C29.0262 16.875 27.9275 16.775 26.8322 16.6562C23.1648 16.2645 19.5657 15.5606 16.0728 14.3582C14.8612 13.941 13.6957 13.4186 12.5577 12.8606V12.8623ZM17.3529 34.5387C17.3529 36.2041 17.3358 37.7899 17.3564 39.3756C17.3889 41.7127 19.2474 43.5901 21.5201 43.6139C23.8065 43.6376 25.6206 41.7839 25.6428 39.3824C25.6565 37.9171 25.648 36.4517 25.6428 34.9864C25.6428 34.8592 25.7113 34.6998 25.5247 34.5811C22.831 35.6427 20.1134 35.6292 17.3529 34.537V34.5387ZM10.9986 23.1518C10.9986 22.5142 11.0037 21.8782 10.9952 21.2405C10.9935 21.0794 11.079 20.8928 10.7693 20.8419C9.63634 20.6571 8.80633 21.3151 8.78066 22.465C8.7721 22.8754 8.77724 23.2875 8.78066 23.698C8.78921 24.9411 9.39504 25.4957 10.6392 25.455C10.9541 25.4448 11.014 25.3414 11.0054 25.0632C10.9883 24.4272 11.0003 23.7895 11.0003 23.1518H10.9986ZM31.9989 23.1586C31.9989 23.7963 31.9937 24.4323 32.004 25.07C32.0057 25.2091 31.9065 25.416 32.182 25.4448C33.2482 25.5534 34.1124 25.1819 34.21 23.9998C34.2493 23.53 34.222 23.0552 34.2185 22.582C34.2083 21.3626 33.6332 20.8267 32.4096 20.8436C32.0913 20.847 31.9766 20.9165 31.992 21.249C32.0194 21.8849 32.0006 22.5226 32.0006 23.1603L31.9989 23.1586Z" fill="white"/>
<path d="M33.7274 19.5631C35.1307 20.1788 35.7262 21.2337 35.6595 22.6888C35.6424 23.0806 35.6595 23.4724 35.6561 23.8659C35.6321 25.6873 34.4393 26.9034 32.6047 26.8949C32.016 26.8915 31.7661 27.0238 31.6138 27.6309C31.0063 30.0426 29.6286 31.9642 27.5921 33.4058C27.2224 33.6669 27.0924 33.9264 27.1078 34.364C27.142 35.312 27.1488 36.2635 27.1043 37.2115C27.0838 37.6559 27.2515 37.8051 27.6486 37.9255C31.1843 38.9889 34.7183 40.0625 38.2454 41.1547C41.2283 42.079 42.9876 44.4432 42.9945 47.5265C43.003 52.0056 42.9979 56.4847 42.9945 60.9638C42.9945 61.805 42.7908 62 41.9146 62C28.2938 62 14.6712 62 1.05038 62C0.187845 62 0.00130527 61.8067 0.00130527 60.9332C0.00130527 56.4745 -0.00382885 52.0158 0.00130527 47.5587C0.00643939 44.4347 1.75033 42.0841 4.77775 41.1479C8.26553 40.0693 11.7567 39.0042 15.2565 37.9612C15.7323 37.8187 15.9222 37.6423 15.8931 37.1233C15.8401 36.177 15.8623 35.2255 15.8863 34.2758C15.8948 33.9145 15.8007 33.689 15.4824 33.4668C13.3415 31.971 11.9399 29.9527 11.3152 27.4308C11.2057 26.9882 11.038 26.8644 10.6153 26.9051C10.1789 26.9475 9.74245 26.8847 9.32316 26.7456C8.17141 26.364 7.40129 25.3617 7.35337 24.1508C7.32941 23.5538 7.33455 22.9534 7.34481 22.3547C7.37562 20.613 8.58214 19.3969 10.3466 19.4088C10.9045 19.4122 11.0979 19.268 11.002 18.7355C10.9798 18.6151 10.9781 18.4845 11.002 18.3658C11.1064 17.8434 10.8754 17.6212 10.362 17.5738C10.0762 17.5466 9.79721 17.4415 9.51997 17.3533C7.43894 16.6969 6.16225 15.3639 5.95347 13.1489C5.79602 11.4597 5.77035 9.76207 5.98598 8.08474C6.26494 5.91728 7.75212 4.64529 9.94953 4.52488C10.1326 4.5147 10.2969 4.53506 10.4321 4.33832C11.6849 2.52362 13.5571 1.59592 15.5817 0.954838C19.2406 -0.205213 22.9525 -0.334108 26.6491 0.734361C31.4204 2.11319 34.3623 5.31181 35.7365 9.99442C36.1678 11.4682 36.4639 12.9607 36.3218 14.5057C36.137 16.5223 35.3104 18.2267 33.7257 19.5665L33.7274 19.5631ZM15.8349 39.2722C12.0922 40.4169 8.39218 41.5058 4.72299 42.6912C2.73779 43.3323 1.48849 45.2115 1.47822 47.3722C1.45769 51.6036 1.47822 55.8351 1.46111 60.0666C1.46111 60.4855 1.59288 60.5754 1.98992 60.572C4.38585 60.555 6.78006 60.5465 9.17598 60.5771C9.68426 60.5839 9.82802 60.4278 9.77325 59.9597C9.73903 59.6545 9.76641 59.3407 9.76641 59.032C9.76641 57.0291 9.76812 55.0278 9.76641 53.0249C9.76641 52.6501 9.84171 52.3312 10.2216 52.1548C10.504 52.0242 10.7522 52.0904 10.9746 52.2718C11.2467 52.494 11.2433 52.8078 11.2416 53.1232C11.2382 55.4349 11.2485 57.7465 11.2313 60.0581C11.2279 60.4499 11.3186 60.5754 11.7396 60.5754C18.2377 60.5618 24.7375 60.5601 31.2356 60.5754C31.696 60.5754 31.773 60.4295 31.7678 60.0191C31.7456 58.3893 31.7576 56.7577 31.7593 55.1279C31.7593 54.3647 31.7456 53.5998 31.7661 52.8366C31.7798 52.3804 32.0485 52.0904 32.5157 52.0989C32.9521 52.1073 33.1831 52.3957 33.2259 52.818C33.243 52.9808 33.2328 53.1487 33.2328 53.3132C33.2328 55.5638 33.243 57.8126 33.2242 60.0632C33.2208 60.4668 33.3286 60.5788 33.7393 60.5754C36.1558 60.555 38.5723 60.555 40.987 60.5754C41.4251 60.5788 41.5398 60.4617 41.5381 60.0293C41.521 55.8589 41.5381 51.6901 41.5244 47.5197C41.5158 45.047 40.2083 43.2865 37.8261 42.5352C35.9265 41.9348 34.0166 41.3718 32.1118 40.7901C30.4672 40.288 28.8243 39.7826 27.1728 39.2772C26.6406 43.044 24.5544 45.1063 21.3849 45.0436C18.2993 44.9825 16.2251 42.849 15.8349 39.2738V39.2722ZM31.9989 18.9865C33.3492 18.1606 34.2031 17.0955 34.6139 15.7014C35.1735 13.8002 34.8244 11.9482 34.2459 10.1114C33.1489 6.6245 31.1021 3.96521 27.5904 2.5762C25.7934 1.86558 23.9195 1.5179 21.989 1.48738C19.1396 1.43989 16.398 1.90628 13.8566 3.25289C12.9667 3.72438 12.1127 4.28066 11.6335 5.18122C11.293 5.82061 10.9045 6.04787 10.1652 6.00378C8.59241 5.9071 7.46461 6.90773 7.39102 8.46804C7.3277 9.78581 7.25925 11.107 7.34653 12.4282C7.49884 14.7449 8.63861 15.9354 10.9969 16.2051C10.9969 14.6753 10.9883 13.1489 11.0003 11.6226C11.0072 10.8441 11.5325 10.5524 12.2085 10.9357C12.5696 11.1409 12.9119 11.3766 13.2781 11.57C16.1498 13.0896 19.2577 13.907 22.422 14.5329C25.2218 15.0858 28.0524 15.4063 30.9036 15.5538C31.8158 15.6013 31.9937 15.7879 31.9955 16.6766C31.9955 17.4109 31.9955 18.1436 31.9955 18.9882L31.9989 18.9865ZM12.5577 12.8623C12.4208 13.0268 12.4652 13.1744 12.4652 13.3101C12.4618 17.1888 12.4618 21.0675 12.4652 24.9462C12.4652 25.5025 12.5097 26.0554 12.609 26.6083C13.3911 30.9856 17.4933 34.1808 21.9908 33.9027C26.6286 33.6144 30.3406 30.0036 30.498 25.5143C30.5921 22.8143 30.522 20.1093 30.5408 17.4059C30.5425 17.0819 30.4347 16.9853 30.1249 16.9615C29.0262 16.875 27.9275 16.775 26.8322 16.6562C23.1648 16.2645 19.5657 15.5606 16.0728 14.3582C14.8612 13.941 13.6957 13.4186 12.5577 12.8606V12.8623ZM17.3529 34.5387C17.3529 36.2041 17.3358 37.7899 17.3564 39.3756C17.3889 41.7127 19.2474 43.5901 21.5201 43.6139C23.8065 43.6376 25.6206 41.7839 25.6428 39.3824C25.6565 37.9171 25.648 36.4517 25.6428 34.9864C25.6428 34.8592 25.7113 34.6998 25.5247 34.5811C22.831 35.6427 20.1134 35.6292 17.3529 34.537V34.5387ZM10.9986 23.1518C10.9986 22.5142 11.0037 21.8782 10.9952 21.2405C10.9935 21.0794 11.079 20.8928 10.7693 20.8419C9.63634 20.6571 8.80633 21.3151 8.78066 22.465C8.7721 22.8754 8.77724 23.2875 8.78066 23.698C8.78921 24.9411 9.39504 25.4957 10.6392 25.455C10.9541 25.4448 11.014 25.3414 11.0054 25.0632C10.9883 24.4272 11.0003 23.7895 11.0003 23.1518H10.9986ZM31.9989 23.1586C31.9989 23.7963 31.9937 24.4323 32.004 25.07C32.0057 25.2091 31.9065 25.416 32.182 25.4448C33.2482 25.5534 34.1124 25.1819 34.21 23.9998C34.2493 23.53 34.222 23.0552 34.2185 22.582C34.2083 21.3626 33.6332 20.8267 32.4096 20.8436C32.0913 20.847 31.9766 20.9165 31.992 21.249C32.0194 21.8849 32.0006 22.5226 32.0006 23.1603L31.9989 23.1586Z" stroke="white" stroke-width="0.4" mask="url(#path-1-outside-1_386_366)"/>
<path d="M4.79317 31.7437C5.93637 31.7437 7.07956 31.7505 8.22276 31.7403C8.72762 31.7369 9.10754 31.8997 9.11952 32.4475C9.12979 33.0004 8.74131 33.1785 8.24501 33.1785C5.93808 33.1785 3.62943 33.1785 1.3225 33.1802C0.819355 33.1802 0.456543 33.0004 0.413759 32.4662C0.376109 32.0184 0.745765 31.7488 1.36528 31.7454C2.50848 31.7403 3.65168 31.7454 4.79488 31.7454L4.79317 31.7437Z" fill="white"/>
<path d="M38.2302 31.7437C39.3734 31.7437 40.5166 31.7539 41.6598 31.7386C42.1681 31.7318 42.5258 31.9014 42.5857 32.4306C42.6353 32.8766 42.2605 33.1751 41.6495 33.1768C39.3631 33.1836 37.075 33.1836 34.7886 33.1768C34.1657 33.1751 33.8286 32.8919 33.8731 32.4221C33.9261 31.8726 34.3026 31.7352 34.7989 31.7403C35.9421 31.7505 37.0853 31.7437 38.2285 31.7437H38.2302Z" fill="white"/>
<path d="M3.3868 38.9499C2.98463 38.933 2.72792 38.7718 2.63209 38.4377C2.53112 38.085 2.63893 37.7814 2.97265 37.5914C3.63838 37.2098 4.30752 36.835 4.97496 36.4568C5.96585 35.8938 6.95844 35.3307 7.94933 34.7693C8.37546 34.5285 8.76566 34.5573 9.02236 34.9966C9.2842 35.4443 9.08397 35.792 8.66982 36.0277C7.03032 36.9605 5.3874 37.8882 3.74448 38.8125C3.62126 38.8821 3.47751 38.916 3.3868 38.9499Z" fill="white"/>
<path d="M9.13348 29.6051C9.11466 30.1969 8.5345 30.4666 7.93552 30.1342C6.5784 29.3795 5.23155 28.6027 3.88128 27.8361C3.57494 27.6615 3.26005 27.502 2.96398 27.3121C2.59432 27.0746 2.49506 26.7236 2.70556 26.3488C2.91777 25.9706 3.28572 25.8569 3.66735 26.0706C5.36846 27.017 7.06101 27.9803 8.75356 28.9436C9.00342 29.0861 9.14889 29.3049 9.13177 29.6051H9.13348Z" fill="white"/>
<path d="M40.3849 26.6914C40.4038 27.0272 40.2052 27.2273 39.9417 27.3782C38.3039 28.3076 36.6644 29.2353 35.0232 30.1579C34.5953 30.3988 34.2 30.3428 33.9587 29.9002C33.7311 29.4829 33.9005 29.1404 34.2976 28.9148C35.9525 27.9718 37.6039 27.0238 39.2691 26.1012C39.8168 25.7976 40.3815 26.1215 40.3866 26.6897L40.3849 26.6914Z" fill="white"/>
<path d="M40.3867 38.1749C40.3679 38.7617 39.8391 39.1144 39.3633 38.8532C37.6194 37.8967 35.8892 36.913 34.1693 35.9158C33.8219 35.714 33.7517 35.3409 33.9588 34.9915C34.1761 34.6252 34.5201 34.4895 34.9171 34.7117C36.6183 35.6614 38.3125 36.6213 40.0085 37.5813C40.2618 37.7254 40.4021 37.9425 40.3867 38.1732V38.1749Z" fill="white"/>
</g>
<defs>
<clipPath id="clip0_386_366">
<rect width="43" height="62" fill="white"/>
</clipPath>
</defs>
</svg>
