<svg width="23" height="40" viewBox="0 0 23 40" fill="none" xmlns="http://www.w3.org/2000/svg">
<g id="Group">
<path id="Vector" d="M1.32019 15.2399C1.45019 15.7299 1.49019 16.2299 1.41019 16.7299C1.34019 17.1499 1.4902 17.4899 1.8402 17.7199C2.1902 17.9499 2.5402 17.9099 2.8802 17.6999C2.9702 17.6399 3.07019 17.5799 3.16019 17.5199C4.31019 16.7099 5.2002 15.6899 5.7702 14.3999C5.8502 14.2099 5.9102 14.2399 6.0202 14.3599C6.4402 14.8099 6.9402 15.1699 7.5202 15.3899C7.6502 15.4399 7.6202 15.5199 7.6002 15.6099C7.5102 16.0899 7.41019 16.5699 7.33019 17.0499C7.31019 17.1599 7.2502 17.2099 7.1702 17.2499C6.9602 17.3499 6.7602 17.4599 6.5902 17.6199C5.6302 18.4699 5.10019 19.5099 5.11019 20.8099C5.12019 22.6499 5.11019 24.4899 5.11019 26.3299C5.11019 26.5099 5.07019 26.6699 4.99019 26.8299C4.38019 28.0199 3.79019 29.2099 3.20019 30.4199C2.91019 31.0199 2.6802 31.6399 2.7502 32.3199C2.8802 33.7199 3.5602 34.7299 4.8902 35.2499C5.0802 35.3199 5.11019 35.4199 5.11019 35.5999C5.11019 36.7699 5.11019 37.9399 5.11019 39.1199H6.36019C6.36019 38.0999 6.36019 37.0699 6.36019 36.0499C6.36019 35.9099 6.4102 35.8999 6.5202 35.9499C6.7802 36.0699 7.04019 36.1699 7.31019 36.2799C7.89019 36.5199 8.47019 36.7599 9.05019 36.9799C9.32019 37.0899 9.64019 36.9399 9.7702 36.6799C9.9002 36.4199 9.84019 36.1199 9.60019 35.9299C9.5302 35.8799 9.4502 35.8299 9.3702 35.7899C8.9402 35.5999 8.50019 35.4099 8.07019 35.2299C7.12019 34.8299 6.1502 34.4399 5.2102 34.0199C4.31019 33.6199 3.83019 32.6199 4.04019 31.6699C4.12019 31.3099 4.32019 31.0099 4.48019 30.6799C5.07019 29.5099 5.6502 28.3399 6.2202 27.1699C6.3002 27.0099 6.3602 26.9999 6.5202 27.0699C7.3202 27.4699 8.13019 27.8699 8.93019 28.2599C9.18019 28.3799 9.18019 28.3799 9.06019 28.6199C8.60019 29.5399 8.1502 30.4499 7.7002 31.3699C7.3502 32.0899 7.59019 32.7699 8.32019 33.1099C8.41019 33.1499 8.50019 33.1899 8.59019 33.2299C9.9802 33.8099 11.3602 34.3799 12.7402 34.9799C13.1602 35.1599 13.5502 35.1699 13.9702 35.0199C14.6702 34.7799 15.3802 34.5599 16.0902 34.3299C16.1802 34.2999 16.3102 34.2399 16.3702 34.3599C16.4302 34.4699 16.3202 34.5499 16.2502 34.6199C16.1302 34.7399 15.9902 34.8599 15.8702 34.9799C15.3802 35.4499 15.5102 36.1399 16.1402 36.4099C16.2902 36.4799 16.4502 36.5299 16.5902 36.6199C17.1402 36.9499 17.2402 37.6999 16.8202 38.1799C16.4802 38.5499 16.0602 38.6199 15.5002 38.3899C14.4502 37.9499 13.4002 37.4899 12.3502 37.0499C12.2102 36.9899 12.0702 36.9299 11.9102 36.9499C11.6102 36.9699 11.3802 37.1899 11.3302 37.4899C11.2902 37.7499 11.4402 38.0099 11.7502 38.1399C12.5502 38.4799 13.3402 38.8099 14.1402 39.1399H17.6202C17.9602 38.8199 18.2102 38.3999 18.2802 37.9199C18.4402 36.9499 18.0502 36.1999 17.2802 35.6299C17.1902 35.5599 17.1102 35.5399 17.2302 35.4099C17.6902 34.9299 17.7702 34.2999 17.4502 33.7599C17.1302 33.2099 16.5202 32.9499 15.8902 33.1299C15.1302 33.3499 14.3802 33.6199 13.6302 33.8699C13.4702 33.9199 13.3302 33.9199 13.1702 33.8499C12.6802 33.6299 12.1902 33.4099 11.7002 33.2099C10.7902 32.8299 9.88019 32.4499 8.96019 32.0799C8.80019 32.0199 8.7802 31.9499 8.8602 31.7999C9.06019 31.4399 9.25019 31.0799 9.43019 30.7099C10.3702 28.8199 11.3102 26.9199 12.2502 25.0299C12.5302 24.4599 12.6602 23.8699 12.5702 23.2299C12.4202 22.1199 11.5402 21.1399 10.4202 20.8699C9.2702 20.5999 8.0802 21.0499 7.4502 21.9999C7.1802 22.4099 6.9602 22.8599 6.7502 23.3099C6.6502 23.5399 6.5302 23.7699 6.4202 23.9999C6.4002 23.9899 6.39019 23.9899 6.37019 23.9799C6.37019 23.9299 6.36019 23.8799 6.36019 23.8399C6.36019 22.8399 6.3702 21.8499 6.3502 20.8499C6.3402 20.1099 6.5702 19.4799 7.0402 18.9099C7.6602 18.1599 8.43019 18.0399 9.23019 18.5899C10.3402 19.3399 11.4602 20.0899 12.5802 20.8399C13.3702 21.3699 14.1902 21.8699 14.9602 22.4299C15.7402 22.9999 16.0002 23.8099 15.9202 24.7499C15.8802 25.1399 15.7302 25.4899 15.5402 25.8199C15.3002 26.2499 15.3702 26.5999 15.7402 26.9199C15.7802 26.9599 15.8302 26.9899 15.8702 27.0299C17.6702 28.5199 19.0702 30.3199 19.9902 32.4799C20.4202 33.4899 20.7202 34.5199 20.7402 35.6299C20.7602 36.8399 20.4802 37.9599 19.7002 38.9199C19.6402 38.9999 19.5602 39.0699 19.5002 39.1499H21.0602C21.6102 38.2899 21.9102 37.2899 22.0002 36.1899C22.0702 35.2799 21.9102 34.3999 21.6702 33.5299C21.2302 31.9099 20.4202 30.4699 19.4702 29.0999C18.7402 28.0499 17.8502 27.1299 16.8902 26.2799C16.7902 26.1899 16.7802 26.1199 16.8402 25.9999C17.5802 24.4099 17.1002 22.3499 15.5602 21.3299C14.6302 20.7099 13.7102 20.0899 12.7802 19.4699C12.6902 19.4099 12.6202 19.3499 12.6502 19.2199C12.8002 18.4399 12.9402 17.6599 13.0902 16.8799C13.1102 16.7799 13.1402 16.7399 13.2602 16.7999C13.6802 17.0199 14.1102 17.2199 14.5202 17.4499C15.4102 17.9399 16.2202 17.5699 16.6702 16.8999C16.8802 16.5899 17.1002 16.2799 17.3102 15.9699C17.7502 15.3299 18.1902 14.6799 18.6302 14.0399C18.9002 13.6499 18.9302 13.2599 18.6602 12.8499C18.6202 12.7899 18.5902 12.7299 18.5602 12.6699C18.3902 12.3299 18.3502 11.9699 18.4602 11.5999C18.4902 11.4799 18.5602 11.4199 18.6802 11.3799C18.9202 11.3099 19.1602 11.2399 19.3902 11.1399C20.0202 10.8699 20.5702 10.4699 20.8402 9.81992C21.5702 8.10992 21.5902 6.39992 20.6502 4.75992C19.9802 3.58992 18.9802 2.71992 17.7802 2.12992C15.7302 1.11992 13.5702 0.699916 11.2902 1.05992C9.8602 1.28992 8.5202 1.72992 7.3702 2.64992C7.2702 2.72992 7.18019 2.73992 7.06019 2.70992C6.30019 2.48992 5.53019 2.42992 4.74019 2.52992C3.49019 2.68992 2.40019 3.15992 1.53019 4.09992C0.500195 5.14992 0.100195 6.47992 0.0201955 7.93992C-0.0698045 9.59992 0.200195 11.2099 0.640195 12.8099C0.860195 13.6199 1.10019 14.4199 1.32019 15.2399ZM6.9702 25.6399C7.4302 24.7299 7.87019 23.8199 8.33019 22.9199C8.69019 22.2099 9.41019 21.8899 10.1502 22.0699C10.8402 22.2399 11.3602 22.9199 11.3602 23.6599C11.3702 23.9699 11.2502 24.2399 11.1102 24.5099C10.6602 25.3799 10.2102 26.2499 9.80019 27.1399C9.75019 27.2499 9.6902 27.2599 9.59019 27.2099C8.75019 26.7799 7.9202 26.3599 7.08019 25.9399C6.9202 25.8599 6.9002 25.7899 6.9702 25.6399ZM17.5002 13.4899C16.8602 14.3999 16.2302 15.3099 15.5902 16.2099C15.4102 16.4699 15.3802 16.4699 15.0902 16.3299C14.4902 16.0399 13.8902 15.7399 13.2902 15.4399C13.1002 15.3499 12.9002 15.2499 12.6702 15.2999C12.3302 15.3799 12.0902 15.5699 12.0202 15.9199C11.8502 16.7299 11.6802 17.5399 11.5202 18.3499C11.4802 18.5499 11.4302 18.5199 11.3002 18.4299C10.8302 18.1099 10.3502 17.7999 9.88019 17.4799C9.53019 17.2499 9.16019 17.0899 8.75019 17.0299C8.63019 17.0099 8.5802 16.9699 8.6102 16.8399C8.7002 16.4299 8.7702 16.0199 8.84019 15.6099C8.8602 15.4899 8.9202 15.4299 9.0302 15.3899C10.0002 15.0399 10.7002 14.3599 11.2602 13.5099C11.3302 13.3999 11.4002 13.3499 11.5302 13.3599C11.6902 13.3699 11.8502 13.3599 12.0102 13.3099C12.2802 13.2299 12.4602 12.9999 12.4502 12.7199C12.4402 12.3599 12.1802 12.1099 11.8002 12.0999C10.8402 12.0699 10.2302 11.1899 10.5202 10.2699C10.6302 9.91992 10.8802 9.68992 11.1902 9.65992C11.5502 9.62992 11.7702 9.84992 11.9302 10.1399C12.0202 10.2999 12.0602 10.4899 12.1102 10.6699C12.2402 11.2099 12.5402 11.3899 13.0602 11.2099C13.6502 11.0199 14.2302 10.7999 14.7702 10.4899C14.9102 10.4099 15.0102 10.4099 15.1402 10.5099C15.7202 10.9099 16.3302 11.2299 17.0302 11.3499C17.1702 11.3699 17.1902 11.4299 17.1702 11.5599C17.0702 12.1599 17.1802 12.7199 17.4902 13.2399C17.5502 13.3399 17.5602 13.4099 17.5002 13.4899ZM9.0202 3.01992C10.2202 2.39992 11.4802 2.15992 13.0402 2.15992C14.5502 2.16992 16.2002 2.51992 17.6902 3.45992C18.7902 4.15992 19.6502 5.06992 20.0002 6.35992C20.2702 7.34992 20.1202 8.30992 19.7602 9.23992C19.6602 9.49992 19.4402 9.65992 19.2102 9.79992C18.3202 10.3199 17.4202 10.3399 16.5002 9.88992C16.1402 9.71992 15.8102 9.49992 15.5002 9.23992C15.2202 8.99992 14.9302 8.97992 14.6202 9.16992C14.2202 9.41992 13.8002 9.59992 13.3702 9.79992C13.2202 9.86992 13.1502 9.85992 13.0902 9.69992C13.0202 9.50992 12.9102 9.33992 12.7902 9.17992C12.3302 8.54992 11.6802 8.31992 10.9402 8.42992C10.1402 8.55992 9.60019 9.04992 9.3702 9.81992C9.0302 10.9199 9.25019 11.8999 10.1002 12.7099C10.2202 12.8299 10.2302 12.8999 10.1202 13.0399C9.8302 13.4199 9.51019 13.7699 9.10019 14.0199C8.4402 14.4099 7.97019 14.3999 7.32019 13.8599C6.36019 13.0699 5.92019 11.9899 5.78019 10.7799C5.61019 9.31992 5.7602 7.87992 6.1702 6.47992C6.6102 4.93992 7.56019 3.76992 9.0202 3.01992ZM1.5602 6.38992C2.0602 4.86992 3.1602 4.02992 4.7102 3.74992C5.1902 3.65992 5.67019 3.66992 6.19019 3.75992C5.69019 4.40992 5.2802 5.04992 5.0602 5.79992C4.6402 7.24992 4.36019 8.71992 4.45019 10.2399C4.5002 11.0999 4.63019 11.9399 4.99019 12.7299C5.04019 12.8499 5.04019 12.9499 5.0002 13.0699C4.58019 14.3299 3.85019 15.3799 2.83019 16.2299C2.80019 16.2599 2.7702 16.3099 2.7102 16.2999C2.6702 16.2899 2.6802 16.2399 2.6702 16.2099C2.6402 15.2999 2.3602 14.4499 2.1002 13.5899C1.7602 12.4499 1.44019 11.2999 1.32019 10.1099C1.23019 8.85992 1.1502 7.60992 1.5602 6.38992Z" fill="#BFBFBF"/>
</g>
</svg>
