<svg width="80" height="80" viewBox="0 0 80 80" fill="none" xmlns="http://www.w3.org/2000/svg">
<path fill-rule="evenodd" clip-rule="evenodd" d="M64.1663 10C61.8652 10 59.9997 11.8655 59.9997 14.1667V21.7508C58.9687 22.803 58.333 24.2438 58.333 25.8333C58.333 29.055 60.9447 31.6667 64.1663 31.6667C67.388 31.6667 69.9997 29.055 69.9997 25.8333C69.9997 24.2438 69.364 22.803 68.333 21.7508V14.1667C68.333 11.8655 66.4675 10 64.1663 10ZM62.3805 24.0838L63.333 23.1118V20H64.9997V23.1118L65.9522 24.0838C66.3973 24.5382 66.6663 25.151 66.6663 25.8333C66.6663 27.214 65.547 28.3333 64.1663 28.3333C62.7857 28.3333 61.6663 27.214 61.6663 25.8333C61.6663 25.151 61.9353 24.5382 62.3805 24.0838ZM64.1663 13.3333C63.7062 13.3333 63.333 13.7064 63.333 14.1667V16.6667H64.9997V14.1667C64.9997 13.7064 64.6265 13.3333 64.1663 13.3333Z" fill="white"/>
<path fill-rule="evenodd" clip-rule="evenodd" d="M23.6921 31.4763C24.4514 29.5782 26.2899 28.3333 28.3346 28.3333H43.3346C45.3791 28.3333 47.2176 29.5782 47.9769 31.4763L51.3103 39.8097C52.3359 42.3737 51.0888 45.2835 48.5249 46.309L45.8346 47.3852V56.6667L45.8344 56.6875V65.4443C45.8344 67.821 44.0238 69.8805 41.5944 69.9952C39.1604 70.11 37.1706 68.2227 36.9633 65.8512L36.3061 58.3333H35.3628L34.7056 65.8512C34.4983 68.2227 32.5084 70.11 30.0744 69.9952C27.6453 69.8805 25.8344 67.821 25.8344 65.4443V49.5555L25.8346 49.5278V47.5087L25.4139 47.3217L25.3584 47.301L25.3598 47.2977L22.9704 46.2357C20.5141 45.144 19.3604 42.3055 20.3588 39.8097L23.6921 31.4763ZM29.1678 49.5555L29.1679 49.5432V48.512C29.4913 48.5617 29.8149 48.5883 30.1313 48.5815C30.7036 48.5692 31.3613 48.447 31.9646 48.0597C32.5938 47.656 33.0171 47.058 33.2496 46.3603C33.6681 45.1053 34.0994 43.5012 33.3999 41.9273C32.7054 40.3647 31.1259 39.3213 28.9541 38.4525L27.4068 37.8335L26.1688 40.9285L27.7163 41.5475C29.7111 42.3453 30.2149 42.9687 30.3538 43.281C30.4854 43.5773 30.5018 44.046 30.1071 45.2468C30.0929 45.2478 30.0771 45.2485 30.0594 45.2488C29.6601 45.2575 29.0069 45.1007 28.0818 44.757L26.6724 44.2333L24.3243 43.1897C23.5054 42.8258 23.1209 41.8797 23.4538 41.0477L26.7871 32.7143C27.0401 32.0817 27.6529 31.6667 28.3346 31.6667H43.3346C44.0161 31.6667 44.6289 32.0817 44.8821 32.7143L48.2154 41.0477C48.5573 41.9023 48.1416 42.8723 47.2869 43.2142L43.5489 44.7093C43.4209 44.7605 43.3018 44.8265 43.1931 44.9048L42.8451 45.0118C42.5089 45.1152 42.2201 45.1845 41.9778 45.2205C41.7848 45.2493 41.6501 45.2525 41.5633 45.2468C41.1686 44.046 41.1849 43.5773 41.3166 43.281C41.4554 42.9687 41.9593 42.3453 43.9541 41.5475L45.5016 40.9285L44.2636 37.8335L42.7163 38.4525C40.5444 39.3213 38.9649 40.3647 38.2704 41.9273C37.5709 43.5012 38.0024 45.1053 38.4208 46.3603C38.6159 46.9462 38.9488 47.4723 39.4439 47.871C39.9328 48.2648 40.4846 48.4578 41.0026 48.5363C41.4998 48.6115 42.0104 48.5878 42.5013 48.5127V56.6458L42.5011 56.6667V65.4443C42.5011 66.1568 41.9754 66.6402 41.4373 66.6655C40.9041 66.6907 40.3456 66.2657 40.2839 65.5608L39.4938 56.5215C39.4186 55.6607 38.6978 55 37.8334 55H33.8354C32.9713 55 32.2503 55.6607 32.1751 56.5215L31.3849 65.5608C31.3233 66.2657 30.7649 66.6907 30.2316 66.6655C29.6936 66.6402 29.1678 66.1568 29.1678 65.4443V49.5555Z" fill="white"/>
<path fill-rule="evenodd" clip-rule="evenodd" d="M43.334 19.1667C43.334 23.3088 39.9762 26.6667 35.834 26.6667C31.6918 26.6667 28.334 23.3088 28.334 19.1667C28.334 15.0245 31.6918 11.6667 35.834 11.6667C39.9762 11.6667 43.334 15.0245 43.334 19.1667ZM40.0007 19.1667C40.0007 21.4678 38.1352 23.3333 35.834 23.3333C33.5328 23.3333 31.6673 21.4678 31.6673 19.1667C31.6673 16.8655 33.5328 15 35.834 15C38.1352 15 40.0007 16.8655 40.0007 19.1667Z" fill="white"/>
<path d="M14.5358 31.7382C15.4317 30.8422 16.783 30 18.3333 30H20V33.3333H18.3333C17.9788 33.3333 17.4255 33.5625 16.8928 34.0952C16.6451 34.3428 16.4533 34.6083 16.3308 34.8445C16.2704 34.961 16.233 35.0585 16.2119 35.1323C16.2088 35.1433 16.2061 35.1535 16.2038 35.1628C16.2236 35.1963 16.255 35.2448 16.3036 35.3095C16.4865 35.5533 16.752 35.8235 17.1308 36.2025L17.1677 36.2392C17.4985 36.5698 17.9278 36.999 18.2678 37.4523C18.6075 37.9053 19.0477 38.6228 19.0477 39.5238C19.0477 40.3 18.6517 40.8622 18.3293 41.193C18.0102 41.5208 17.6273 41.7662 17.3052 41.9475C16.7925 42.2358 16.1412 42.5162 15.5719 42.7613C15.4399 42.8182 15.3123 42.873 15.1918 42.9257C14.4697 43.2417 13.9122 43.5132 13.5415 43.7835C13.4913 43.82 13.4504 43.8523 13.4172 43.8802C13.5995 44.0458 13.882 44.2148 14.3885 44.4998L14.4509 44.5348C14.8825 44.777 15.5133 45.1312 16.0208 45.607C16.6147 46.1637 17.1428 46.9783 17.1428 48.0952C17.1428 49.8725 15.9702 51.0355 15.3228 51.6777L15.2261 51.7738C14.4163 52.5837 14.2857 52.8222 14.2857 53.0952C14.2857 53.2895 14.4645 53.7457 15.3049 54.2723C16.1029 54.7727 16.9903 55 17.381 55H19.0477V58.3333H17.381C16.224 58.3333 14.7304 57.8463 13.5344 57.0967C12.3807 56.3735 10.9524 55.0438 10.9524 53.0952C10.9524 51.318 12.125 50.155 12.7724 49.5128L12.8691 49.4167C13.663 48.6228 13.8041 48.3778 13.8094 48.1113C13.7978 48.0965 13.7768 48.0723 13.741 48.0388C13.5593 47.8685 13.2753 47.698 12.7543 47.405L12.692 47.37C12.2604 47.1277 11.6296 46.7735 11.122 46.2977C10.5282 45.741 10 44.9265 10 43.8095C10 42.4565 10.9103 41.5767 11.5776 41.09C12.2783 40.5792 13.1494 40.181 13.8558 39.8718C14.0281 39.7965 14.1908 39.7262 14.3444 39.6598C14.7515 39.4842 15.0951 39.3358 15.3855 39.1922C15.2252 39.0128 15.0243 38.81 14.7739 38.5595L14.7371 38.5227C14.4063 38.192 13.977 37.763 13.6369 37.3095C13.2972 36.8567 12.8572 36.139 12.8572 35.2382C12.8572 33.8973 13.6695 32.6045 14.5358 31.7382Z" fill="white"/>
<path fill-rule="evenodd" clip-rule="evenodd" d="M54.9997 30C56.5083 30 57.6547 31.06 58.2973 31.9167C58.9752 32.8207 59.5235 34.0567 59.5235 35.2382C59.5235 36.005 59.2393 36.656 58.9747 37.1267C58.7193 37.5805 58.3948 38.013 58.1455 38.3453L58.1187 38.381C57.8422 38.7497 57.6478 39.0132 57.511 39.2525C57.7205 39.396 57.9762 39.5432 58.3097 39.7353C58.4283 39.8037 58.5568 39.8777 58.6967 39.9592C59.2322 40.2715 59.929 40.6945 60.4918 41.2418C61.073 41.8068 61.6663 42.6568 61.6663 43.8095C61.6663 45.728 60.3258 46.7245 59.6583 47.2207L59.5712 47.2857C58.8063 47.8592 58.8075 47.9513 58.809 48.0778L58.8092 48.0952C58.8092 48.5453 58.9868 48.848 59.5473 49.5952L59.6027 49.6688C60.12 50.3565 60.952 51.4622 60.952 53.0952C60.952 54.8777 59.8733 56.1982 58.904 56.9812C58.3995 57.3885 57.8563 57.7098 57.3465 57.9348C56.8763 58.1423 56.2872 58.3333 55.714 58.3333H54.0473V55H55.6773L55.6805 54.9987L55.6902 54.9962C55.7245 54.9875 55.828 54.9615 56.001 54.8852C56.2502 54.7752 56.5402 54.6055 56.8095 54.388C57.388 53.9208 57.6187 53.4557 57.6187 53.0952C57.6187 52.645 57.4412 52.3425 56.8807 51.5952L56.8253 51.5217C56.3078 50.834 55.4758 49.7283 55.4758 48.0952C55.4758 46.1767 56.8163 45.1802 57.484 44.684L57.5712 44.619C58.3285 44.051 58.3347 43.9552 58.3332 43.8305C58.319 43.802 58.2772 43.7377 58.1682 43.6317C57.9275 43.3977 57.553 43.151 57.017 42.8385C56.9338 42.79 56.8433 42.738 56.7478 42.6833C56.3208 42.4383 55.795 42.1367 55.3837 41.8282C54.9483 41.5017 54.0473 40.7498 54.0473 39.5238C54.0473 38.757 54.3313 38.106 54.5962 37.6353C54.8515 37.1813 55.1758 36.749 55.4253 36.4167L55.452 36.381C55.7352 36.0035 55.9322 35.7363 56.0693 35.4925C56.1653 35.3217 56.1862 35.2395 56.19 35.2238C56.1838 34.9702 56.0167 34.4313 55.6307 33.9167C55.4497 33.6753 55.269 33.507 55.1243 33.4105C55.0433 33.3567 54.995 33.3387 54.978 33.3333H53.333V30H54.9997ZM57.2192 39.0187C57.2192 39.0187 57.2243 39.0267 57.2407 39.0428C57.2285 39.0268 57.2192 39.0187 57.2192 39.0187ZM58.3352 43.8345C58.3368 43.8383 58.3387 43.8433 58.3387 43.8433C58.3398 43.8465 58.3395 43.8478 58.3395 43.8478L58.3368 43.8418L58.3352 43.8345Z" fill="white"/>
</svg>
