<svg width="70" height="70" viewBox="0 0 70 70" fill="none" xmlns="http://www.w3.org/2000/svg">
<path fill-rule="evenodd" clip-rule="evenodd" d="M51.1408 29.3422C50.5229 27.3219 48.5155 25.9919 46.356 26.2917C43.9628 26.6239 42.292 28.8334 42.6242 31.2267C42.635 31.3036 42.6517 31.3794 42.6743 31.4536C43.1454 32.9901 43.7901 34.5749 44.3803 36.0115C42.3258 35.8689 40.294 35.7293 39.9761 35.7293C39.3524 35.7293 38.859 35.8651 38.7284 35.901L38.7268 35.9014L38.722 35.9027C38.5241 35.9571 38.3539 36.0163 38.2473 36.0547C38.0346 36.1312 37.805 36.2244 37.6391 36.2918L37.514 36.3427C37.1742 36.4811 36.8363 36.6185 36.4627 36.7539C35.4979 37.1034 34.9164 37.1992 34.7247 37.1913C34.5578 37.1844 34.0442 37.0694 33.2114 36.7385C32.8878 36.6099 32.5967 36.4824 32.3078 36.356L32.2092 36.3128C32.0717 36.2526 31.8744 36.1664 31.6928 36.0946C31.6043 36.0596 31.4498 36.0003 31.2675 35.9434C31.1552 35.9075 30.5977 35.7293 29.8916 35.7293C29.6266 35.7293 27.4512 35.8686 25.2248 36.0116C25.2537 35.951 25.2825 35.8905 25.3113 35.8302L25.3121 35.8283C25.5932 35.2392 25.859 34.6816 26.075 34.2265C26.1529 34.0621 26.2376 33.8956 26.3341 33.7056C26.3426 33.6891 26.3511 33.6725 26.3595 33.6557C26.4629 33.4523 26.5781 33.2243 26.6874 32.9879C26.9044 32.5184 27.1297 31.9493 27.231 31.3103C27.6095 28.9239 25.9815 26.6825 23.5951 26.3041C21.3776 25.9525 19.5738 27.3542 18.8175 29.0857C18.2263 30.4394 17.5732 31.7657 16.903 33.1272C16.7861 33.3645 16.6688 33.6028 16.5512 33.8425C15.766 35.4427 14.9743 37.0929 14.3005 38.8068C14.2371 38.9683 14.1301 39.2472 14.0466 39.5465L14.0454 39.5507C14.0147 39.6604 13.9 40.0709 13.8743 40.5879C13.8643 40.7884 13.8257 41.5743 14.1961 42.481C14.4066 42.9962 14.8218 43.7258 15.6151 44.3243C16.4564 44.959 17.4089 45.2085 18.2556 45.2085C18.5477 45.2085 20.965 45.0532 23.3291 44.9014L24.7921 44.8076V46.6557L20.9822 49.0843C19.4495 50.0612 18.6805 51.8841 19.0502 53.6636L20.5085 60.6818C20.9826 62.9633 23.1615 64.4728 25.4641 64.1149C27.7665 63.757 29.3845 61.6573 29.1436 59.3397L28.7869 55.9062L30.3906 55.417H39.9245L41.2208 55.839L40.8571 59.3397C40.6163 61.6573 42.2344 63.757 44.5368 64.1149C46.8392 64.4728 49.0182 62.9633 49.4922 60.6818L50.9505 53.6636C51.3068 51.9493 50.6066 50.1878 49.1708 49.1858L45.2088 46.4211V44.84L46.1565 44.9059C48.3 45.0548 50.5127 45.2085 50.8363 45.2085C52.5149 45.2085 53.8322 44.2845 54.5374 43.1786C55.081 42.3264 55.18 41.5204 55.208 41.2396C55.2691 40.6267 55.1852 40.1314 55.1628 39.9984L55.1625 39.997L55.1619 39.9933M32.1342 39.4489C33.0018 39.7937 33.9092 40.077 34.6055 40.1055C35.4067 40.1383 36.4487 39.8611 37.4561 39.496C37.8872 39.34 38.2721 39.1832 38.6057 39.0473L38.7373 38.9938C39.1307 38.8338 39.542 38.646 39.9761 38.646C39.9761 38.646 39.9755 38.646 39.9799 38.6461C39.992 38.6466 40.0301 38.6479 40.1066 38.6517C40.1975 38.6562 40.3187 38.663 40.4679 38.6719C40.7657 38.6899 41.1626 38.7155 41.6265 38.7465C42.5536 38.8084 43.7366 38.8905 44.9041 38.9715L46.5079 39.0827C47.0078 39.1175 47.4906 38.8929 47.7862 38.488C48.0818 38.0832 48.1489 37.555 47.9639 37.0892C47.8718 36.8579 47.7784 36.6236 47.6841 36.388C47.5001 35.9284 47.3101 35.4659 47.1195 35.0019C46.5363 33.5822 45.9467 32.1472 45.5029 30.7277C45.4487 29.9685 45.9922 29.2868 46.7571 29.1807C47.4819 29.08 48.1584 29.5315 48.3572 30.2136C48.3668 30.2469 48.3777 30.2798 48.3897 30.3123C48.846 31.544 49.4187 32.8052 49.9683 34.0158C50.204 34.5346 50.4353 35.0442 50.6516 35.5381C51.3978 37.2434 52.0129 38.8627 52.2861 40.4792L52.2868 40.4836C52.2964 40.5409 52.3278 40.7294 52.3058 40.9499C52.296 41.0468 52.2623 41.3217 52.0783 41.6103C51.8366 41.9894 51.3917 42.2918 50.8363 42.2918C50.8363 42.2918 50.8379 42.2917 50.832 42.2915C50.8193 42.2911 50.7838 42.2898 50.7157 42.2864C50.629 42.282 50.5127 42.2755 50.3692 42.2667C50.0828 42.2495 49.6997 42.2247 49.2508 42.1947C48.3535 42.1347 47.2036 42.0548 46.0581 41.9754L43.8511 41.8222C43.4478 41.7944 43.051 41.9351 42.7554 42.211C42.46 42.4868 42.2921 42.873 42.2921 43.2772V47.1817C42.2921 47.6583 42.525 48.1049 42.916 48.3777L47.5016 51.5776C47.9802 51.9116 48.2137 52.4988 48.095 53.0702L46.6366 60.0884C46.4785 60.849 45.7523 61.3521 44.9848 61.2328C44.2173 61.1135 43.678 60.4136 43.7582 59.6412L44.2438 54.9679C44.3148 54.284 43.8985 53.6433 43.2447 53.4304L40.6073 52.5719C40.4615 52.5244 40.3092 52.5003 40.1558 52.5003H30.1731C30.0288 52.5003 29.8855 52.5216 29.7475 52.5637L26.7867 53.4672C26.1193 53.6709 25.6897 54.3187 25.7618 55.0127L26.2426 59.6412C26.3229 60.4136 25.7836 61.1135 25.0161 61.2328C24.2486 61.3521 23.5223 60.849 23.3643 60.0884L21.9059 53.0702C21.7827 52.4771 22.0391 51.8694 22.5499 51.5438L27.0343 48.6853C27.4544 48.4175 27.7088 47.9538 27.7088 47.4556V43.2527C27.7088 42.8498 27.5421 42.4648 27.2482 42.1891C26.9542 41.9134 26.5595 41.7716 26.1572 41.7973L23.4821 41.9689C22.2208 42.0499 20.9533 42.1312 19.9709 42.1924C19.4794 42.223 19.0613 42.2484 18.7518 42.266C18.5968 42.2749 18.4718 42.2816 18.3795 42.2861C18.3137 42.2893 18.2774 42.2908 18.2621 42.2914C18.2522 42.2917 18.2509 42.2918 18.2556 42.2918C17.97 42.2918 17.6518 42.2072 17.3717 41.9959C17.1074 41.7964 16.9677 41.553 16.8961 41.3779C16.7705 41.0705 16.784 40.8014 16.7873 40.7339C16.7966 40.5456 16.8407 40.3849 16.8545 40.3355L16.8559 40.3308C16.8974 40.1817 16.959 40.0167 17.015 39.874C17.6416 38.2799 18.3873 36.722 19.1696 35.1273C19.2837 34.8947 19.3987 34.6611 19.5144 34.4263C20.1836 33.0671 20.8701 31.6731 21.4903 30.2531C21.8409 29.4503 22.5193 29.0866 23.1384 29.1847C23.9339 29.3109 24.4765 30.058 24.3504 30.8535C24.3098 31.1092 24.2088 31.3985 24.0397 31.7645C23.9559 31.9458 23.8633 32.1299 23.7593 32.3345C23.7503 32.3522 23.7411 32.3703 23.7318 32.3886C23.6387 32.5717 23.5358 32.774 23.4396 32.9766C23.2254 33.4285 22.9609 33.983 22.6793 34.5733C22.2982 35.3723 21.8957 36.2164 21.5238 37.0021C21.303 37.469 21.3455 38.0177 21.6355 38.445C21.9256 38.8723 22.42 39.1142 22.9354 39.0813L24.8916 38.9557C26.1177 38.877 27.3337 38.799 28.2711 38.7405C28.74 38.7113 29.1369 38.6871 29.4299 38.6703C29.5766 38.6619 29.6944 38.6555 29.7811 38.6512C29.8387 38.6483 29.8712 38.647 29.8861 38.6464C29.8976 38.646 29.8983 38.646 29.8916 38.646C30.6548 38.646 31.4605 39.1812 32.1342 39.4489Z" fill="white"/>
<path fill-rule="evenodd" clip-rule="evenodd" d="M34.4768 5.93031C35.2287 5.64156 36.0724 6.017 36.3611 6.76887L38.1221 11.3543C38.3102 11.8439 38.2208 12.3968 37.8881 12.8022C37.5555 13.2076 37.0308 13.4032 36.5138 13.3145L35.0832 13.0687L36.0161 14.9733C36.3703 15.6965 36.0712 16.5702 35.3479 16.9244C34.6245 17.2786 33.751 16.9795 33.3968 16.2562L31.2091 11.7901C30.9682 11.2982 31.0232 10.7129 31.3515 10.2745C31.6797 9.83611 32.2259 9.61858 32.7657 9.71129L34.4799 10.0057L33.6383 7.81454C33.3495 7.06266 33.725 6.21906 34.4768 5.93031ZM19.3955 6.25045C19.9705 5.68658 20.8939 5.69571 21.4577 6.27082L27.1768 12.1042C27.5879 12.5235 27.7075 13.1484 27.4802 13.6898C27.2527 14.2312 26.7227 14.5835 26.1356 14.5835H23.9732L25.8785 16.4615C26.452 17.0269 26.4587 17.9503 25.8933 18.5239C25.328 19.0975 24.4045 19.1042 23.831 18.5388L19.3925 14.1637C18.9712 13.7483 18.8426 13.1194 19.067 12.5719C19.2915 12.0244 19.8246 11.6668 20.4163 11.6668H22.6634L19.375 8.31275C18.8111 7.73763 18.8203 6.81431 19.3955 6.25045ZM50.6141 6.26058C51.1838 6.8301 51.1838 7.75346 50.6141 8.32299L47.2703 11.6668H49.4689C50.0572 11.6668 50.5879 12.0203 50.8145 12.5631C51.0413 13.106 50.9197 13.7319 50.5061 14.1503L46.1818 18.5252C45.6156 19.098 44.6923 19.1034 44.1195 18.5373C43.5466 17.9712 43.5412 17.0478 44.1073 16.4749L45.9769 14.5835H43.7496C43.1599 14.5835 42.628 14.2281 42.4023 13.6832C42.1767 13.1383 42.3013 12.511 42.7184 12.0939L48.5518 6.26058C49.1212 5.69107 50.0447 5.69107 50.6141 6.26058Z" fill="white"/>
<path fill-rule="evenodd" clip-rule="evenodd" d="M35 30.6251C37.0135 30.6251 38.6458 28.9928 38.6458 26.9793C38.6458 24.9658 37.0135 23.3335 35 23.3335C32.9865 23.3335 31.3542 24.9658 31.3542 26.9793C31.3542 28.9928 32.9865 30.6251 35 30.6251ZM35 33.5418C38.6244 33.5418 41.5625 30.6037 41.5625 26.9793C41.5625 23.3549 38.6244 20.4168 35 20.4168C31.3758 20.4168 28.4375 23.3549 28.4375 26.9793C28.4375 30.6037 31.3758 33.5418 35 33.5418Z" fill="white"/>
</svg>
