<svg width="80" height="80" viewBox="0 0 80 80" fill="none" xmlns="http://www.w3.org/2000/svg">
<path fill-rule="evenodd" clip-rule="evenodd" d="M29.3857 52.51C29.0463 52.9255 28.7772 53.4562 28.6002 53.9728C28.424 54.4872 28.2849 55.145 28.3489 55.8177C28.415 56.5122 28.7317 57.411 29.6475 57.9463C30.4945 58.4415 31.4748 58.3938 32.3422 58.1765L32.3645 58.1705C36.3575 57.1105 38.3128 56.6718 40.205 56.6803C42.1017 56.6888 44.0138 57.1455 47.9358 58.168C48.6935 58.381 49.5948 58.4328 50.3967 57.9508C51.2252 57.453 51.5325 56.638 51.6257 56.0275C51.7183 55.4195 51.6403 54.8148 51.5148 54.3255C51.3883 53.8327 51.1797 53.3237 50.8958 52.9013C50.7022 52.6128 50.4149 52.3147 50.3109 52.2068L50.2912 52.1863L50.2764 52.1707C48.0705 49.7567 44.1727 48.3333 39.9777 48.3333C35.6057 48.3333 31.5312 49.8828 29.3857 52.51ZM40.22 53.347C37.877 53.3365 35.5575 53.8778 31.8285 54.8642C31.845 54.8282 31.8617 54.794 31.8785 54.7623C31.9243 54.6757 31.9583 54.6295 31.9675 54.6185C33.2778 53.014 36.236 51.6667 39.9777 51.6667C43.5472 51.6667 46.4242 52.8963 47.8155 54.4192C47.8668 54.4753 47.9175 54.5285 47.9563 54.5695L47.9592 54.5725C47.9673 54.581 47.9748 54.589 47.9822 54.5967C48.0135 54.6297 48.0377 54.6553 48.0603 54.6802C48.1128 54.7375 48.129 54.7602 48.129 54.7602C48.132 54.7648 48.1357 54.7703 48.1393 54.7767C44.6959 53.8828 42.4818 53.3572 40.22 53.347Z" fill="white"/>
<path fill-rule="evenodd" clip-rule="evenodd" d="M46.667 39.1667C46.667 36.8655 48.5325 35 50.8337 35C53.1348 35 55.0003 36.8655 55.0003 39.1667C55.0003 41.4678 53.1348 43.3333 50.8337 43.3333C48.5325 43.3333 46.667 41.4678 46.667 39.1667ZM50.8337 38.3333C50.3735 38.3333 50.0003 38.7065 50.0003 39.1667C50.0003 39.6268 50.3735 40 50.8337 40C51.2938 40 51.667 39.6268 51.667 39.1667C51.667 38.7065 51.2938 38.3333 50.8337 38.3333Z" fill="white"/>
<path fill-rule="evenodd" clip-rule="evenodd" d="M29.1667 35C26.8655 35 25 36.8655 25 39.1667C25 41.4678 26.8655 43.3333 29.1667 43.3333C31.4678 43.3333 33.3333 41.4678 33.3333 39.1667C33.3333 36.8655 31.4678 35 29.1667 35ZM28.3333 39.1667C28.3333 38.7065 28.7065 38.3333 29.1667 38.3333C29.6268 38.3333 30 38.7065 30 39.1667C30 39.6268 29.6268 40 29.1667 40C28.7065 40 28.3333 39.6268 28.3333 39.1667Z" fill="white"/>
<path d="M28.148 33.9277C25.4161 33.0262 22.6798 32.4428 20.9248 32.1848L21.4095 28.887C23.3416 29.171 26.2661 29.7965 29.1926 30.7623C32.0795 31.7152 35.1625 33.061 37.2551 34.8695L35.0756 37.3917C33.492 36.023 30.9195 34.8425 28.148 33.9277Z" fill="white"/>
<path d="M58.9916 32.185C57.2366 32.443 54.5003 33.0263 51.7685 33.9278C48.997 34.8427 46.4245 36.0232 44.8408 37.3918L42.6611 34.8697C44.754 33.0612 47.837 31.7153 50.7238 30.7625C53.6503 29.7967 56.5748 29.1712 58.507 28.8872L58.9916 32.185Z" fill="white"/>
<path fill-rule="evenodd" clip-rule="evenodd" d="M70 40C70 56.5685 56.5685 70 40 70C23.4315 70 10 56.5685 10 40C10 23.4315 23.4315 10 40 10C56.5685 10 70 23.4315 70 40ZM66.6667 40C66.6667 54.7277 54.7277 66.6667 40 66.6667C25.2723 66.6667 13.3333 54.7277 13.3333 40C13.3333 25.2723 25.2723 13.3333 40 13.3333C54.7277 13.3333 66.6667 25.2723 66.6667 40Z" fill="white"/>
</svg>
