<?xml version="1.0" encoding="UTF-8"?>
<svg version="1.1" xmlns="http://www.w3.org/2000/svg" width="512" height="512">
<path d="M0 0 C1.70630139 1.67602055 3.43243013 3.32916294 5.16308594 4.97998047 C12.26417149 11.82542281 18.55687438 19.05454605 24.44238281 26.96728516 C25.28346957 28.09785336 26.13084357 29.22377968 26.98535156 30.34423828 C64.45402251 79.48104527 78.41788919 142.94072292 70.33837891 203.671875 C67.20361072 224.8524466 61.29031726 245.10003544 52.73339844 264.70263672 C52.4164502 265.43820801 52.09950195 266.1737793 51.77294922 266.93164062 C41.22957818 291.1721023 25.95477178 313.15273918 7.43603516 331.96923828 C5.7600146 333.67553967 4.10687222 335.40166841 2.45605469 337.13232422 C-4.38938765 344.23340978 -11.61851089 350.52611267 -19.53125 356.41162109 C-20.6618182 357.25270785 -21.78774452 358.10008185 -22.90820312 358.95458984 C-71.28663418 395.8449705 -134.20658467 410.3746928 -194.1105957 402.50512695 C-243.20070797 395.57024589 -289.05934811 374.31777094 -324.53320312 339.40527344 C-326.23950452 337.72925289 -327.96563326 336.0761105 -329.69628906 334.42529297 C-336.79737462 327.57985063 -343.09007751 320.35072739 -348.97558594 312.43798828 C-349.81667269 311.30742008 -350.6640467 310.18149376 -351.51855469 309.06103516 C-388.31411298 260.80695515 -402.59528691 198.46620736 -395.26660156 138.70263672 C-392.25812718 116.4830639 -386.22843033 95.23282518 -377.26660156 74.70263672 C-376.94965332 73.96706543 -376.63270508 73.23149414 -376.30615234 72.47363281 C-366.18665209 49.20770039 -351.65223173 27.44466936 -333.86767578 9.33447266 C-332.12318838 7.55646811 -330.40078994 5.75828331 -328.67675781 3.96044922 C-321.24366257 -3.71139434 -313.56542247 -10.69344058 -304.96972656 -17.03857422 C-303.30625225 -18.26805724 -301.66132605 -19.51952541 -300.01660156 -20.77392578 C-225.51242137 -76.68808809 -117.72435637 -79.56871548 0 0 Z " fill="#45B39C" transform="translate(418.2666015625,86.29736328125)"/>
<path d="M0 0 C1.11266081 0.93645013 2.22285659 1.87582956 3.33203125 2.81640625 C3.95053955 3.33920166 4.56904785 3.86199707 5.20629883 4.40063477 C7 6 7 6 9.6875 8.9375 C10.450625 9.618125 11.21375 10.29875 12 11 C15.39906917 10.68025116 17.26813995 9.18071966 19.75 6.9375 C20.67039062 6.11572266 20.67039062 6.11572266 21.609375 5.27734375 C22.06828125 4.85582031 22.5271875 4.43429688 23 4 C35.74592664 16.2541908 48.4300762 28.56863889 61.04531288 40.95725727 C66.90503078 46.70892789 72.78278826 52.43954557 78.70800781 58.1237793 C83.87577779 63.08146895 89.00485974 68.07566407 94.09198034 73.11612195 C96.7847325 75.78161328 99.49247224 78.42587694 102.2474556 81.0271244 C120.30997422 98.11907705 120.30997422 98.11907705 120.8830719 106.43644714 C120.68743588 110.49781093 119.8801111 114.22327387 118.61583614 118.07926846 C117.74957301 120.78105683 117.33010506 123.52661803 116.88671875 126.32421875 C116.49983098 128.11480438 116.10030919 129.90271216 115.6875 131.6875 C115.3615686 133.13491577 115.3615686 133.13491577 115.02905273 134.61157227 C113.11604512 142.89989318 110.79191013 150.9680183 108 159 C107.78263184 159.63389648 107.56526367 160.26779297 107.34130859 160.92089844 C96.50784517 192.2350284 78.94815323 220.64732075 55.70263672 244.26660156 C54.02661617 245.97290296 52.37347378 247.69903169 50.72265625 249.4296875 C43.87721391 256.53077306 36.64809067 262.82347595 28.73535156 268.70898438 C27.60478336 269.55007113 26.47885704 270.39744514 25.35839844 271.25195312 C-24.59407032 309.34259697 -87.21331655 321.69134972 -148.71484375 314.6953125 C-153.98928539 313.57896219 -157.37967957 310.87098436 -161.13191223 307.1085968 C-161.92130188 306.32195648 -162.71069153 305.53531616 -163.52400208 304.72483826 C-164.37564438 303.8660054 -165.22728668 303.00717255 -166.10473633 302.12231445 C-167.01254852 301.21479431 -167.92036072 300.30727417 -168.85568237 299.37225342 C-171.33707754 296.89143077 -173.81226884 294.40450143 -176.28637528 291.91641259 C-178.8759413 289.31432246 -181.47119303 286.71791566 -184.06584167 284.12089539 C-188.97480893 279.20571831 -193.87865672 274.28546641 -198.78067654 269.36336154 C-204.36318472 263.75847888 -209.9513903 258.15929146 -215.54007685 252.56057036 C-227.03306013 241.04669635 -238.51888318 229.52570699 -250 218 C-248.35296864 214.51066423 -246.48320216 212.24044101 -243.73388672 209.50683594 C-242.85312469 208.62622498 -241.97236267 207.74561401 -241.06491089 206.83831787 C-240.10327649 205.88689569 -239.1415328 204.93558397 -238.1796875 203.984375 C-237.19561893 203.00403871 -236.21199258 202.02325832 -235.22879028 201.04205322 C-232.64557286 198.46645533 -230.05640488 195.89692143 -227.46594238 193.32861328 C-224.8213238 190.70448933 -222.1823899 188.07466229 -219.54296875 185.4453125 C-214.36751928 180.2912833 -209.18576878 175.14364843 -204 170 C-196.61438461 176.25557019 -196.61438461 176.25557019 -193.47265625 179.4296875 C-192.90869141 179.996875 -192.34472656 180.5640625 -191.76367188 181.1484375 C-190.9215918 182.00308594 -190.9215918 182.00308594 -190.0625 182.875 C-189.47404297 183.46796875 -188.88558594 184.0609375 -188.27929688 184.671875 C-186.85052326 186.11226466 -185.42491868 187.5557967 -184 189 C-181.06769807 187.67879172 -179.01335101 186.25361803 -176.765625 183.9609375 C-176.19199219 183.38085938 -175.61835938 182.80078125 -175.02734375 182.203125 C-174.44082031 181.59984375 -173.85429687 180.9965625 -173.25 180.375 C-172.34701172 179.45847656 -172.34701172 179.45847656 -171.42578125 178.5234375 C-169.94594695 177.02011376 -168.47235324 175.51065144 -167 174 C-163.78475695 175.40844718 -161.67816132 177.10344786 -159.25 179.625 C-158.63640625 180.25664062 -158.0228125 180.88828125 -157.390625 181.5390625 C-156.93171875 182.02117187 -156.4728125 182.50328125 -156 183 C-149.11371554 177.35821271 -142.91579866 171.04938389 -136.63891602 164.75244141 C-135.39673494 163.50997792 -134.15433295 162.26773527 -132.91172791 161.0256958 C-129.55463525 157.66888899 -126.20062569 154.30901711 -122.84717679 150.94857073 C-119.33627084 147.4313958 -115.82251576 143.91706956 -112.30906677 140.4024353 C-105.66325564 133.75352129 -99.01999684 127.10206319 -92.37765974 120.44967878 C-84.81251276 112.87333824 -77.24451189 105.29985118 -69.67627442 97.72659802 C-54.11434709 82.15422993 -38.5559927 66.57829634 -23 51 C-19.58940597 52.60535287 -17.38207516 54.40518901 -14.75 57.125 C-14.04359375 57.84945312 -13.3371875 58.57390625 -12.609375 59.3203125 C-11.81273437 60.15175781 -11.81273437 60.15175781 -11 61 C-9.89134015 60.08877273 -8.78827781 59.17073341 -7.6875 58.25 C-7.07261719 57.73953125 -6.45773437 57.2290625 -5.82421875 56.703125 C-3.64044184 54.76406559 -3.64044184 54.76406559 -1 51 C-8.92 43.08 -16.84 35.16 -25 27 C-23.03838569 23.07677137 -20.84267796 20.58307142 -17.7734375 17.578125 C-17.26575836 17.07327576 -16.75807922 16.56842651 -16.23501587 16.04827881 C-14.61966158 14.44407904 -12.99747791 12.84699144 -11.375 11.25 C-10.27558302 10.16061893 -9.17661941 9.0707801 -8.078125 7.98046875 C-5.3906398 5.31498115 -2.69700979 2.65584857 0 0 Z " fill="#3EA18D" transform="translate(370,174)"/>
<path d="M0 0 C3.12888 1.37240401 5.23177511 3.61894839 7.58526611 6.02418518 C8.11254303 6.55102402 8.63981995 7.07786285 9.18307495 7.6206665 C10.92167606 9.36135527 12.64941386 11.11242368 14.3772583 12.86378479 C15.58157921 14.07370172 16.7865648 15.28295738 17.9921875 16.49157715 C21.16184753 19.67268539 24.32239492 22.86270007 27.48114014 26.05464172 C30.70669128 29.31089407 33.94076354 32.55865866 37.1741333 35.80714417 C43.51584409 42.1810187 49.84796211 48.56433305 56.1741333 54.95362854 C54.41183642 58.72882416 52.40538142 61.26092177 49.1741333 63.95362854 C44.92491204 63.84513778 42.71187565 60.78891335 39.9241333 57.89112854 C39.03210205 56.97202698 38.1400708 56.05292542 37.2210083 55.10597229 C36.20780518 54.04056213 36.20780518 54.04056213 35.1741333 52.95362854 C29.36521584 57.77230101 24.04347778 62.96619262 18.7366333 68.32862854 C17.90969971 69.16007385 17.08276611 69.99151917 16.23077393 70.84815979 C14.20957799 72.88103894 12.19076995 74.91622817 10.1741333 76.95362854 C11.7588691 80.81691481 14.23370217 83.24239777 17.1819458 86.15675354 C17.66742889 86.63940674 18.15291199 87.12205994 18.65310669 87.61933899 C20.19713196 89.15221416 21.74798154 90.67796858 23.2991333 92.20362854 C24.35037339 93.24483215 25.40115987 94.28649395 26.45147705 95.32862854 C29.02046334 97.87562318 31.59561491 100.41628031 34.1741333 102.95362854 C33.28445986 104.04202628 32.38701756 105.12407462 31.4866333 106.20362854 C30.98776611 106.80690979 30.48889893 107.41019104 29.97491455 108.03175354 C28.1741333 109.95362854 28.1741333 109.95362854 23.1741333 113.95362854 C19.8741333 110.65362854 16.5741333 107.35362854 13.1741333 103.95362854 C9.26352914 105.90893062 6.76770039 108.08406952 3.7578125 111.12944031 C3.22353299 111.66201096 2.68925349 112.19458162 2.13878369 112.74329078 C0.34988118 114.52889928 -1.43177967 116.32156169 -3.21356201 118.11427307 C-4.49449432 119.39576951 -5.77586716 120.67682574 -7.05764771 121.95747375 C-10.53699929 125.43625091 -14.01014473 128.92116543 -17.48222446 132.40719843 C-21.11148935 136.0489555 -24.74640886 139.68505949 -28.3807373 143.32176208 C-35.26239945 150.20964344 -42.13894694 157.10260774 -49.01368022 163.99740398 C-56.8403944 171.84646342 -64.6727801 179.68985284 -72.50565195 187.53276658 C-88.61871754 203.66674415 -104.72463275 219.80784394 -120.8258667 235.95362854 C-121.9313856 235.0177235 -123.03522123 234.07982996 -124.1383667 233.14112854 C-125.06069092 232.35802307 -125.06069092 232.35802307 -126.00164795 231.55909729 C-127.68011349 230.08190385 -129.26468704 228.55323723 -130.8258667 226.95362854 C-133.75816863 228.27483682 -135.81251569 229.70001051 -138.0602417 231.99269104 C-138.92069092 232.86280823 -138.92069092 232.86280823 -139.79852295 233.75050354 C-140.38504639 234.35378479 -140.97156982 234.95706604 -141.5758667 235.57862854 C-142.17785889 236.18964417 -142.77985107 236.80065979 -143.40008545 237.43019104 C-144.87991975 238.93351478 -146.35351346 240.4429771 -147.8258667 241.95362854 C-150.96324824 240.56282329 -153.08061951 238.9434065 -155.49285889 236.51368713 C-156.54349518 235.46282425 -156.54349518 235.46282425 -157.61535645 234.39073181 C-158.36029358 233.63547211 -159.10523071 232.8802124 -159.8727417 232.10206604 C-160.64394348 231.32803436 -161.41514526 230.55400269 -162.2097168 229.7565155 C-164.66983525 227.28520931 -167.12290518 224.80703671 -169.5758667 222.32862854 C-171.24337563 220.65108802 -172.91133902 218.97399909 -174.57977295 217.29737854 C-178.6670904 213.18801935 -182.74864366 209.07300207 -186.8258667 204.95362854 C-185.88480285 203.84579314 -184.94229943 202.73918051 -183.99920654 201.6330719 C-183.47450775 201.01669357 -182.94980896 200.40031525 -182.40921021 199.76525879 C-180.19841392 197.23570951 -177.84186614 194.87481718 -175.4508667 192.51612854 C-174.57688232 191.6511676 -173.70289795 190.78620667 -172.8024292 189.89503479 C-172.15016357 189.25437073 -171.49789795 188.61370667 -170.8258667 187.95362854 C-171.76177174 186.84810964 -172.69966528 185.74427401 -173.6383667 184.64112854 C-174.16043701 184.02624573 -174.68250732 183.41136292 -175.22039795 182.77784729 C-176.69759139 181.09938175 -178.22625801 179.5148082 -179.8258667 177.95362854 C-178.24114598 174.06163162 -175.58733255 171.4403619 -172.65005493 168.53730774 C-172.11748428 168.00302823 -171.58491362 167.46874873 -171.03620446 166.91827893 C-169.25059596 165.12937642 -167.45793355 163.34771557 -165.66522217 161.56593323 C-164.38372573 160.28500092 -163.1026695 159.00362808 -161.82202148 157.72184753 C-158.34324433 154.24249595 -154.85832981 150.76935051 -151.37229681 147.29727077 C-147.73053974 143.66800589 -144.09443575 140.03308638 -140.45773315 136.39875793 C-133.5698518 129.51709579 -126.6768875 122.6405483 -119.78209126 115.76581502 C-111.93303182 107.93910084 -104.08964239 100.10671513 -96.24672866 92.27384329 C-80.11275109 76.1607777 -63.9716513 60.05486249 -47.8258667 43.95362854 C-48.77534229 42.83685362 -49.72611567 41.721182 -50.6774292 40.60597229 C-51.20675049 39.9845636 -51.73607178 39.36315491 -52.28143311 38.72291565 C-54.04252063 36.70543204 -55.89575262 34.80950746 -57.8258667 32.95362854 C-56.41741952 29.73838549 -54.72241884 27.63178986 -52.2008667 25.20362854 C-51.56922607 24.59003479 -50.93758545 23.97644104 -50.2868042 23.34425354 C-49.56364014 22.65589417 -49.56364014 22.65589417 -48.8258667 21.95362854 C-44.96258043 23.53836434 -42.53709747 26.01319741 -39.6227417 28.96144104 C-38.8987619 29.68966568 -38.8987619 29.68966568 -38.16015625 30.43260193 C-36.62728108 31.9766272 -35.10152666 33.52747678 -33.5758667 35.07862854 C-32.53466309 36.12986863 -31.49300129 37.18065511 -30.4508667 38.23097229 C-27.90387206 40.79995858 -25.36321493 43.37511015 -22.8258667 45.95362854 C-17.01694924 41.13495607 -11.69521118 35.94106446 -6.3883667 30.57862854 C-5.56143311 29.74718323 -4.73449951 28.91573792 -3.88250732 28.05909729 C-1.86131139 26.02621814 0.15749665 23.99102891 2.1741333 21.95362854 C0.47827204 18.3205977 -1.56387158 16.00813808 -4.4508667 13.20362854 C-5.26813232 12.40440979 -6.08539795 11.60519104 -6.9274292 10.78175354 C-7.55391357 10.17847229 -8.18039795 9.57519104 -8.8258667 8.95362854 C-7.11455064 5.28764413 -4.5816599 -0.11636022 0 0 Z " fill="#E9EFF1" transform="translate(335.82586669921875,122.04637145996094)"/>
<path d="M0 0 C3.98502372 3.36079177 7.87524598 6.75024675 11.55834961 10.44482422 C12.78883278 11.67542068 12.78883278 11.67542068 14.04417419 12.93087769 C14.90487015 13.79673492 15.7655661 14.66259216 16.65234375 15.5546875 C17.55247696 16.45623566 18.45261017 17.35778381 19.38002014 18.28665161 C21.75072823 20.66198217 24.11924515 23.03945405 26.48669434 25.41802979 C28.91180728 27.85344717 31.33982085 30.28596912 33.76757812 32.71875 C38.51437128 37.47652769 43.25829281 42.2371538 48 47 C46.62792243 50.07678681 45.06507306 52.18280642 42.68441772 54.55609131 C42.00012192 55.24313644 41.31582611 55.93018158 40.61079407 56.63804626 C39.48546516 57.75258934 39.48546516 57.75258934 38.33740234 58.88964844 C37.54707108 59.68027176 36.75673981 60.47089508 35.94245911 61.28547668 C33.32833109 63.89821109 30.70718956 66.50378954 28.0859375 69.109375 C26.27232057 70.91926192 24.45914463 72.72959083 22.64639282 74.54034424 C18.36125966 78.81862071 14.07170349 83.09241301 9.77997172 87.36406636 C4.89336221 92.22831018 0.0124401 97.09824386 -4.86801457 101.96866179 C-14.90569789 111.98544799 -24.95049593 121.99507421 -35 132 C-38.98502372 128.63920823 -42.87524598 125.24975325 -46.55834961 121.55517578 C-47.78883278 120.32457932 -47.78883278 120.32457932 -49.04417419 119.06912231 C-49.90487015 118.20326508 -50.7655661 117.33740784 -51.65234375 116.4453125 C-52.55247696 115.54376434 -53.45261017 114.64221619 -54.38002014 113.71334839 C-56.75072823 111.33801783 -59.11924515 108.96054595 -61.48669434 106.58197021 C-63.91180728 104.14655283 -66.33982085 101.71403088 -68.76757812 99.28125 C-73.51437128 94.52347231 -78.25829281 89.7628462 -83 85 C-81.62792243 81.92321319 -80.06507306 79.81719358 -77.68441772 77.44390869 C-77.00012192 76.75686356 -76.31582611 76.06981842 -75.61079407 75.36195374 C-74.48546516 74.24741066 -74.48546516 74.24741066 -73.33740234 73.11035156 C-72.54707108 72.31972824 -71.75673981 71.52910492 -70.94245911 70.71452332 C-68.32833109 68.10178891 -65.70718956 65.49621046 -63.0859375 62.890625 C-61.27232057 61.08073808 -59.45914463 59.27040917 -57.64639282 57.45965576 C-53.36125966 53.18137929 -49.07170349 48.90758699 -44.77997172 44.63593364 C-39.89336221 39.77168982 -35.0124401 34.90175614 -30.13198543 30.03133821 C-20.09430211 20.01455201 -10.04950407 10.00492579 0 0 Z " fill="#EFA67A" transform="translate(250,215)"/>
<path d="M0 0 C3.12888 1.37240401 5.23177511 3.61894839 7.58526611 6.02418518 C8.11254303 6.55102402 8.63981995 7.07786285 9.18307495 7.6206665 C10.92167606 9.36135527 12.64941386 11.11242368 14.3772583 12.86378479 C15.58157921 14.07370172 16.7865648 15.28295738 17.9921875 16.49157715 C21.16184753 19.67268539 24.32239492 22.86270007 27.48114014 26.05464172 C30.70669128 29.31089407 33.94076354 32.55865866 37.1741333 35.80714417 C43.51584409 42.1810187 49.84796211 48.56433305 56.1741333 54.95362854 C54.41183642 58.72882416 52.40538142 61.26092177 49.1741333 63.95362854 C44.92491204 63.84513778 42.71187565 60.78891335 39.9241333 57.89112854 C38.58608643 56.5124762 38.58608643 56.5124762 37.2210083 55.10597229 C36.54553955 54.39569885 35.8700708 53.68542542 35.1741333 52.95362854 C29.17912333 57.91557709 23.70986293 63.30129094 18.2366333 68.82862854 C17.36200439 69.70776917 16.48737549 70.58690979 15.58624268 71.49269104 C13.44656282 73.64406314 11.30926733 75.79774646 9.1741333 77.95362854 C2.24602606 72.28788805 -3.96790812 65.92329215 -10.2633667 59.57862854 C-11.38748137 58.44948899 -12.51182844 57.32058076 -13.63641357 56.19190979 C-16.36891905 53.44847666 -19.09825679 50.70192869 -21.8258667 47.95362854 C-20.2411309 44.09034227 -17.76629783 41.66485931 -14.8180542 38.75050354 C-14.33257111 38.26785034 -13.84708801 37.78519714 -13.34689331 37.28791809 C-11.80286804 35.75504292 -10.25201846 34.2292885 -8.7008667 32.70362854 C-7.64962661 31.66242493 -6.59884013 30.62076313 -5.54852295 29.57862854 C-2.97953666 27.0316339 -0.40438509 24.49097677 2.1741333 21.95362854 C0.47827204 18.3205977 -1.56387158 16.00813808 -4.4508667 13.20362854 C-5.26813232 12.40440979 -6.08539795 11.60519104 -6.9274292 10.78175354 C-7.55391357 10.17847229 -8.18039795 9.57519104 -8.8258667 8.95362854 C-7.11455064 5.28764413 -4.5816599 -0.11636022 0 0 Z " fill="#D3D5DA" transform="translate(335.82586669921875,122.04637145996094)"/>
<path d="M0 0 C3.03864948 1.35955257 5.13487937 2.88690128 7.48016357 5.23965454 C8.1503804 5.90712204 8.82059723 6.57458954 9.51112366 7.26228333 C10.2354509 7.99380112 10.95977814 8.72531891 11.70605469 9.47900391 C12.47717087 10.24982803 13.24828705 11.02065216 14.04277039 11.81483459 C16.59057438 14.364032 19.13122091 16.92024072 21.671875 19.4765625 C23.43692138 21.24533896 25.20240982 23.01367439 26.96832275 24.78158569 C31.1403491 28.96046828 35.30789848 33.14378094 39.47330117 37.32926309 C44.68207257 42.56259635 49.89776266 47.78901743 55.11328125 53.015625 C64.41441813 62.33821267 73.70938262 71.66692946 83 81 C82.06280291 82.11832809 81.12198826 83.23362511 80.1796875 84.34765625 C79.65616699 84.96906494 79.13264648 85.59047363 78.59326172 86.23071289 C76.59954754 88.44469491 74.39658203 90.23780733 72 92 C70.32737283 90.38113585 68.66204463 88.7547271 67 87.125 C66.071875 86.22007812 65.14375 85.31515625 64.1875 84.3828125 C62 82 62 82 62 80 C61.40238232 79.72742182 60.80476463 79.45484364 60.18903732 79.17400551 C58.05336355 78.02861948 56.67541223 76.92231228 54.97540283 75.21591187 C54.12153236 74.36616539 54.12153236 74.36616539 53.25041199 73.49925232 C52.63829361 72.87994339 52.02617523 72.26063446 51.39550781 71.62255859 C50.74143448 70.96877731 50.08736115 70.31499603 49.41346741 69.6414032 C47.25524486 67.48178862 45.10419064 65.3151788 42.953125 63.1484375 C41.45712191 61.64870384 39.96067631 60.14941147 38.46380615 58.65054321 C34.52699775 54.70610188 30.59623266 50.75569106 26.66668701 46.80401611 C22.65511502 42.77197847 18.63786906 38.74560286 14.62109375 34.71875 C6.74182555 26.81803787 -1.13107125 18.9110091 -9 11 C-7.49053489 7.81913482 -5.92058175 5.70130094 -3.375 3.25 C-2.74335938 2.63640625 -2.11171875 2.0228125 -1.4609375 1.390625 C-0.73777344 0.70226562 -0.73777344 0.70226562 0 0 Z " fill="#E9EEF1" transform="translate(287,144)"/>
<path d="M0 0 C13 13 26 26 39 39 C38.52691406 39.40089844 38.05382812 39.80179687 37.56640625 40.21484375 C32.11819815 44.89839107 27.02642997 49.86885274 22 55 C18.86261846 53.60919475 16.74524719 51.98977796 14.33300781 49.56005859 C13.63258362 48.85948334 12.93215942 48.15890808 12.21051025 47.43710327 C11.46557312 46.68184357 10.72063599 45.92658386 9.953125 45.1484375 C9.18192322 44.37440582 8.41072144 43.60037415 7.6161499 42.80288696 C5.15603144 40.33158077 2.70296152 37.85340817 0.25 35.375 C-1.41750894 33.69745948 -3.08547232 32.02037055 -4.75390625 30.34375 C-8.8412237 26.23439081 -12.92277696 22.11937353 -17 18 C-16.0636169 16.89661782 -15.12563812 15.79458971 -14.18701172 14.69311523 C-13.66485077 14.07927475 -13.14268982 13.46543427 -12.60470581 12.83299255 C-10.23001076 10.12047147 -7.69567399 7.58776807 -5.125 5.0625 C-4.62742188 4.56943359 -4.12984375 4.07636719 -3.6171875 3.56835938 C-2.41379715 2.37654008 -1.20724635 1.18791322 0 0 Z " fill="#D3D5DA" transform="translate(166,309)"/>
<path d="M0 0 C3.12888 1.37240401 5.23177511 3.61894839 7.58526611 6.02418518 C8.11254303 6.55102402 8.63981995 7.07786285 9.18307495 7.6206665 C10.92167606 9.36135527 12.64941386 11.11242368 14.3772583 12.86378479 C15.58157921 14.07370172 16.7865648 15.28295738 17.9921875 16.49157715 C21.16184753 19.67268539 24.32239492 22.86270007 27.48114014 26.05464172 C30.70669128 29.31089407 33.94076354 32.55865866 37.1741333 35.80714417 C43.51584409 42.1810187 49.84796211 48.56433305 56.1741333 54.95362854 C54.41183642 58.72882416 52.40538142 61.26092177 49.1741333 63.95362854 C44.96602451 63.82828062 42.72301841 60.86820883 39.9241333 58.01612854 C39.03210205 57.1202301 38.1400708 56.22433167 37.2210083 55.30128479 C35.1741333 52.95362854 35.1741333 52.95362854 35.1741333 50.95362854 C34.37894287 50.64522034 34.37894287 50.64522034 33.56768799 50.33058167 C30.17592646 48.3793847 27.61362744 45.67818472 24.8772583 42.92237854 C24.28362488 42.33065857 23.68999146 41.7389386 23.07836914 41.12928772 C21.82869612 39.88097273 20.58153338 38.63014031 19.33673096 37.37696838 C17.42405378 35.45354857 15.50090211 33.54106755 13.57647705 31.62940979 C12.36359532 30.41520715 11.15133378 29.20038461 9.9397583 27.98487854 C9.36171448 27.41088318 8.78367065 26.83688782 8.18811035 26.24549866 C4.1741333 22.18356288 4.1741333 22.18356288 4.1741333 19.95362854 C3.61210205 19.71901917 3.0500708 19.48440979 2.4710083 19.24269104 C-0.37222561 17.64699854 -2.30684797 15.66438311 -4.5758667 13.32862854 C-5.37508545 12.51136292 -6.1743042 11.69409729 -6.9977417 10.85206604 C-7.60102295 10.22558167 -8.2043042 9.59909729 -8.8258667 8.95362854 C-7.11455064 5.28764413 -4.5816599 -0.11636022 0 0 Z " fill="#E7EEF1" transform="translate(335.82586669921875,122.04637145996094)"/>
<path d="M0 0 C3.92062976 1.58958297 6.55352665 4.28424359 9.47119141 7.24414062 C10.00500931 7.77766647 10.53882721 8.31119232 11.08882141 8.86088562 C12.84785213 10.62130681 14.59969558 12.38870208 16.3515625 14.15625 C17.57373046 15.38215012 18.79634224 16.60760791 20.01937866 17.8326416 C23.23535754 21.05624947 26.44528722 24.28581605 29.6539917 27.5166626 C32.9219628 30.80507559 36.19558365 34.08785332 39.46875 37.37109375 C45.21644277 43.13792988 50.95919154 48.9096523 56.69839478 54.68493652 C58.13031542 56.12523008 59.5638868 57.5638868 61 59 C59.35 60.32 57.7 61.64 56 63 C52.02473776 61.3993244 49.35979696 58.62856444 46.40527344 55.63232422 C45.85848938 55.08583221 45.31170532 54.53934021 44.74835205 53.97628784 C42.94724351 52.17378907 41.15331753 50.36431604 39.359375 48.5546875 C38.10999505 47.30157633 36.86017199 46.04890681 35.60992432 44.79666138 C32.32413128 41.50324045 29.0443893 38.20385709 25.76586914 34.90319824 C22.41785747 31.53471006 19.06416093 28.1718924 15.7109375 24.80859375 C9.13504704 18.21126824 2.56553484 11.60763017 -4 5 C-2.68 3.35 -1.36 1.7 0 0 Z " fill="#D5D6DB" transform="translate(288,166)"/>
<path d="M0 0 C0.99 0.66 1.98 1.32 3 2 C1.61070112 5.12211193 -0.00867112 7.26929986 -2.40478516 9.6953125 C-3.09955963 10.40284668 -3.79433411 11.11038086 -4.51016235 11.83935547 C-5.2621994 12.59361816 -6.01423645 13.34788086 -6.7890625 14.125 C-7.56631683 14.90891113 -8.34357117 15.69282227 -9.14437866 16.50048828 C-10.79102987 18.15726138 -12.4404046 19.81133138 -14.09228516 21.46289062 C-16.60517143 23.98013702 -19.10164799 26.51290651 -21.59765625 29.046875 C-23.20214117 30.65723084 -24.80757985 32.26663707 -26.4140625 33.875 C-27.15395416 34.6292627 -27.89384583 35.38352539 -28.65615845 36.16064453 C-33.12331968 40.58929086 -37.12783672 43.66040358 -43 46 C-43.66 45.67 -44.32 45.34 -45 45 C-30.15 30.15 -15.3 15.3 0 0 Z " fill="#4C5D7D" transform="translate(166,344)"/>
<path d="M0 0 C5.06623768 4.23816537 9.80038069 8.67408963 14.4375 13.375 C15.07365234 14.01566406 15.70980469 14.65632813 16.36523438 15.31640625 C17.91250332 16.87530879 19.45736492 18.43651416 21 20 C20.34 21.32 19.68 22.64 19 24 C15.11863416 23.44387545 13.37243082 21.72326862 10.671875 18.96484375 C9.87265625 18.15595703 9.0734375 17.34707031 8.25 16.51367188 C7.425 15.66353516 6.6 14.81339844 5.75 13.9375 C4.90953125 13.08349609 4.0690625 12.22949219 3.203125 11.34960938 C1.12852403 9.23964588 -0.93875832 7.12300292 -3 5 C-1.125 1.125 -1.125 1.125 0 0 Z " fill="#5B627C" transform="translate(197,270)"/>
<path d="M0 0 C5.06623768 4.23816537 9.80038069 8.67408963 14.4375 13.375 C15.07365234 14.01566406 15.70980469 14.65632812 16.36523438 15.31640625 C17.91250332 16.87530879 19.45736492 18.43651416 21 20 C20.34 21.32 19.68 22.64 19 24 C15.11863416 23.44387545 13.37243082 21.72326862 10.671875 18.96484375 C9.87265625 18.15595703 9.0734375 17.34707031 8.25 16.51367188 C7.425 15.66353516 6.6 14.81339844 5.75 13.9375 C4.90953125 13.08349609 4.0690625 12.22949219 3.203125 11.34960938 C1.12852403 9.23964588 -0.93875832 7.12300292 -3 5 C-1.125 1.125 -1.125 1.125 0 0 Z " fill="#5A6886" transform="translate(274,193)"/>
<path d="M0 0 C5.06623768 4.23816537 9.80038069 8.67408963 14.4375 13.375 C15.07365234 14.01566406 15.70980469 14.65632812 16.36523438 15.31640625 C17.91250332 16.87530879 19.45736492 18.43651416 21 20 C19.68 21.32 18.36 22.64 17 24 C10.4 17.4 3.8 10.8 -3 4 C-2.01 2.68 -1.02 1.36 0 0 Z " fill="#505D7C" transform="translate(248,219)"/>
<path d="M0 0 C3.36335594 1.45745424 5.54534005 3.31117854 8.109375 5.9140625 C8.86347656 6.67460937 9.61757812 7.43515625 10.39453125 8.21875 C11.17183594 9.0128125 11.94914063 9.806875 12.75 10.625 C13.54277344 11.42679687 14.33554688 12.22859375 15.15234375 13.0546875 C17.10614493 15.03202846 19.05512103 17.01388909 21 19 C20.34 20.32 19.68 21.64 19 23 C15.63664406 21.54254576 13.45465995 19.68882146 10.890625 17.0859375 C10.13652344 16.32539063 9.38242188 15.56484375 8.60546875 14.78125 C7.82816406 13.9871875 7.05085937 13.193125 6.25 12.375 C5.06083984 11.17230469 5.06083984 11.17230469 3.84765625 9.9453125 C1.89385507 7.96797154 -0.05512103 5.98611091 -2 4 C-1.34 2.68 -0.68 1.36 0 0 Z " fill="#4F5C7D" transform="translate(222,245)"/>
<path d="M0 0 C3.21524305 1.40844718 5.32183868 3.10344786 7.75 5.625 C8.67039062 6.57246094 8.67039062 6.57246094 9.609375 7.5390625 C10.29773438 8.26222656 10.29773438 8.26222656 11 9 C10.34 10.32 9.68 11.64 9 13 C6 13 6 13 3.73828125 11.03125 C2.53751953 9.77828125 2.53751953 9.77828125 1.3125 8.5 C0.50425781 7.6646875 -0.30398438 6.829375 -1.13671875 5.96875 C-1.75160156 5.3190625 -2.36648438 4.669375 -3 4 C-2.01 2.68 -1.02 1.36 0 0 Z " fill="#5C6A88" transform="translate(262,205)"/>
<path d="M0 0 C4.13621084 3.3810038 7.81316569 6.66590534 11 11 C9.625 12.5 9.625 12.5 8 14 C6 14 6 14 4.34375 12.35546875 C3.7353125 11.64003906 3.126875 10.92460937 2.5 10.1875 C1.8915625 9.47980469 1.283125 8.77210938 0.65625 8.04296875 C-1 6 -1 6 -3 3 C-2.01 2.01 -1.02 1.02 0 0 Z " fill="#555F7C" transform="translate(211,256)"/>
<path d="M0 0 C3.21524305 1.40844718 5.32183868 3.10344786 7.75 5.625 C8.67039063 6.57246094 8.67039063 6.57246094 9.609375 7.5390625 C10.29773438 8.26222656 10.29773438 8.26222656 11 9 C10.34 10.32 9.68 11.64 9 13 C5.78475695 11.59155282 3.67816132 9.89655214 1.25 7.375 C0.63640625 6.74335938 0.0228125 6.11171875 -0.609375 5.4609375 C-1.29773438 4.73777344 -1.29773438 4.73777344 -2 4 C-1.34 2.68 -0.68 1.36 0 0 Z " fill="#515D7C" transform="translate(236,231)"/>
</svg>
