<svg width="38" height="38" viewBox="0 0 38 38" fill="none" xmlns="http://www.w3.org/2000/svg">
<g id="Group">
<path id="Vector" d="M37.8799 36.0901C37.7399 35.3001 37.5099 34.5401 37.0599 33.8701C36.4699 32.9801 35.7399 32.2301 34.8899 31.6001C33.1399 30.3001 31.2099 29.3201 29.2899 28.3001C28.8299 28.0601 28.3799 27.8301 28.0299 27.4301C27.0299 26.2901 25.9199 25.2801 24.6199 24.5001C24.5299 24.4501 24.5099 24.3701 24.5099 24.2801C24.5099 23.6201 24.5099 22.9501 24.5099 22.2901C24.5099 22.1901 24.5399 22.1301 24.6099 22.0601C24.9299 21.7201 25.2299 21.3701 25.4699 20.9601C26.0599 19.9801 26.4399 18.9101 26.6599 17.7901C26.6899 17.6501 26.7499 17.5701 26.8799 17.5101C27.4999 17.2201 28.0099 16.8001 28.2999 16.1701C28.8099 15.0501 28.9199 13.8901 28.4699 12.7201C28.4099 12.5601 28.4099 12.4201 28.4499 12.2601C28.5299 11.9901 28.6099 11.7201 28.6499 11.4401C28.8899 9.69007 28.9099 7.93007 28.5399 6.19007C27.9899 3.53007 26.4199 1.73007 23.8899 0.780069C22.3299 0.200069 20.6899 6.89365e-05 19.0199 0.0200689C18.3499 6.89365e-05 17.6799 0.050069 17.0199 0.120069C15.8199 0.260069 14.6599 0.520069 13.5499 1.00007C11.9099 1.72007 10.7299 2.92007 9.97986 4.54007C9.49986 5.58007 9.29986 6.70007 9.23986 7.84007C9.15986 9.31007 9.14986 10.7901 9.55986 12.2201C9.57986 12.3001 9.57986 12.3801 9.54986 12.4601C9.13986 13.3601 9.10986 14.2901 9.32986 15.2301C9.56986 16.2701 10.1299 17.0701 11.1499 17.4801C11.2299 17.5101 11.2499 17.5701 11.2599 17.6401C11.3199 17.8701 11.3599 18.1001 11.4299 18.3301C11.8399 19.8001 12.4699 21.1601 13.5899 22.2501C13.6699 22.3201 13.6799 22.4101 13.6799 22.5101C13.6799 23.0501 13.6699 23.5801 13.6799 24.1201C13.6799 24.2401 13.6399 24.2901 13.5499 24.3401C13.1999 24.5301 12.8699 24.7501 12.5599 24.9901C11.5499 25.7701 10.6399 26.6501 9.79986 27.6001C9.65986 27.7601 9.48986 27.8601 9.30986 27.9501C8.83986 28.1801 8.36986 28.4001 7.90986 28.6501C6.97986 29.1501 6.05986 29.6801 5.15986 30.2301C4.11986 30.8701 3.09986 31.5301 2.20986 32.3701C0.749858 33.7401 -0.0301424 35.3701 -0.000142402 37.3701C0.0098576 37.8201 0.399858 38.1001 0.819858 37.9501C1.08986 37.8501 1.22986 37.6301 1.22986 37.2601C1.23986 36.8301 1.26986 36.3901 1.36986 35.9701C1.61986 34.9201 2.19986 34.0401 2.94986 33.2901C3.93986 32.3001 5.12986 31.5901 6.32986 30.8901C7.40986 30.2601 8.51986 29.6701 9.61986 29.0501C9.72986 28.9901 9.75986 29.0601 9.78986 29.1201C10.1099 29.6601 10.5099 30.1601 10.9099 30.6501C11.1799 30.9901 11.4799 31.3001 11.7799 31.6101C11.8499 31.5601 11.9199 31.5101 11.9899 31.4601C12.1699 31.3001 12.3499 31.1501 12.5599 31.0101C12.6399 30.9501 12.7299 30.8901 12.8299 30.8301C13.1399 30.5901 13.4999 30.4201 13.8699 30.3301C13.8899 30.3201 13.9199 30.3201 13.9399 30.3101C13.9099 30.2101 13.9399 30.1301 14.0499 30.0301C14.4199 29.7201 14.7799 29.4101 15.2899 29.3501C15.3399 29.3401 15.3899 29.3401 15.4399 29.3301C15.6599 29.3301 15.8299 29.4001 15.9799 29.5701C16.7399 30.4101 17.5099 31.2501 18.1199 32.2101C18.2399 32.3901 18.3499 32.5801 18.4699 32.7601C18.5899 32.9401 18.7499 33.0601 18.9799 33.0601C19.1799 33.0601 19.3399 32.9801 19.4399 32.7901C19.9499 31.8401 20.6399 31.0201 21.3499 30.2201C21.5199 30.0201 21.7499 29.8601 21.9599 29.7101C22.3799 29.4001 22.8299 29.4201 23.2799 29.6301C23.5699 29.7701 23.8199 29.9601 24.0599 30.1801C24.0699 30.1901 24.0699 30.2001 24.0799 30.2001C24.6999 30.4301 25.3199 30.9201 25.6299 31.4901C25.6799 31.5801 25.7099 31.6601 25.7499 31.7501C25.8099 31.7801 25.8699 31.8101 25.9299 31.8501C26.1099 31.8401 26.2799 31.7901 26.3999 31.6701C27.1399 30.9601 27.7899 30.1601 28.3299 29.2801C28.4099 29.1601 28.4599 29.1401 28.5799 29.2101C29.5099 29.7301 30.4499 30.2301 31.3699 30.7601C32.5399 31.4301 33.7199 32.1101 34.7399 33.0101C35.4099 33.6001 35.9799 34.2701 36.3399 35.1001C36.6499 35.8101 36.7599 36.5701 36.7699 37.3401C36.7699 37.6101 36.8699 37.8301 37.1299 37.9401C37.5499 38.1201 37.9699 37.8301 37.9899 37.3501C38.0099 36.9201 37.9599 36.5101 37.8799 36.0901ZM10.5299 7.03007C10.9599 4.36007 12.4099 2.56007 15.0199 1.74007C15.9399 1.45007 16.8799 1.32007 17.8399 1.27007C18.9199 1.21007 19.9999 1.24007 21.0699 1.35007C22.8099 1.54007 24.4099 2.09007 25.6999 3.31007C26.6799 4.23007 27.1899 5.41007 27.4099 6.72007C27.6499 8.16007 27.6199 9.62007 27.4499 11.0701C27.4399 11.1601 27.4199 11.2501 27.3899 11.3901C27.1199 11.1401 26.9299 10.8701 26.7999 10.5701C26.5799 10.0501 26.5199 9.50007 26.4899 8.95007C26.4399 7.96007 26.4099 6.96007 26.1499 5.99007C25.9099 5.10007 25.4199 4.37007 24.7699 3.74007C24.3499 3.34007 23.8299 3.14007 23.2899 2.97007C22.2399 2.63007 21.1599 2.52007 20.0699 2.49007C18.8099 2.45007 17.5599 2.46007 16.3099 2.63007C15.6799 2.72007 15.0499 2.83007 14.4399 3.03007C13.0199 3.50007 12.2199 4.55007 11.7999 5.93007C11.5899 6.62007 11.5599 7.35007 11.5199 8.07007C11.4899 8.73007 11.4799 9.38007 11.3299 10.0301C11.2199 10.5301 10.9799 10.9501 10.5799 11.3401C10.4699 10.8101 10.4299 10.3101 10.4199 9.82007C10.4099 8.87007 10.3799 7.95007 10.5299 7.03007ZM12.9099 19.1901C12.6299 18.5301 12.4599 17.8401 12.3399 17.1301C12.2899 16.7901 12.0999 16.5901 11.7799 16.5001C10.9499 16.2901 10.5899 15.6801 10.4299 14.9101C10.3299 14.3901 10.3399 13.8601 10.3799 13.3301C10.3899 13.1801 10.4599 13.0801 10.5599 12.9701C10.8799 12.6401 11.2499 12.3601 11.5799 12.0501C12.1799 11.4901 12.4399 10.7701 12.5999 10.0001C12.7299 9.36007 12.7099 8.71007 12.7499 8.06007C12.7899 7.48007 12.7799 6.88007 12.9599 6.32007C13.3699 5.00007 14.2299 4.19007 15.6099 3.95007C16.8399 3.73007 18.0799 3.68007 19.4599 3.68007C20.3899 3.73007 21.4599 3.75007 22.5199 3.99007C24.0199 4.32007 24.8399 5.22007 25.1199 6.74007C25.2599 7.48007 25.2299 8.24007 25.2699 8.99007C25.2999 9.47007 25.3499 9.94007 25.4699 10.4101C25.6599 11.1201 26.0199 11.7201 26.5799 12.2001C26.8199 12.4101 27.0099 12.6501 27.2199 12.8901C27.3599 13.0401 27.4199 13.2301 27.4499 13.4301C27.5599 14.0901 27.5399 14.7401 27.3099 15.3701C27.0799 15.9901 26.6799 16.4201 25.9899 16.5201C25.7599 16.5501 25.6299 16.7201 25.5799 16.9501C25.4899 17.3701 25.4299 17.7901 25.3099 18.2001C24.9599 19.4501 24.4199 20.6001 23.4399 21.5001C23.2199 21.7001 22.9899 21.9001 22.7099 22.0201C22.3099 22.1901 21.9399 22.4201 21.5899 22.6801C20.9799 23.1101 20.3099 23.3201 19.5699 23.3401C18.9899 23.3501 18.4099 23.3701 17.8299 23.3001C17.2499 23.2301 16.7399 23.0201 16.2599 22.6901C15.8999 22.4401 15.5499 22.1901 15.1399 22.0301C14.9799 21.9601 14.8399 21.8601 14.7699 21.6901C14.7099 21.5701 14.6199 21.4901 14.4799 21.4501C14.3299 21.4101 14.2199 21.3301 14.1199 21.2201C13.5999 20.6201 13.2199 19.9201 12.9099 19.1901ZM14.7099 28.2501C13.8999 28.5201 13.2899 29.0601 12.7199 29.6701C12.5899 29.8101 12.4699 29.9601 12.3399 30.1001C12.2799 30.1701 12.2399 30.1901 12.1599 30.1201C11.6499 29.6101 11.1999 29.0701 10.8399 28.4401C10.7899 28.3501 10.7799 28.2901 10.8499 28.2001C11.5699 27.3601 12.3899 26.6201 13.2499 25.9301C13.3499 25.8501 13.3999 25.8401 13.4399 25.9801C13.6799 26.7701 14.1499 27.4301 14.6599 28.0601C14.6899 28.0901 14.7199 28.1301 14.7399 28.1601C14.7499 28.1701 14.7499 28.1801 14.7499 28.1901C14.7699 28.2401 14.7399 28.2401 14.7099 28.2501ZM22.2999 27.3901C21.4299 28.3901 20.4999 29.3401 19.6799 30.3901C19.4799 30.6501 19.2799 30.9201 19.0899 31.1901C19.0199 31.2801 18.9999 31.3301 18.9099 31.2001C18.5599 30.6701 18.1399 30.2001 17.7199 29.7301C17.5899 29.5801 17.4699 29.4301 17.4099 29.2301C17.3499 29.0501 17.2099 28.9101 17.0699 28.8001C16.4399 28.3301 15.9799 27.7101 15.4899 27.1101C15.2399 26.8101 14.9999 26.5101 14.8099 26.1601C14.7199 26.0001 14.6499 25.8401 14.5999 25.6701C14.5299 25.4601 14.4999 25.2601 14.6999 25.0801C14.8499 24.9501 14.8699 24.7501 14.8699 24.5501C14.8699 24.1301 14.8799 23.7101 14.8899 23.2901C14.8899 23.1201 14.9499 23.1101 15.0799 23.1901C15.4499 23.4301 15.7799 23.7201 16.1699 23.9301C16.8299 24.2801 17.5399 24.4401 18.2799 24.4801C19.1499 24.5301 20.0099 24.5101 20.8699 24.3101C21.4399 24.1801 21.9399 23.9101 22.4099 23.5601C22.6299 23.4001 22.8499 23.2501 23.0999 23.1501C23.2399 23.0901 23.3099 23.0901 23.2899 23.2701C23.2799 23.4501 23.2899 23.6301 23.2899 23.8901C23.2699 24.2901 23.3099 24.7601 23.4499 25.2301C23.5199 25.4501 23.4299 25.6601 23.3399 25.8601C23.0899 26.4401 22.6999 26.9201 22.2999 27.3901ZM27.2699 28.5901C26.8899 29.1901 26.4199 29.7201 25.9599 30.2501C25.8599 30.3701 25.8099 30.2901 25.7599 30.2201C25.4499 29.8201 25.0999 29.4701 24.7199 29.1301C24.2999 28.7501 23.8299 28.4801 23.2799 28.3301C23.0699 28.2701 23.0699 28.2701 23.2199 28.1001C23.7599 27.4601 24.2699 26.8001 24.5399 25.9901C24.5899 25.8301 24.6599 25.9101 24.7299 25.9701C25.4799 26.5601 26.1599 27.2201 26.8299 27.9001C26.9599 28.0401 27.0999 28.1701 27.2299 28.3101C27.2699 28.3601 27.3099 28.4101 27.3399 28.4801C27.3099 28.5101 27.2899 28.5501 27.2699 28.5901Z" fill="#BFBFBF"/>
</g>
</svg>
