<svg width="60" height="60" viewBox="0 0 60 60" fill="none" xmlns="http://www.w3.org/2000/svg">
<g clip-path="url(#clip0_386_374)">
<path d="M60.0004 30.3673C59.9153 30.4071 59.9153 30.4996 59.8785 30.5682C59.6324 31.0286 59.2589 31.2955 58.7287 31.2961C55.4055 31.2992 52.0822 31.301 48.7589 31.2949C48.0401 31.2937 47.4934 30.7114 47.4971 29.9927C47.5014 29.2745 48.0506 28.7051 48.7736 28.7039C52.0865 28.699 55.3999 28.7008 58.7128 28.7027C59.3918 28.7027 59.7646 29.1122 60.0004 29.6933V30.3667V30.3673Z" fill="white"/>
<path d="M29.6941 60C28.957 59.7214 28.6864 59.19 28.6925 58.4051C28.7176 55.2129 28.7017 52.0206 28.7041 48.8278C28.7041 48.1843 29.08 47.689 29.6678 47.5365C30.2457 47.3871 30.8445 47.6394 31.1366 48.1524C31.2725 48.3918 31.3006 48.6496 31.3 48.9196C31.2976 52.0812 31.2835 55.2435 31.3086 58.4051C31.3147 59.1906 31.0435 59.7214 30.3064 59.9994H29.6941V60Z" fill="white"/>
<path d="M30.3672 0C30.4241 0.0967347 30.5374 0.100408 30.6225 0.150612C31.0504 0.404694 31.2959 0.769592 31.2966 1.27347C31.299 4.58633 31.3008 7.89918 31.2953 11.212C31.2941 11.9541 30.721 12.5076 29.9919 12.5039C29.2743 12.4996 28.7068 11.9541 28.7055 11.2267C28.6994 7.90347 28.7 4.58082 28.7055 1.25755C28.7068 0.593265 29.1237 0.230816 29.6937 0.000612245H30.3672V0Z" fill="white"/>
<path d="M-0.000364318 29.6939C0.279432 28.9353 0.831677 28.6849 1.62331 28.6916C4.79351 28.718 7.96372 28.7008 11.1345 28.7033C11.936 28.7033 12.4998 29.2402 12.5035 29.992C12.5072 30.709 11.9605 31.2827 11.2423 31.2955C10.6307 31.3065 10.019 31.298 9.40739 31.298C6.84882 31.298 4.28964 31.2765 1.73106 31.3108C0.936371 31.3212 0.335758 31.1253 -0.000976562 30.3673V29.6939H-0.000364318Z" fill="white"/>
<path d="M14.973 28.4602C14.9859 26.588 15.9961 23.4912 18.0581 20.7496C18.2302 20.5212 18.2161 20.4055 18.0171 20.2071C13.113 15.3159 8.21628 10.4173 3.3177 5.52C2.4324 4.63469 2.66199 3.27918 3.78056 2.87082C4.44362 2.62898 5.01852 2.81204 5.51138 3.30612C7.17546 4.97449 8.8426 6.64041 10.5091 8.30633C13.7332 11.531 16.9604 14.7527 20.1777 17.9841C20.3779 18.1849 20.4851 18.1922 20.7165 18.0159C24.9967 14.752 29.7544 13.8141 34.8293 15.5957C40.4197 17.558 43.762 21.6367 44.8028 27.4653C45.5779 31.8086 44.5334 35.7857 41.8861 39.3257C41.7385 39.5235 41.8108 39.6122 41.9461 39.7475C46.7669 44.5641 51.5846 49.3831 56.403 54.2014C56.504 54.3024 56.605 54.4035 56.7055 54.5051C57.3746 55.1816 57.4083 56.1545 56.7832 56.7778C56.1544 57.4047 55.1938 57.3851 54.5124 56.7086C53.0859 55.2931 51.6685 53.8684 50.2475 52.4473C46.7706 48.971 43.2918 45.4959 39.8216 42.0129C39.622 41.812 39.5155 41.7992 39.2871 41.9822C33.4867 46.6463 25.0732 46.2637 19.6959 41.1012C16.6555 38.1827 14.954 34.192 14.9736 28.4602H14.973ZM31.0677 42.6239C32.7667 42.6122 35.2469 41.7594 37.4577 40.1008C37.6763 39.9367 37.6573 39.851 37.4767 39.671C31.7804 33.9839 26.0889 28.2918 20.3969 22.6004C20.1281 22.3316 20.1232 22.3292 19.9028 22.6506C17.8499 25.6439 17.1483 28.9286 17.8224 32.4931C18.9275 38.3357 24.0881 42.6196 31.0677 42.6239ZM30.0024 17.3737C27.2357 17.3847 24.7561 18.2412 22.5459 19.8992C22.372 20.0296 22.2997 20.108 22.4993 20.3069C28.2189 26.0143 33.9324 31.7284 39.641 37.4473C39.8369 37.6433 39.9159 37.6163 40.0622 37.4045C42.205 34.2992 42.9128 30.8957 42.1108 27.2131C40.8587 21.4665 35.7875 17.3688 30.0024 17.3743V17.3737Z" fill="white"/>
<path d="M44.9834 20.4404C44.9932 20.092 45.21 19.7131 45.644 19.462C47.673 18.289 49.702 17.1159 51.7316 15.9435C52.5612 15.4641 53.3859 14.9761 54.2234 14.512C54.7995 14.1931 55.4859 14.3424 55.8783 14.8365C56.2628 15.3208 56.2481 16.0169 55.8465 16.5024C55.74 16.631 55.6071 16.7222 55.4657 16.8043C52.6426 18.4359 49.8214 20.0718 46.994 21.6967C46.0524 22.238 44.9779 21.6373 44.9834 20.4404Z" fill="white"/>
<path d="M15.0144 39.6202C15.0059 39.9288 14.7677 40.3016 14.3244 40.5569C12.3028 41.7227 10.283 42.892 8.26261 44.0596C7.45078 44.5286 6.642 45.0024 5.82649 45.4653C5.36302 45.7286 4.88669 45.7335 4.43486 45.4427C3.99343 45.158 3.8018 44.7343 3.85139 44.212C3.89241 43.7773 4.10914 43.4406 4.48629 43.2227C7.33567 41.5745 10.1826 39.9233 13.0393 38.2886C13.9644 37.759 15.0212 38.3761 15.0144 39.6202Z" fill="white"/>
<path d="M20.4225 15.0159C20.0888 15.0067 19.7104 14.7857 19.4606 14.3541C18.6488 12.952 17.8388 11.5482 17.0282 10.1455C16.228 8.76 15.4309 7.37265 14.6245 5.99082C14.3882 5.58551 14.2474 5.17163 14.4213 4.71184C14.6098 4.21163 14.9711 3.90551 15.5098 3.85286C16.0841 3.79714 16.52 4.03469 16.8084 4.53367C17.6962 6.06857 18.5815 7.60531 19.468 9.14082C20.2168 10.4382 20.9711 11.7331 21.7119 13.0347C22.2353 13.9537 21.6262 15.0178 20.4225 15.0159Z" fill="white"/>
<path d="M39.4013 15.0171C38.3788 15.0159 37.7684 13.9653 38.2803 13.0537C38.9433 11.8714 39.6297 10.7027 40.3074 9.52898C41.2754 7.85204 42.2427 6.17449 43.2156 4.50061C43.5125 3.99 44.0691 3.74816 44.6225 3.86571C45.1772 3.98326 45.5856 4.44 45.6486 5.01918C45.6811 5.31367 45.6046 5.58612 45.4582 5.83898C43.8229 8.67184 42.187 11.5047 40.5505 14.3369C40.2952 14.779 39.9137 15.0104 39.4013 15.0165V15.0171Z" fill="white"/>
<path d="M15.7698 56.1563C14.62 56.1551 14.0255 55.0867 14.5472 54.158C15.1012 53.1716 15.6743 52.1963 16.24 51.2167C17.3157 49.3549 18.3896 47.4918 19.4702 45.6331C19.78 45.0998 20.3482 44.8733 20.9384 45.0202C21.4692 45.1524 21.8537 45.6202 21.9014 46.1914C21.929 46.522 21.8096 46.8098 21.6486 47.0884C20.2961 49.4259 18.9443 51.7641 17.5925 54.1016C17.3121 54.5871 17.039 55.0769 16.747 55.5551C16.499 55.961 16.1157 56.1465 15.7698 56.1563Z" fill="white"/>
<path d="M39.4063 44.9835C39.9353 44.9871 40.3106 45.2418 40.5708 45.6924C41.8687 47.9437 43.1685 50.1943 44.4671 52.4449C44.8032 53.0278 45.1467 53.6063 45.4736 54.1941C45.8373 54.848 45.6322 55.6237 45.0163 55.9806C44.3808 56.3492 43.5953 56.1502 43.2145 55.4945C41.5669 52.6567 39.923 49.8165 38.2914 46.9696C37.76 46.042 38.3704 44.9804 39.4063 44.9835Z" fill="white"/>
<path d="M15.0198 20.4257C15.0088 21.6324 13.9496 22.2294 13.0386 21.7133C11.6733 20.9394 10.319 20.1459 8.95985 19.3604C7.49475 18.5143 6.02842 17.6712 4.56577 16.8208C3.86475 16.4137 3.64189 15.6557 4.01475 14.992C4.3772 14.3473 5.17128 14.1569 5.87964 14.5641C7.92026 15.7371 9.9572 16.9182 11.9954 18.0961C12.7809 18.5498 13.5664 19.0035 14.3507 19.4584C14.7939 19.7155 15.0162 20.1024 15.0198 20.4251V20.4257Z" fill="white"/>
<path d="M44.9834 39.4053C44.9834 38.3816 46.0236 37.7724 46.9438 38.2769C47.7832 38.738 48.6048 39.232 49.4344 39.7108C51.4377 40.868 53.4403 42.0263 55.4454 43.1798C55.8446 43.4094 56.095 43.7357 56.1458 44.1931C56.2022 44.6994 56.0277 45.1231 55.6065 45.4157C55.1663 45.7212 54.6875 45.7482 54.2191 45.4867C53.4361 45.0496 52.664 44.5929 51.8877 44.1447C49.822 42.9527 47.7569 41.76 45.6912 40.5686C45.2412 40.309 44.9852 39.9343 44.9834 39.4047V39.4053Z" fill="white"/>
</g>
<defs>
<clipPath id="clip0_386_374">
<rect width="60" height="60" fill="white"/>
</clipPath>
</defs>
</svg>
