<svg width="56" height="56" viewBox="0 0 56 56" fill="none" xmlns="http://www.w3.org/2000/svg">
<rect width="56" height="56" rx="28" fill="#7666EA"/>
<path fill-rule="evenodd" clip-rule="evenodd" d="M23.4705 34.66C22.9405 34.66 22.5205 35.09 22.5205 35.61C22.5205 36.14 22.9505 36.56 23.4705 36.56C24.0005 36.56 24.4205 36.13 24.4205 35.61C24.4205 35.08 23.9905 34.66 23.4705 34.66Z" fill="white"/>
<path fill-rule="evenodd" clip-rule="evenodd" d="M18.7 33.71C18.17 33.71 17.75 34.14 17.75 34.66C17.75 35.19 18.18 35.61 18.7 35.61C19.23 35.61 19.65 35.18 19.65 34.66C19.65 34.14 19.22 33.71 18.7 33.71Z" fill="white"/>
<path fill-rule="evenodd" clip-rule="evenodd" d="M21.5506 29.89C21.0206 29.89 20.6006 30.32 20.6006 30.84C20.6006 31.37 21.0306 31.79 21.5506 31.79C22.0806 31.79 22.5006 31.36 22.5006 30.84C22.5106 30.32 22.0806 29.89 21.5506 29.89Z" fill="white"/>
<path fill-rule="evenodd" clip-rule="evenodd" d="M25.3807 38.47C24.8507 38.47 24.4307 38.9 24.4307 39.42C24.4307 39.95 24.8607 40.37 25.3807 40.37C25.9107 40.37 26.3307 39.94 26.3307 39.42C26.3307 38.9 25.9007 38.47 25.3807 38.47Z" fill="white"/>
<path fill-rule="evenodd" clip-rule="evenodd" d="M20.6102 37.52C20.0802 37.52 19.6602 37.95 19.6602 38.47C19.6602 39 20.0902 39.42 20.6102 39.42C21.1402 39.42 21.5602 38.99 21.5602 38.47C21.5602 37.95 21.1302 37.52 20.6102 37.52Z" fill="white"/>
<path fill-rule="evenodd" clip-rule="evenodd" d="M32.0506 33.7C31.5206 33.7 31.1006 34.13 31.1006 34.65C31.1006 35.18 31.5306 35.6 32.0506 35.6C32.5806 35.6 33.0006 35.17 33.0006 34.65C33.0006 34.13 32.5706 33.7 32.0506 33.7Z" fill="white"/>
<path fill-rule="evenodd" clip-rule="evenodd" d="M30.1404 37.51C29.6104 37.51 29.1904 37.94 29.1904 38.46C29.1904 38.98 29.6204 39.41 30.1404 39.41C30.6704 39.41 31.0904 38.98 31.0904 38.46C31.1004 37.94 30.6704 37.51 30.1404 37.51Z" fill="white"/>
<path fill-rule="evenodd" clip-rule="evenodd" d="M26.3201 30.84C25.7901 30.84 25.3701 31.27 25.3701 31.79C25.3701 32.31 25.8001 32.74 26.3201 32.74C26.8501 32.74 27.2701 32.31 27.2701 31.79C27.2801 31.27 26.8501 30.84 26.3201 30.84Z" fill="white"/>
<path fill-rule="evenodd" clip-rule="evenodd" d="M28.2303 33.7C27.7003 33.7 27.2803 34.13 27.2803 34.65C27.2803 35.18 27.7103 35.6 28.2303 35.6C28.7603 35.6 29.1803 35.17 29.1803 34.65C29.1903 34.13 28.7603 33.7 28.2303 33.7Z" fill="white"/>
<path fill-rule="evenodd" clip-rule="evenodd" d="M42.3402 26.13C41.0102 24.36 38.3702 24.34 37.0102 26.08L33.9702 29.99V15.12C33.9702 13.28 32.4802 11.78 30.6302 11.78C30.1202 11.78 29.6302 11.9 29.2002 12.1C29.1202 10.33 27.6602 8.92 25.8702 8.92C24.0802 8.92 22.6202 10.33 22.5402 12.1C22.1102 11.89 21.6202 11.78 21.1102 11.78C19.2702 11.78 17.7702 13.27 17.7702 15.12V17.83C17.3202 17.62 16.8402 17.51 16.3302 17.51C14.4902 17.51 12.9902 19 12.9902 20.85V34.86C12.9902 41.61 18.4602 47.08 25.2102 47.08C29.4802 47.08 33.4402 44.85 35.6602 41.2L42.5302 29.89C43.2402 28.71 43.1602 27.23 42.3402 26.13ZM40.8902 28.89L34.0202 40.2C32.1502 43.28 28.8102 45.16 25.2002 45.16C19.5002 45.16 14.8902 40.54 14.8902 34.85V20.85C14.8902 20.06 15.5302 19.42 16.3202 19.42C17.1102 19.42 17.7502 20.06 17.7502 20.85V29.07H19.6602V15.12C19.6602 14.33 20.3002 13.69 21.0902 13.69C21.8802 13.69 22.5202 14.33 22.5202 15.12V27.04H24.4302V12.26C24.4302 11.47 25.0702 10.83 25.8602 10.83C26.6502 10.83 27.2902 11.47 27.2902 12.26V27.04H29.2002V15.12C29.2002 14.33 29.8402 13.69 30.6302 13.69C31.4202 13.69 32.0602 14.33 32.0602 15.12V29.98C32.0602 31.8 34.3602 32.58 35.4702 31.15L38.5102 27.24C39.1002 26.49 40.2402 26.5 40.8102 27.26C41.1702 27.75 41.2002 28.39 40.8902 28.89Z" fill="white"/>
</svg>
