<svg width="56" height="56" viewBox="0 0 56 56" fill="none" xmlns="http://www.w3.org/2000/svg">
<path d="M24.1111 40.4444C23.7393 40.4444 23.3979 40.575 23.1303 40.7926C22.8144 39.7689 22.1654 38.8268 21.4365 37.9165C20.8994 37.2459 19.9204 37.1376 19.2498 37.6746C18.5792 38.2118 18.471 39.1907 19.008 39.8613C19.9825 41.078 20.2123 41.6817 20.2219 42.0714C20.23 42.3999 20.0832 42.9512 19.0711 44.0648C18.4932 44.7006 18.5402 45.6845 19.176 46.2622C19.8117 46.8401 20.7956 46.7931 21.3733 46.1574C22.209 45.2379 22.8814 44.2904 23.1745 43.2421C23.4351 43.4389 23.7594 43.5556 24.1111 43.5556H31.8889C32.2406 43.5556 32.5649 43.4389 32.8255 43.2421C33.1186 44.2904 33.791 45.2379 34.6267 46.1574C35.2044 46.7931 36.1883 46.8401 36.824 46.2622C37.4598 45.6845 37.5068 44.7006 36.9289 44.0648C35.9168 42.9512 35.77 42.3999 35.7781 42.0714C35.7877 41.6817 36.0175 41.078 36.992 39.8613C37.529 39.1907 37.4208 38.2118 36.7502 37.6746C36.0796 37.1376 35.1006 37.2459 34.5635 37.9165C33.8346 38.8268 33.1856 39.7689 32.8697 40.7926C32.6021 40.575 32.2607 40.4444 31.8889 40.4444H24.1111Z" fill="white"/>
<path d="M12.0444 26.9892C11.8591 28.1367 12.6376 29.2373 13.7002 29.9177C14.8104 30.6289 16.3934 31.0176 18.2576 30.7424C20.1958 30.4564 21.5732 29.381 22.3852 28.1518C23.1697 26.9642 23.4926 25.5184 23.1322 24.447C23.0476 24.1953 22.8404 24.0041 22.5826 23.94C22.3249 23.8761 22.0522 23.9479 21.8596 24.1309C19.066 26.7826 15.9113 27.4341 13.083 26.3839C12.8648 26.3029 12.6218 26.3239 12.4206 26.4412C12.2195 26.5583 12.0815 26.7594 12.0444 26.9892Z" fill="white"/>
<path d="M43.2735 26.9892C43.4586 28.1367 42.6802 29.2373 41.6176 29.9177C40.5073 30.6289 38.9245 31.0176 37.0602 30.7424C35.1221 30.4564 33.7447 29.381 32.9327 28.1518C32.148 26.9642 31.8251 25.5184 32.1855 24.447C32.2703 24.1953 32.4775 24.0041 32.7353 23.94C32.993 23.8761 33.2657 23.9479 33.4583 24.1309C36.2519 26.7826 39.4064 27.4341 42.2349 26.3839C42.4531 26.3029 42.6961 26.3239 42.8972 26.4412C43.0984 26.5583 43.2364 26.7594 43.2735 26.9892Z" fill="white"/>
<path fill-rule="evenodd" clip-rule="evenodd" d="M56 28C56 43.4639 43.4639 56 28 56C12.5361 56 0 43.4639 0 28C0 12.5361 12.5361 0 28 0C43.4639 0 56 12.5361 56 28ZM52.8889 28C52.8889 41.7458 41.7458 52.8889 28 52.8889C14.2542 52.8889 3.11111 41.7458 3.11111 28C3.11111 14.2542 14.2542 3.11111 28 3.11111C41.7458 3.11111 52.8889 14.2542 52.8889 28Z" fill="white"/>
</svg>
