<svg width="40" height="40" viewBox="0 0 40 40" fill="none" xmlns="http://www.w3.org/2000/svg">
<g id="perdida-extremidades">
<path id="Vector" fill-rule="evenodd" clip-rule="evenodd" d="M17.3204 2.7C17.4104 2.29 17.7804 2 18.2004 2H29.4504C29.7104 2 29.9604 2.11 30.1304 2.31C30.3004 2.51 30.3804 2.76 30.3404 3.02C29.8604 6.62 27.7304 10.36 25.8004 13.15C24.8204 14.56 23.8804 15.74 23.1804 16.58C22.9004 16.91 22.6604 17.19 22.4704 17.4L23.1704 18.52C24.0404 19.91 24.4704 21.54 24.3904 23.18L24.0604 30.48L25.4404 32.09C26.3304 33.13 26.5404 34.58 25.9904 35.83C25.1704 37.67 22.9804 38.46 21.1704 37.56L21.1204 37.53C20.6004 37.27 20.0004 37.18 19.4304 37.29L15.8204 37.95C15.6604 37.99 15.5004 38 15.3404 38H12.3504C10.8604 38 9.65039 36.79 9.65039 35.3V34.4C9.65039 33.9 10.0504 33.5 10.5504 33.5H13.0804L17.9604 31.62L14.5004 21.6C14.2704 20.94 14.1504 20.24 14.1504 19.54V17.45C14.1504 16.98 14.2004 16.52 14.3004 16.06L17.3204 2.7ZM20.6904 16.68L20.7104 16.66C20.7204 16.65 20.7404 16.63 20.7704 16.6C20.8204 16.55 20.9004 16.46 20.9904 16.35C21.1804 16.13 21.4604 15.82 21.8004 15.41C22.4804 14.6 23.3904 13.46 24.3204 12.11C26.0104 9.67 27.7204 6.65 28.3704 3.79H18.9204L16.0604 16.45C15.9904 16.78 15.9504 17.11 15.9504 17.44V19.53C15.9504 20.03 16.0304 20.53 16.2004 21L19.9504 31.84C20.1104 32.3 19.8804 32.8 19.4204 32.97L13.5704 35.22C13.4704 35.26 13.3604 35.28 13.2504 35.28H11.4504C11.4504 35.78 11.8504 36.18 12.3504 36.18H15.3404C15.3904 36.18 15.4504 36.18 15.5004 36.17L19.1104 35.51C20.0704 35.34 21.0604 35.48 21.9304 35.91L21.9804 35.94C22.8704 36.38 23.9504 36 24.3504 35.09C24.6204 34.48 24.5204 33.76 24.0804 33.25L22.4704 31.37C22.3204 31.2 22.2404 30.97 22.2504 30.74L22.6004 23.08C22.6604 21.8 22.3304 20.54 21.6504 19.45L20.5904 17.75C20.3704 17.43 20.4104 16.98 20.6904 16.68Z" fill="white"/>
</g>
</svg>
