<svg width="40" height="40" viewBox="0 0 40 40" fill="none" xmlns="http://www.w3.org/2000/svg">
<g id="perdida-capacidad-auditiva">
<path id="Vector" d="M12.1504 14.41C12.1504 8.33 17.0704 3.41 23.1504 3.41C29.2304 3.41 34.1504 8.33 34.1504 14.41C34.1504 18.22 32.2204 21.57 29.2704 23.55C26.7704 25.23 24.1504 27.86 24.1504 31.32V31.41C24.1504 34.72 21.4604 37.41 18.1504 37.41C14.8404 37.41 12.1504 34.72 12.1504 31.41V29.41H10.1504V31.41C10.1504 35.83 13.7304 39.41 18.1504 39.41C22.5704 39.41 26.1504 35.83 26.1504 31.41V31.32C26.1504 28.92 28.0204 26.8 30.3904 25.21C33.8604 22.88 36.1504 18.91 36.1504 14.41C36.1504 7.23 30.3304 1.41 23.1504 1.41C15.9704 1.41 10.1504 7.23 10.1504 14.41H12.1504Z" fill="white"/>
<path id="Vector_2" d="M24.7905 7.59999C23.1705 7.20999 21.4605 7.40999 19.9805 8.16999L20.8905 9.94999C21.9505 9.40999 23.1705 9.26999 24.3305 9.53999C25.4905 9.81999 26.5105 10.5 27.2105 11.46C27.9105 12.42 28.2405 13.6 28.1505 14.79C28.0605 15.98 27.5405 17.09 26.7005 17.93L28.1105 19.34C29.2905 18.16 30.0105 16.6 30.1405 14.94C30.2705 13.28 29.8005 11.62 28.8205 10.28C27.8405 8.93999 26.4105 7.98999 24.7905 7.59999Z" fill="white"/>
<path id="Vector_3" d="M9.7402 21.41L4.4502 16.12L5.8602 14.71L11.1502 20L16.4402 14.71L17.8502 16.12L12.5602 21.41L17.8502 26.7L16.4402 28.11L11.1502 22.82L5.8602 28.11L4.4502 26.7L9.7402 21.41Z" fill="white"/>
</g>
</svg>
