<svg width="40" height="40" viewBox="0 0 40 40" fill="#0000" xmlns="http://www.w3.org/2000/svg">
<path d="M29.0999 26.15C27.6799 27.46 26.1799 28.58 24.5799 29.57C22.2399 31.02 19.7099 32.03 17.0599 32.77C15.5299 33.2 13.9799 33.49 12.4099 33.68C12.1899 33.71 12.1999 33.71 12.3199 33.89C13.2799 35.35 14.5299 36.48 16.1199 37.21C17.1599 37.69 18.2499 38 19.3999 38.04C19.6099 38.05 19.8299 38.06 20.0399 38.09C20.3799 38.14 20.6099 38.41 20.5899 38.72C20.5699 39.03 20.2899 39.27 19.9399 39.28C19.2399 39.28 18.5599 39.19 17.8799 39.04C15.8999 38.63 14.1699 37.72 12.7599 36.28C11.1399 34.63 10.0999 32.67 9.76992 30.35C9.69992 29.82 9.66992 29.29 9.66992 28.75C9.66992 22.92 9.66992 17.09 9.66992 11.26C9.66992 9.66002 9.95992 8.12002 10.6599 6.67002C11.3999 5.13002 12.4399 3.84002 13.7999 2.79002C15.0799 1.80002 16.5099 1.21002 18.0799 0.890019C18.6699 0.770019 19.2699 0.730019 19.8599 0.700019C20.0999 0.690019 20.3299 0.750019 20.4699 0.960019C20.5999 1.15002 20.6399 1.35002 20.5299 1.56002C20.4199 1.77002 20.2499 1.87002 20.0199 1.89002C19.3999 1.93002 18.7799 1.94002 18.1699 2.06002C16.8599 2.33002 15.6799 2.89002 14.5999 3.67002C12.6699 5.07002 11.5399 6.99002 11.0299 9.29002C10.9299 9.75002 10.8899 10.23 10.8899 10.7C10.8899 12.25 10.8899 13.79 10.8799 15.34C10.8799 15.48 10.9299 15.58 11.0199 15.68C12.2799 16.99 13.6499 18.14 15.1899 19.12C16.5399 19.98 17.9299 20.77 19.3899 21.4C19.9999 21.68 19.9999 21.67 20.6199 21.4C22.3899 20.63 24.0799 19.69 25.6499 18.56C26.8399 17.71 27.9799 16.79 28.9799 15.7C29.0699 15.6 29.1199 15.5 29.1099 15.36C29.0999 13.85 29.1199 12.33 29.0999 10.82C29.0499 8.18002 28.0099 5.98002 26.0699 4.21002C25.0099 3.25002 23.7699 2.62002 22.3999 2.22002C22.2099 2.16002 22.0299 2.10002 21.9199 1.93002C21.7899 1.72002 21.7899 1.46002 21.9199 1.27002C22.0599 1.06002 22.3199 0.970019 22.5899 1.04002C22.8999 1.12002 23.2199 1.22002 23.5199 1.33002C25.8599 2.19002 27.6499 3.71002 28.9099 5.86002C29.8599 7.49002 30.3199 9.26002 30.3199 11.14C30.3199 17.03 30.3299 22.92 30.3199 28.81C30.3099 31.75 29.2899 34.29 27.1899 36.37C26.5299 37.02 25.7699 37.53 24.9699 37.99C24.2699 38.39 23.5199 38.65 22.7599 38.89C22.6699 38.92 22.5799 38.94 22.4899 38.95C22.1599 39 21.9099 38.84 21.8299 38.52C21.7499 38.23 21.8899 37.95 22.1999 37.84C22.5199 37.72 22.8499 37.63 23.1599 37.51C25.2099 36.73 26.8299 35.42 27.9099 33.5C28.6999 32.11 29.1099 30.6 29.0999 28.99C29.0999 28.12 29.0999 27.24 29.0999 26.37C29.0999 26.31 29.0999 26.25 29.0999 26.15ZM18.3999 22.26C15.6199 21 13.1399 19.35 10.8999 17.28C10.8899 17.35 10.8899 17.37 10.8899 17.4C10.8899 19.47 10.8899 21.55 10.8899 23.62C10.8899 23.77 10.9399 23.78 11.0699 23.77C11.6499 23.71 12.2199 23.65 12.7999 23.6C13.1799 23.57 13.4399 23.8 13.4799 24.15C13.5099 24.43 13.2899 24.7 12.9399 24.76C12.3299 24.87 11.7199 24.95 11.0999 24.96C10.9299 24.96 10.8899 25.01 10.8899 25.17C10.8999 26.39 10.9099 27.61 10.8899 28.83C10.8699 30.07 11.0899 31.25 11.5599 32.4C11.6199 32.54 11.6899 32.58 11.8299 32.56C12.4199 32.47 13.0199 32.41 13.6099 32.31C15.9499 31.93 18.2199 31.29 20.3899 30.34C22.8699 29.26 25.1999 27.92 27.2699 26.15C27.8699 25.63 28.4799 25.13 29.0199 24.54C29.0899 24.46 29.1299 24.39 29.1299 24.28C29.1299 22.03 29.1299 19.77 29.1199 17.52C29.1199 17.46 29.1499 17.39 29.0799 17.33C28.3999 17.97 27.6899 18.58 26.9399 19.13C25.9499 19.86 24.9299 20.55 23.8599 21.16C21.4999 22.5 18.9899 23.45 16.3699 24.11C15.9699 24.21 15.5599 24.34 15.1399 24.37C14.8499 24.39 14.6299 24.2 14.5699 23.94C14.5099 23.65 14.6299 23.38 14.9099 23.27C15.0099 23.23 15.1199 23.19 15.2299 23.17C15.9399 23.03 16.6399 22.84 17.3299 22.63C17.6799 22.52 18.0399 22.42 18.3999 22.26Z" fill="#BFBFBF"/>
<path d="M21.87 5.25006C22.01 5.50006 22.11 5.73006 22.16 5.99006C22.33 6.90006 21.63 7.92005 20.69 8.11005C19.97 8.26006 19.35 8.02006 18.78 7.62006C18.52 7.44006 18.48 7.10006 18.64 6.85006C18.8 6.60006 19.11 6.51006 19.4 6.65006C19.61 6.75006 19.8 6.89006 20.04 6.93006C20.28 6.97006 20.52 6.98006 20.72 6.80006C21.04 6.51006 21.1 6.23006 20.88 5.86006C20.65 5.48006 20.31 5.22006 19.94 4.98006C19.82 4.90006 19.68 4.94006 19.55 4.95006C16.93 5.14006 14.66 7.09005 14.06 9.65005C13.95 10.1101 13.91 10.5701 13.91 11.0401C13.91 11.2901 13.79 11.4901 13.55 11.5901C13.33 11.6901 13.12 11.6501 12.93 11.5001C12.75 11.3501 12.71 11.1401 12.71 10.9201C12.71 10.0601 12.85 9.22006 13.19 8.42006C14.29 5.84006 16.19 4.17006 19 3.80006C22.11 3.39006 24.58 4.59006 26.25 7.25006C27.46 9.19006 27.64 11.2801 26.92 13.4501C26.53 14.6301 25.86 15.6201 24.94 16.4501C23.56 17.6901 21.93 18.3401 20.09 18.3601C18.29 18.3801 16.68 17.7601 15.31 16.5901C14.28 15.7201 13.51 14.6501 13.1 13.3501C13.07 13.2501 13.04 13.1501 13.02 13.0401C12.98 12.7501 13.15 12.5001 13.43 12.4101C13.71 12.3201 13.97 12.4301 14.1 12.6901C14.17 12.8301 14.22 12.9701 14.27 13.1201C14.96 15.0101 16.29 16.2501 18.17 16.8401C20.67 17.6301 22.83 16.9601 24.6 15.0601C25.81 13.7701 26.27 12.1901 26.1 10.4501C25.86 7.96006 24.5 6.28006 22.24 5.30006C22.12 5.29006 22.02 5.24006 21.87 5.25006Z" fill="#BFBFBF"/>
<path d="M19.9502 15.8699C19.2602 15.8699 18.6102 15.7099 17.9802 15.4299C17.6402 15.2799 17.5102 14.9699 17.6202 14.6599C17.7402 14.3399 18.0502 14.1999 18.4002 14.3299C18.6602 14.4199 18.9002 14.5399 19.1702 14.5899C19.9402 14.7299 20.7002 14.6899 21.4402 14.3799C21.5702 14.3299 21.7002 14.2699 21.8402 14.2799C22.1002 14.3099 22.3002 14.4899 22.3602 14.7599C22.4102 14.9799 22.3102 15.2099 22.0802 15.3499C21.7202 15.5599 21.3302 15.6899 20.9302 15.7699C20.6202 15.8499 20.2802 15.8699 19.9502 15.8699Z" fill="#BFBFBF"/>
</svg>
