<svg width="56" height="56" viewBox="0 0 56 56" fill="none" xmlns="http://www.w3.org/2000/svg">
<rect width="56" height="56" rx="28" fill="#7666EA"/>
<path d="M13.5199 38.23C13.6299 37.92 13.4299 37.74 13.1599 37.53C11.5799 36.31 10.8299 34.7 10.9699 32.7C11.0299 31.87 11.2799 31.09 11.7099 30.38C11.7699 30.27 11.7499 30.2 11.6999 30.1C10.5499 28.14 10.7299 25.68 12.1799 23.92C12.3699 23.69 12.4099 23.51 12.3499 23.22C11.7999 20.48 13.3899 17.84 16.0999 16.99C16.2599 16.94 16.2599 16.89 16.2199 16.74C15.8999 15.27 16.2399 13.97 17.2699 12.86C17.5699 12.53 17.9299 12.27 18.3199 12.06C18.8799 11.76 19.3499 11.34 19.8799 11C21.1299 10.2 22.4499 9.54 23.8999 9.2C24.5999 9.04 25.3099 8.94 26.0399 9.07C26.7499 9.2 27.3699 9.52 27.8899 10.04C27.9699 10.12 28.0099 10.15 28.1099 10.05C28.8399 9.32 29.7399 8.98 30.7699 9.02C32.0199 9.07 33.1799 9.47 34.3099 9.99C35.3399 10.47 36.2899 11.08 37.1899 11.77C37.3999 11.93 37.6299 12.04 37.8499 12.17C39.4299 13.1 40.2199 14.95 39.7799 16.73C39.7299 16.91 39.7899 16.95 39.9299 17C41.9099 17.66 43.1399 19.01 43.6399 21.03C43.8399 21.83 43.8199 22.63 43.6199 23.43C43.5799 23.58 43.6199 23.67 43.7099 23.78C44.4799 24.68 44.9299 25.71 45.0299 26.9C45.1199 28.06 44.8799 29.13 44.2899 30.13C44.2299 30.23 44.2399 30.3 44.2999 30.39C44.9599 31.52 45.1999 32.74 44.9899 34.03C44.7299 35.59 43.9199 36.8 42.6199 37.69C42.4999 37.77 42.4599 37.86 42.4699 38C42.5799 40.54 41.2099 42.8 38.9099 43.86C38.8799 43.87 38.8599 43.89 38.8299 43.9C38.4799 43.97 38.2699 44.21 38.0699 44.49C37.1799 45.74 35.9699 46.52 34.4799 46.84C32.8399 47.2 31.2899 46.92 29.8699 46.01C29.1799 45.57 28.5999 45.01 28.1499 44.33C28.0099 44.12 28.0099 44.13 27.8699 44.32C26.7399 45.91 25.2199 46.82 23.2699 46.96C21.2099 47.1 19.4999 46.35 18.1599 44.78C18.0099 44.6 17.8799 44.41 17.7499 44.21C17.6799 44.1 17.5999 44.04 17.4799 43.99C15.9199 43.41 14.8099 42.33 14.0899 40.85C13.6899 40.06 13.5199 39.19 13.5199 38.23ZM21.9499 11.96C22.1399 12.03 22.3199 12.14 22.4999 12.25C23.1499 12.67 23.6499 13.22 23.9899 13.92C24.1999 14.35 24.0799 14.8 23.7299 15.06C23.2399 15.43 22.6299 15.27 22.2999 14.68C21.8499 13.89 21.1699 13.45 20.2399 13.44C18.6599 13.42 17.4999 15.14 18.1299 16.59C18.1699 16.69 18.2199 16.77 18.3499 16.79C19.7899 16.98 20.9799 17.63 21.8999 18.76C22.7099 19.75 23.1099 20.89 23.1199 22.17C23.1199 22.49 23.0099 22.75 22.7299 22.93C22.4199 23.14 22.0799 23.18 21.7399 23C21.3999 22.82 21.2599 22.51 21.2599 22.14C21.2499 21.44 21.0699 20.8 20.6699 20.23C19.7799 18.95 18.5499 18.39 17.0199 18.67C15.5599 18.94 14.6199 19.86 14.2099 21.28C13.9999 22.01 14.0499 22.75 14.3199 23.47C14.5099 23.97 14.4299 24.28 14.0399 24.65C13.9699 24.72 13.8899 24.79 13.8199 24.86C12.2999 26.37 12.5099 28.98 14.2499 30.24C14.8799 30.7 15.5799 30.93 16.3599 30.95C16.9199 30.97 17.3199 31.36 17.3199 31.88C17.3099 32.37 16.9199 32.81 16.3499 32.8C15.7999 32.79 15.2699 32.71 14.7399 32.55C14.2299 32.39 13.7499 32.15 13.3099 31.85C13.0999 31.7 13.0899 31.71 13.0099 31.94C13.0099 31.95 13.0099 31.95 12.9999 31.96C12.3799 33.75 13.1899 35.65 14.8999 36.45C15.0199 36.51 15.1299 36.57 15.2299 36.67C15.4899 36.94 15.4999 37.27 15.4499 37.61C15.3799 38.01 15.3499 38.41 15.4099 38.81C15.6899 40.64 16.7099 41.85 18.4799 42.41C18.7699 42.5 18.9699 42.66 19.1199 42.92C19.9899 44.51 21.6999 45.37 23.4899 45.11C25.2299 44.86 26.6799 43.46 27.0099 41.72C27.1199 41.13 27.0799 40.54 27.0799 39.95C27.0799 34.63 27.0799 29.31 27.0799 24C27.0799 22.77 27.0899 21.53 27.0699 20.3C27.0599 19.4 26.4699 18.76 25.5799 18.63C25.4299 18.61 25.2699 18.6 25.1199 18.55C24.7199 18.44 24.4399 17.99 24.4899 17.59C24.5499 17.13 24.8999 16.78 25.3499 16.77C25.8999 16.75 26.4199 16.87 26.9099 17.1C26.9799 17.13 27.0699 17.22 27.0699 17.04C27.0699 15.52 27.0699 14 27.0599 12.48C27.0499 11.62 26.3199 10.9 25.4599 10.88C25.2099 10.87 24.9599 10.9 24.7099 10.94C23.7699 11.09 22.8999 11.45 22.0499 11.88C22.0099 11.88 21.9699 11.89 21.9499 11.96ZM28.9299 29.5C28.9299 30.63 28.9299 31.76 28.9299 32.9C28.9299 34.04 28.9299 35.18 28.9299 36.31C28.9299 36.37 28.8999 36.44 28.9699 36.47C29.0199 36.49 29.0599 36.42 29.0899 36.39C29.8099 35.74 30.6299 35.28 31.5699 35.04C32.0899 34.91 32.5699 35.18 32.7099 35.68C32.8499 36.17 32.5999 36.64 32.0899 36.81C31.9999 36.84 31.9099 36.87 31.8199 36.9C29.7499 37.58 28.5199 39.79 29.0399 41.9C29.5899 44.11 31.7199 45.5 33.9599 45.07C35.2499 44.82 36.2199 44.1 36.8599 42.95C37.0199 42.66 37.2599 42.48 37.5799 42.38C39.2699 41.83 40.2599 40.68 40.5699 38.93C40.6499 38.47 40.6299 38.01 40.5499 37.55C40.4499 37 40.6299 36.65 41.1299 36.41C42.8399 35.59 43.6199 33.69 42.9799 31.89C42.9099 31.7 42.9099 31.7 42.7399 31.81C41.7899 32.46 40.7399 32.8 39.5899 32.78C39.0299 32.77 38.6099 32.26 38.7099 31.71C38.7899 31.25 39.1399 30.96 39.6499 30.94C40.8599 30.9 41.8399 30.4 42.5399 29.42C43.6099 27.92 43.3899 25.94 42.0199 24.7C41.5999 24.32 41.4799 23.91 41.6999 23.39C41.9399 22.8 41.9699 22.17 41.8599 21.55C41.5499 19.84 40.1099 18.64 38.4099 18.6C36.7999 18.56 35.3799 19.58 34.8899 21.17C34.7699 21.54 34.7699 21.92 34.7299 22.3C34.6799 22.8 34.2599 23.14 33.7599 23.11C33.2699 23.08 32.8999 22.7 32.8999 22.2C32.8899 21.41 33.0399 20.65 33.3799 19.94C34.2599 18.14 35.6799 17.08 37.6699 16.79C37.7699 16.78 37.8299 16.74 37.8699 16.64C38.0099 16.28 38.0999 15.91 38.0499 15.52C37.9099 14.55 37.3999 13.85 36.4699 13.55C35.5399 13.25 34.7099 13.49 34.0399 14.22C33.8799 14.4 33.7699 14.61 33.6399 14.82C33.2799 15.38 32.4899 15.41 32.1099 14.87C31.8599 14.52 31.8999 14.15 32.0999 13.79C32.5199 13.01 33.1499 12.45 33.9199 12.03C33.9399 12 34.0099 12 34.0099 11.94C34.0099 11.87 33.9399 11.85 33.8799 11.83C33.5499 11.67 33.2199 11.51 32.8799 11.38C32.1199 11.08 31.3399 10.85 30.5099 10.86C29.9999 10.86 29.5799 11.08 29.2599 11.51C29.0299 11.82 28.9199 12.16 28.9199 12.55C28.9199 14.89 28.9199 17.23 28.9199 19.57C28.9199 19.73 28.9699 19.72 29.0899 19.67C29.5799 19.43 30.0999 19.32 30.6499 19.34C31.1599 19.37 31.5699 19.86 31.4999 20.36C31.4399 20.83 31.0899 21.15 30.5899 21.17C29.4499 21.21 28.8999 22.16 28.9099 22.95C28.9499 25.13 28.9299 27.32 28.9299 29.5Z" fill="white"/>
<path d="M16.3799 21.16C16.8299 21.15 17.2199 21.47 17.2899 21.91C17.3399 22.22 17.3199 22.54 17.3899 22.85C17.9499 25.35 20.8899 26.48 22.9699 25C23.1599 24.86 23.3399 24.71 23.5199 24.56C23.9299 24.22 24.4399 24.23 24.7899 24.59C25.1399 24.96 25.1499 25.5 24.7799 25.88C23.9999 26.68 23.0699 27.19 21.9699 27.4C21.7999 27.43 21.7199 27.49 21.6799 27.67C21.2699 29.33 19.7099 30.62 18.0099 30.72C17.8699 30.73 17.7399 30.75 17.5999 30.74C17.0799 30.68 16.7399 30.28 16.7599 29.78C16.7799 29.29 17.1599 28.91 17.6699 28.9C18.5399 28.88 19.1799 28.48 19.6599 27.77C19.8799 27.45 19.8699 27.45 19.5099 27.34C17.2599 26.64 15.9299 25.13 15.5199 22.82C15.4799 22.59 15.4799 22.34 15.4699 22.1C15.4599 21.56 15.8399 21.18 16.3799 21.16Z" fill="white"/>
<path d="M18.6003 36C18.6403 36 18.6603 36 18.6803 36C18.8503 36.05 18.9003 35.99 18.9203 35.8C19.0803 34.29 19.7303 33.04 20.9103 32.07C21.9203 31.24 23.0703 30.84 24.3703 30.84C24.7503 30.84 25.0803 31.08 25.2203 31.43C25.3503 31.77 25.2603 32.18 24.9903 32.44C24.8303 32.59 24.6403 32.66 24.4203 32.67C23.8403 32.7 23.2603 32.78 22.7403 33.06C21.4603 33.77 20.8003 34.86 20.7503 36.32C20.7503 36.43 20.7903 36.48 20.8803 36.53C22.5903 37.39 23.6003 38.77 23.9303 40.66C23.9803 40.95 23.9903 41.26 23.9803 41.56C23.9503 41.99 23.5403 42.36 23.0903 42.37C22.6203 42.38 22.2003 42.04 22.1503 41.58C22.1003 41.22 22.1003 40.86 22.0003 40.5C21.6103 39.05 20.2803 37.96 18.7803 37.87C18.6403 37.86 18.5003 37.85 18.3703 37.83C17.9003 37.75 17.5903 37.35 17.6103 36.87C17.6303 36.42 17.9903 36.05 18.4403 36C18.5003 36 18.5603 36 18.6003 36Z" fill="white"/>
<path d="M39.2499 22.36C39.2199 24.5 37.7899 26.5 35.7399 27.28C35.5099 27.37 35.2799 27.45 35.0399 27.49C34.8899 27.52 34.8899 27.57 34.9499 27.68C35.3899 28.52 36.0799 28.97 37.0299 29.01C37.4099 29.02 37.7099 29.19 37.8799 29.55C38.0299 29.88 37.9999 30.21 37.7799 30.5C37.5799 30.77 37.2899 30.88 36.9599 30.87C35.1399 30.83 33.5499 29.61 33.0499 27.85C32.9899 27.65 32.9199 27.56 32.6999 27.52C31.6699 27.32 30.7799 26.83 30.0299 26.11C29.6799 25.77 29.5799 25.39 29.7499 24.99C29.9699 24.48 30.6099 24.28 31.0799 24.57C31.1899 24.64 31.2799 24.73 31.3699 24.81C32.5399 25.93 34.3699 26.11 35.7299 25.23C36.7699 24.56 37.3399 23.6 37.4099 22.36C37.4199 22.19 37.4199 22.01 37.4799 21.85C37.6399 21.45 38.0599 21.22 38.4999 21.29C38.9199 21.36 39.2399 21.71 39.2699 22.14C39.2499 22.21 39.2499 22.29 39.2499 22.36Z" fill="white"/>
<path d="M32.8897 42.04C33.0197 40 33.9297 38.44 35.7297 37.43C36.0397 37.26 36.1397 37.1 36.1097 36.75C35.9697 34.97 34.4697 33.51 32.6697 33.46C32.2397 33.45 31.8797 33.33 31.6797 32.91C31.3997 32.31 31.8297 31.6 32.4897 31.6C33.8997 31.6 35.1297 32.07 36.1697 33.01C37.2297 33.97 37.8197 35.18 37.9397 36.61C37.9497 36.74 37.9997 36.77 38.1197 36.76C38.2697 36.75 38.4197 36.75 38.5697 36.79C39.0197 36.91 39.2997 37.32 39.2497 37.8C39.2097 38.22 38.8297 38.58 38.3697 38.6C37.8797 38.63 37.3897 38.68 36.9397 38.89C35.6197 39.51 34.8697 40.53 34.7497 41.99C34.7297 42.28 34.7197 42.57 34.5097 42.81C34.2597 43.09 33.8597 43.2 33.4997 43.07C33.1397 42.94 32.8997 42.61 32.8997 42.24C32.8897 42.17 32.8897 42.1 32.8897 42.04Z" fill="white"/>
</svg>
