<svg width="72" height="72" viewBox="0 0 72 72" fill="none" xmlns="http://www.w3.org/2000/svg">
<path d="M36 8.99964C21.0884 8.99964 9 21.0879 9 35.9997C9 50.9113 21.0884 62.9997 36 62.9997C50.9117 62.9997 63 50.9113 63 35.9997C63 33.3021 62.6045 30.697 61.8681 28.2392L58.9939 29.1015C59.6484 31.2863 60 33.6018 60 35.9997C60 49.2545 49.2549 59.9997 36 59.9997C22.7451 59.9997 12 49.2545 12 35.9997C12 22.7448 22.7451 11.9996 36 11.9996V8.99964Z" fill="white"/>
<path d="M27.2461 22.9761C26.8319 22.2587 27.0778 21.3413 27.7952 20.9271L31.798 18.6161C32.29 18.3321 32.9003 18.3504 33.3743 18.6635C33.8485 18.9765 34.1051 19.5305 34.0372 20.0946L33.3593 25.72L35.2643 24.6202C35.9818 24.2059 36.8992 24.4518 37.3135 25.1692C37.7276 25.8867 37.4818 26.8041 36.7643 27.2183L32.2613 29.8182C31.7693 30.1023 31.159 30.084 30.6848 29.7709C30.2107 29.4579 29.9542 28.9038 30.0221 28.3397L30.6998 22.7142L29.2952 23.5253C28.5778 23.9394 27.6604 23.6936 27.2461 22.9761Z" fill="white"/>
<path d="M39.7871 12.1036C38.9868 12.318 38.5119 13.1406 38.7263 13.9408C38.9408 14.741 39.7632 15.2159 40.5635 15.0014L43.4612 14.225L40.3881 21.8812C40.1765 22.4085 40.2809 23.0101 40.6578 23.4353C41.0348 23.8604 41.6196 24.0359 42.1683 23.8889L48.6884 22.1418C49.4886 21.9274 49.9635 21.1048 49.749 20.3047C49.5347 19.5045 48.7121 19.0296 47.912 19.2441L44.2898 20.2146L47.3628 12.5584C47.5745 12.0311 47.4701 11.4295 47.0931 11.0044C46.7162 10.5793 46.1313 10.4037 45.5826 10.5507L39.7871 12.1036Z" fill="white"/>
<path d="M53.3334 10.4996C53.3334 9.67121 54.005 8.99964 54.8334 8.99964H61.5C62.0453 8.99964 62.5476 9.29555 62.8119 9.77249C63.0764 10.2494 63.0611 10.8322 62.772 11.2946L56.7063 20.9997H61.5C62.3285 20.9997 63 21.6713 63 22.4997C63 23.328 62.3285 23.9997 61.5 23.9997H54C53.4548 23.9997 52.9524 23.7037 52.6881 23.2267C52.4237 22.7499 52.439 22.167 52.728 21.7047L58.7937 11.9996H54.8334C54.005 11.9996 53.3334 11.3281 53.3334 10.4996Z" fill="white"/>
<path d="M21.6062 42.9726C20.4467 42.6041 19.4468 41.7732 19.333 40.6581C19.3102 40.4349 19.3886 40.2131 19.5467 40.0538C19.7048 39.8945 19.9259 39.8142 20.1493 39.8352C23.0459 40.1075 25.8217 38.7134 27.7618 35.5461C27.8956 35.3278 28.1315 35.1927 28.3876 35.1881C28.6436 35.1834 28.8844 35.3097 29.0261 35.523C29.6293 36.431 29.6893 37.8584 29.2549 39.1602C28.8053 40.5078 27.7907 41.8532 26.0569 42.6035C24.3892 43.325 22.8178 43.3578 21.6062 42.9726Z" fill="white"/>
<path d="M47.6086 36.0051C48.4285 35.1062 48.879 33.8868 48.42 32.8641C48.328 32.6594 48.1494 32.5065 47.9328 32.4476C47.7162 32.3886 47.4846 32.4297 47.3016 32.5596C44.9292 34.2437 41.8284 34.4243 38.5645 32.6514C38.3394 32.5292 38.0676 32.5302 37.8435 32.6543C37.6194 32.7782 37.474 33.008 37.458 33.2636C37.3896 34.3515 38.0512 35.6175 39.0784 36.5279C40.1415 37.4702 41.6929 38.1279 43.5696 37.9107C45.3747 37.7018 46.752 36.9446 47.6086 36.0051Z" fill="white"/>
<path fill-rule="evenodd" clip-rule="evenodd" d="M48.6718 47.782C45.2954 43.1557 40.2917 40.71 35.6111 41.9642C30.9305 43.2183 27.8201 47.8383 27.2093 53.5329C27.0374 55.1362 28.5941 56.2677 30.1517 55.8504L47.2823 51.2603C48.8399 50.8428 49.6223 49.0846 48.6718 47.782ZM36.3877 44.862C39.2276 44.1011 42.71 45.3207 45.5207 48.6264L30.3604 52.6886C31.1417 48.4205 33.5477 45.623 36.3877 44.862Z" fill="white"/>
</svg>
