<svg width="45" height="51" viewBox="0 0 45 51" fill="none" xmlns="http://www.w3.org/2000/svg">
<g id="Capa_1" clip-path="url(#clip0_467_612)">
<path id="Vector" d="M22.4704 50.9989C15.544 50.9989 8.61648 50.9989 1.6901 50.9989C0.867447 50.9989 0.27968 50.5967 0.070157 49.8914C0.0061974 49.6739 -0.00372736 49.4509 -0.000419107 49.2256C0.0403827 46.6592 0.521183 44.1785 1.58313 41.8362C4.3356 35.7596 8.93518 31.866 15.4811 30.329C16.8375 30.0104 18.2215 29.8665 19.6197 29.8742C21.7701 29.8852 23.9216 29.8566 26.0708 29.8918C28.6447 29.9335 31.0862 30.5828 33.4427 31.5903C35.0031 32.2582 36.3992 33.1866 37.7005 34.2556C40.7827 36.7857 42.9341 39.9487 44.124 43.7511C44.6952 45.5771 44.9654 47.4502 44.9985 49.3597C45.015 50.2946 44.3887 50.9472 43.4502 50.9956C43.3587 51 43.2672 50.9978 43.1756 50.9978C36.2735 50.9978 29.3725 50.9978 22.4704 50.9978V50.9989Z" fill="#89D7F0"/>
<path id="Vector_2" d="M35.9967 13.4078C35.9669 20.917 30.0242 26.731 22.778 26.8804C15.33 27.0342 9.02009 21.0554 9.00685 13.4693C8.99472 6.04796 14.9915 0.0570757 22.3314 -5.36574e-05C30.3418 -0.0615775 35.9857 6.41821 35.9967 13.4078Z" fill="#89D7F0"/>
</g>
<defs>
<clipPath id="clip0_467_612">
<rect width="45" height="51" fill="white"/>
</clipPath>
</defs>
</svg>
