<svg width="45" height="51" viewBox="0 0 45 51" fill="none" xmlns="http://www.w3.org/2000/svg">
<g id="Capa_1" clip-path="url(#clip0_467_615)">
<path id="Vector" d="M22.4731 49.2478C16.1003 49.2478 9.73357 49.2478 3.36083 49.2478C2.60331 49.2478 2.06223 48.8857 1.86984 48.2549C1.80972 48.0622 1.80371 47.8578 1.80371 47.6592C1.83978 45.358 2.28467 43.1327 3.25862 41.0301C5.78968 35.5809 10.0221 32.0882 16.0402 30.7098C17.2847 30.4236 18.5592 30.2951 19.8458 30.301C21.8238 30.3126 23.8017 30.2834 25.7797 30.3185C28.1484 30.3535 30.3909 30.9376 32.5612 31.8429C33.9981 32.4445 35.2787 33.2738 36.4751 34.2317C39.3127 36.5037 41.2907 39.3364 42.3849 42.7473C42.9079 44.3826 43.1604 46.0647 43.1905 47.776C43.2085 48.617 42.6314 49.2011 41.7656 49.242C41.6815 49.242 41.5973 49.242 41.5131 49.242C35.1644 49.242 28.8157 49.242 22.467 49.242L22.4731 49.2478Z" stroke="#89D7F0" stroke-width="4" stroke-miterlimit="10"/>
<path id="Vector_2" d="M34.9116 13.778C34.8815 20.5122 29.4166 25.7278 22.7552 25.8621C15.9015 26.0023 10.0999 20.6407 10.0879 13.8364C10.0759 7.17811 15.5889 1.80477 22.3404 1.75804C29.7051 1.70548 34.8995 7.51686 34.9116 13.7838V13.778Z" stroke="#89D7F0" stroke-width="4" stroke-miterlimit="10"/>
</g>
<defs>
<clipPath id="clip0_467_615">
<rect width="45" height="51" fill="white"/>
</clipPath>
</defs>
</svg>
