<svg width="87" height="85" viewBox="0 0 87 85" fill="none" xmlns="http://www.w3.org/2000/svg">
<g id="Vector">
<path id="Vector_2" d="M11.4393 55.764C13.6563 62.0898 17.3495 67.3206 23.034 71.0387C28.2301 74.4372 34.0166 76.0672 40.2141 76.022C52.9823 75.9298 63.2872 70.8066 70.6743 60.3719C75.418 53.6717 77.2566 46.1218 76.1949 37.995C74.6185 25.9296 65.9985 15.5851 53.7979 12.5368C53.0782 12.3572 52.7773 12.4427 52.6521 12.8805C52.5221 13.3344 52.7808 13.649 53.4278 13.8411C61.3975 16.2141 67.3585 21.0472 71.1915 28.3483C77.6175 40.5874 74.8737 55.3924 64.5232 64.9108C60.7521 68.3784 56.4373 70.939 51.5583 72.4933C44.5533 74.7257 37.5051 74.9939 30.5195 72.5657C23.8485 70.2474 18.8028 65.9157 15.4523 59.784C10.3184 50.3892 10.2522 40.679 14.4002 30.8899C17.3571 23.9111 22.1788 18.4278 28.8571 14.7356C38.573 9.36448 48.5714 8.84241 58.6526 13.5225C65.2011 16.5633 70.0747 21.4087 73.4492 27.7385C73.8996 28.5826 74.2732 29.4674 74.6633 30.3424C74.8009 30.6501 74.9741 30.8548 75.3311 30.7264C75.7162 30.5885 75.663 30.2932 75.5463 29.998C71.4869 19.7405 63.9863 13.2512 53.3796 10.2401C48.1314 8.74964 42.7807 8.61842 37.4372 9.79236C28.2401 11.8129 21.0141 16.7959 15.7947 24.5562C10.7156 32.1086 8.78467 40.4357 9.93318 49.4217C10.2098 51.5844 10.7126 53.7017 11.4393 55.764Z" fill="white"/>
</g>
</svg>
